DBRep_DrawableShape

CASCADE Topology V3, (c) Open Cascade
Locations 0
Curve2ds 24
1 0 0 1 0
1 0 0 1 0
1 200 0 0 -1
1 0 0 -1.257109316250516e-17 1
1 0 -1.0000000000000002 1 0
1 0 0 1 0
1 0 0 0 -1
1 0 0 -1.257109316250516e-17 1
1 0 0 1 0
1 0 1.0000000000000044 1 0
1 200 0 0 -1
1 1.0000000000000044 1.481441710678188e-15 -1.257109316250516e-17 1
1 0 -1.0000000000000002 1 0
1 0 1.0000000000000044 1 0
1 0 0 0 -1
1 1.0000000000000044 1.481441710678188e-15 -1.257109316250516e-17 1
1 0 0 0 1
1 0 0 1 -1.257109316250516e-17
1 200 0 0 1
1 0 0 1 -1.257109316250516e-17
1 0 0 0 1
1 1.1230343768056234e-15 1.0000000000000002 1 -1.257109316250516e-17
1 200 0 0 1
1 1.1230343768056234e-15 1.0000000000000002 1 -1.257109316250516e-17
Curves 12
1 -44.735499800905146 -23.657392581661821 -100 0 0 1
1 -44.735499800905146 -23.657392581661821 100 -0.23730913851868357 0.97143418345018118 0
1 -44.972808939423828 -22.685958398211639 -100 0 0 1
1 -44.735499800905146 -23.657392581661821 -100 -0.23730913851868357 0.97143418345018118 0
1 -43.76406561745496 -23.420083443143135 -100 0 0 1
1 -43.76406561745496 -23.420083443143135 100 -0.23730913851868357 0.97143418345018118 0
1 -44.001374755973643 -22.448649259692953 -100 0 0 1
1 -43.76406561745496 -23.420083443143135 -100 -0.23730913851868357 0.97143418345018118 0
1 -44.735499800905146 -23.657392581661821 -100 0.97143418345018118 0.23730913851868357 0
1 -44.735499800905146 -23.657392581661821 100 0.97143418345018118 0.23730913851868357 0
1 -44.972808939423828 -22.685958398211639 -100 0.97143418345018118 0.23730913851868357 0
1 -44.972808939423828 -22.685958398211639 100 0.97143418345018118 0.23730913851868357 0
Polygon3D 0
PolygonOnTriangulations 0
Surfaces 6
1 -44.735499800905146 -23.657392581661821 -100 0.97143418345018118 0.23730913851868357 0 0 0 1 0.23730913851868357 -0.97143418345018118 0
1 -44.735499800905146 -23.657392581661821 -100 -0.23730913851868357 0.97143418345018118 0 0 0 1 0.97143418345018118 0.23730913851868357 0
1 -44.735499800905146 -23.657392581661821 100 0 0 1 0.97143418345018118 0.23730913851868357 0 -0.23730913851868357 0.97143418345018118 0
1 -44.972808939423828 -22.685958398211639 -100 -0.23730913851868357 0.97143418345018118 0 0 0 1 0.97143418345018118 0.23730913851868357 0
1 -44.735499800905146 -23.657392581661821 -100 0 0 1 0.97143418345018118 0.23730913851868357 0 -0.23730913851868357 0.97143418345018118 0
1 -43.76406561745496 -23.420083443143135 -100 0.97143418345018118 0.23730913851868357 0 0 0 1 0.23730913851868357 -0.97143418345018118 0
Triangulations 0

TShapes 35
Ve
1e-07
-44.7354998009051 -23.6573925816618 100
0 0

0101101
*
Ve
1e-07
-44.7354998009051 -23.6573925816618 -100
0 0

0101101
*
Ed
 1e-07 1 1 0
1  1 0 0 200
2  1 1 0 0 200
2  2 2 0 0 200
0

0101000
-35 0 +34 0 *
Ve
1e-07
-44.9728089394238 -22.6859583982116 100
0 0

0101101
*
Ed
 1e-07 1 1 0
1  2 0 0 1
2  3 1 0 0 1
2  4 3 0 0 1
0

0101000
-32 0 +35 0 *
Ve
1e-07
-44.9728089394238 -22.6859583982116 -100
0 0

0101101
*
Ed
 1e-07 1 1 0
1  3 0 0 200
2  5 1 0 0 200
2  6 4 0 0 200
0

0101000
-32 0 +30 0 *
Ed
 1e-07 1 1 0
1  4 0 0 1
2  7 1 0 0 1
2  8 5 0 0 1
0

0101000
-30 0 +34 0 *
Wi

0101100
-33 0 -31 0 +29 0 +28 0 *
Fa
0  1e-07 1 0

0111000
+27 0 *
Ve
1e-07
-43.764065617455 -23.4200834431431 100
0 0

0101101
*
Ve
1e-07
-43.764065617455 -23.4200834431431 -100
0 0

0101101
*
Ed
 1e-07 1 1 0
1  5 0 0 200
2  9 6 0 0 200
2  10 2 0 0 200
0

0101000
-25 0 +24 0 *
Ve
1e-07
-44.0013747559736 -22.448649259693 100
0 0

0101101
*
Ed
 1e-07 1 1 0
1  6 0 0 1
2  11 6 0 0 1
2  12 3 0 0 1
0

0101000
-22 0 +25 0 *
Ve
1e-07
-44.0013747559736 -22.448649259693 -100
0 0

0101101
*
Ed
 1e-07 1 1 0
1  7 0 0 200
2  13 6 0 0 200
2  14 4 0 0 200
0

0101000
-22 0 +20 0 *
Ed
 1e-07 1 1 0
1  8 0 0 1
2  15 6 0 0 1
2  16 5 0 0 1
0

0101000
-20 0 +24 0 *
Wi

0101100
-23 0 -21 0 +19 0 +18 0 *
Fa
0  1e-07 6 0

0111000
+17 0 *
Ed
 1e-07 1 1 0
1  9 0 0 1
2  17 2 0 0 1
2  18 5 0 0 1
0

0101000
-24 0 +34 0 *
Ed
 1e-07 1 1 0
1  10 0 0 1
2  19 2 0 0 1
2  20 3 0 0 1
0

0101000
-25 0 +35 0 *
Wi

0101100
-15 0 -23 0 +14 0 +33 0 *
Fa
0  1e-07 2 0

0111000
+13 0 *
Ed
 1e-07 1 1 0
1  11 0 0 1
2  21 4 0 0 1
2  22 5 0 0 1
0

0101000
-20 0 +30 0 *
Ed
 1e-07 1 1 0
1  12 0 0 1
2  23 4 0 0 1
2  24 3 0 0 1
0

0101000
-22 0 +32 0 *
Wi

0101100
-11 0 -19 0 +10 0 +29 0 *
Fa
0  1e-07 4 0

0111000
+9 0 *
Wi

0101100
-28 0 -11 0 +18 0 +15 0 *
Fa
0  1e-07 5 0

0111000
+7 0 *
Wi

0101100
-31 0 -10 0 +21 0 +14 0 *
Fa
0  1e-07 3 0

0111000
+5 0 *
Sh

0101100
-26 0 +16 0 -12 0 +8 0 -6 0 +4 0 *
So

0100000
+3 0 *
Co

1100000
+2 0 *

+1 0
