DBRep_DrawableShape

CASCADE Topology V3, (c) Open Cascade
Locations 0
Curve2ds 24
1 0 0 1 0 
1 0 0 1 0 
1 200 0 0 -1 
1 0 0 2.3737901261412106e-17 1 
1 0 -0.88000000000000023 1 0 
1 0 0 1 0 
1 0 0 0 -1 
1 0 0 2.3737901261412106e-17 1 
1 0 0 1 0 
1 0 0.87999999999999845 1 0 
1 200 0 0 -1 
1 0.87999999999999901 4.3882995401805261e-15 2.3737901261412106e-17 1 
1 0 -0.88000000000000023 1 0 
1 0 0.87999999999999845 1 0 
1 0 0 0 -1 
1 0.87999999999999901 4.3882995401805261e-15 2.3737901261412106e-17 1 
1 0 0 0 1 
1 0 0 1 2.3737901261412106e-17 
1 200 0 0 1 
1 0 0 1 2.3737901261412106e-17 
1 0 0 0 1 
1 4.2841018794538511e-16 0.88000000000000023 1 2.3737901261412106e-17 
1 200 0 0 1 
1 4.2841018794538511e-16 0.88000000000000023 1 2.3737901261412106e-17 
Curves 12
1 -24.592435016112876 -44.224516003126055 -100 0 0 1 
1 -24.592435016112876 -44.224516003126055 100 -0.50561554624039329 0.86275889992513477 0 
1 -25.037376696804422 -43.465288171191936 -100 0 0 1 
1 -24.592435016112876 -44.224516003126055 -100 -0.50561554624039329 0.86275889992513477 0 
1 -23.833207184178761 -43.779574322434506 -100 0 0 1 
1 -23.833207184178761 -43.779574322434506 100 -0.50561554624039329 0.86275889992513477 0 
1 -24.278148864870307 -43.020346490500387 -100 0 0 1 
1 -23.833207184178761 -43.779574322434506 -100 -0.50561554624039329 0.86275889992513477 0 
1 -24.592435016112876 -44.224516003126055 -100 0.86275889992513477 0.50561554624039329 0 
1 -24.592435016112876 -44.224516003126055 100 0.86275889992513477 0.50561554624039329 0 
1 -25.037376696804422 -43.465288171191936 -100 0.86275889992513477 0.50561554624039329 0 
1 -25.037376696804422 -43.465288171191936 100 0.86275889992513477 0.50561554624039329 0 
Polygon3D 0
PolygonOnTriangulations 0
Surfaces 6
1 -24.592435016112876 -44.224516003126055 -100 0.86275889992513477 0.50561554624039329 0 0 0 1 0.50561554624039329 -0.86275889992513477 0 
1 -24.592435016112876 -44.224516003126055 -100 -0.50561554624039329 0.86275889992513477 0 0 0 1 0.86275889992513477 0.50561554624039329 0 
1 -24.592435016112876 -44.224516003126055 100 0 0 1 0.86275889992513477 0.50561554624039329 0 -0.50561554624039329 0.86275889992513477 0 
1 -25.037376696804422 -43.465288171191936 -100 -0.50561554624039329 0.86275889992513477 0 0 0 1 0.86275889992513477 0.50561554624039329 0 
1 -24.592435016112876 -44.224516003126055 -100 0 0 1 0.86275889992513477 0.50561554624039329 0 -0.50561554624039329 0.86275889992513477 0 
1 -23.833207184178761 -43.779574322434506 -100 0.86275889992513477 0.50561554624039329 0 0 0 1 0.50561554624039329 -0.86275889992513477 0 
Triangulations 0

TShapes 35
Ve
1e-07
-24.5924350161129 -44.2245160031261 100
0 0

0101101
*
Ve
1e-07
-24.5924350161129 -44.2245160031261 -100
0 0

0101101
*
Ed
 1e-07 1 1 0
1  1 0 0 200
2  1 1 0 0 200
2  2 2 0 0 200
0

0101000
-35 0 +34 0 *
Ve
1e-07
-25.0373766968044 -43.4652881711919 100
0 0

0101101
*
Ed
 1e-07 1 1 0
1  2 0 0 0.88
2  3 1 0 0 0.88
2  4 3 0 0 0.88
0

0101000
-32 0 +35 0 *
Ve
1e-07
-25.0373766968044 -43.4652881711919 -100
0 0

0101101
*
Ed
 1e-07 1 1 0
1  3 0 0 200
2  5 1 0 0 200
2  6 4 0 0 200
0

0101000
-32 0 +30 0 *
Ed
 1e-07 1 1 0
1  4 0 0 0.88
2  7 1 0 0 0.88
2  8 5 0 0 0.88
0

0101000
-30 0 +34 0 *
Wi

0101100
-33 0 -31 0 +29 0 +28 0 *
Fa
0  1e-07 1 0

0111000
+27 0 *
Ve
1e-07
-23.8332071841788 -43.7795743224345 100
0 0

0101101
*
Ve
1e-07
-23.8332071841788 -43.7795743224345 -100
0 0

0101101
*
Ed
 1e-07 1 1 0
1  5 0 0 200
2  9 6 0 0 200
2  10 2 0 0 200
0

0101000
-25 0 +24 0 *
Ve
1e-07
-24.2781488648703 -43.0203464905004 100
0 0

0101101
*
Ed
 1e-07 1 1 0
1  6 0 0 0.88
2  11 6 0 0 0.88
2  12 3 0 0 0.88
0

0101000
-22 0 +25 0 *
Ve
1e-07
-24.2781488648703 -43.0203464905004 -100
0 0

0101101
*
Ed
 1e-07 1 1 0
1  7 0 0 200
2  13 6 0 0 200
2  14 4 0 0 200
0

0101000
-22 0 +20 0 *
Ed
 1e-07 1 1 0
1  8 0 0 0.88
2  15 6 0 0 0.88
2  16 5 0 0 0.88
0

0101000
-20 0 +24 0 *
Wi

0101100
-23 0 -21 0 +19 0 +18 0 *
Fa
0  1e-07 6 0

0111000
+17 0 *
Ed
 1e-07 1 1 0
1  9 0 0 0.88
2  17 2 0 0 0.88
2  18 5 0 0 0.88
0

0101000
-24 0 +34 0 *
Ed
 1e-07 1 1 0
1  10 0 0 0.88
2  19 2 0 0 0.88
2  20 3 0 0 0.88
0

0101000
-25 0 +35 0 *
Wi

0101100
-15 0 -23 0 +14 0 +33 0 *
Fa
0  1e-07 2 0

0111000
+13 0 *
Ed
 1e-07 1 1 0
1  11 0 0 0.88
2  21 4 0 0 0.88
2  22 5 0 0 0.88
0

0101000
-20 0 +30 0 *
Ed
 1e-07 1 1 0
1  12 0 0 0.88
2  23 4 0 0 0.88
2  24 3 0 0 0.88
0

0101000
-22 0 +32 0 *
Wi

0101100
-11 0 -19 0 +10 0 +29 0 *
Fa
0  1e-07 4 0

0111000
+9 0 *
Wi

0101100
-28 0 -11 0 +18 0 +15 0 *
Fa
0  1e-07 5 0

0111000
+7 0 *
Wi

0101100
-31 0 -10 0 +21 0 +14 0 *
Fa
0  1e-07 3 0

0111000
+5 0 *
Sh

0101100
-26 0 +16 0 -12 0 +8 0 -6 0 +4 0 *
So

0100000
+3 0 *
Co

1100000
+2 0 *

+1 0 