DBRep_DrawableShape

CASCADE Topology V3, (c) Open Cascade
Locations 0
Curve2ds 24
1 0 0 1 0 
1 0 0 1 0 
1 200 0 0 -1 
1 0 0 -1.2402321980925694e-17 1 
1 0 -0.92000000000000126 1 0 
1 0 0 1 0 
1 0 0 0 -1 
1 0 0 -1.2402321980925694e-17 1 
1 0 0 1 0 
1 0 0.91999999999999693 1 0 
1 200 0 0 -1 
1 0.91999999999999693 -5.8667468096411865e-16 -1.2402321980925694e-17 1 
1 0 -0.92000000000000126 1 0 
1 0 0.91999999999999693 1 0 
1 0 0 0 -1 
1 0.91999999999999693 -5.8667468096411865e-16 -1.2402321980925694e-17 1 
1 0 0 0 1 
1 0 0 1 -1.2402321980925694e-17 
1 200 0 0 1 
1 0 0 1 -1.2402321980925694e-17 
1 0 0 0 1 
1 3.164055886838686e-15 0.92000000000000126 1 -1.2402321980925694e-17 
1 200 0 0 1 
1 3.164055886838686e-15 0.92000000000000126 1 -1.2402321980925694e-17 
Curves 12
1 -43.446842177646687 24.071927046639122 -100 0 0 1 
1 -43.446842177646687 24.071927046639122 100 -0.24483735669944573 -0.96956416433592907 0 
1 -43.67209254581018 23.179928015450066 -100 0 0 1 
1 -43.446842177646687 24.071927046639122 -100 -0.24483735669944573 -0.96956416433592907 0 
1 -44.338841208835738 24.297177414802611 -100 0 0 1 
1 -44.338841208835738 24.297177414802611 100 -0.24483735669944573 -0.96956416433592907 0 
1 -44.564091576999232 23.405178383613556 -100 0 0 1 
1 -44.338841208835738 24.297177414802611 -100 -0.24483735669944573 -0.96956416433592907 0 
1 -43.446842177646687 24.071927046639122 -100 -0.96956416433592907 0.24483735669944573 0 
1 -43.446842177646687 24.071927046639122 100 -0.96956416433592907 0.24483735669944573 0 
1 -43.67209254581018 23.179928015450066 -100 -0.96956416433592907 0.24483735669944573 0 
1 -43.67209254581018 23.179928015450066 100 -0.96956416433592907 0.24483735669944573 0 
Polygon3D 0
PolygonOnTriangulations 0
Surfaces 6
1 -43.446842177646687 24.071927046639122 -100 -0.96956416433592907 0.24483735669944573 0 0 0 1 0.24483735669944573 0.96956416433592907 0 
1 -43.446842177646687 24.071927046639122 -100 -0.24483735669944573 -0.96956416433592907 0 0 0 1 -0.96956416433592907 0.24483735669944573 0 
1 -43.446842177646687 24.071927046639122 100 0 0 1 -0.96956416433592907 0.24483735669944573 0 -0.24483735669944573 -0.96956416433592907 0 
1 -43.67209254581018 23.179928015450066 -100 -0.24483735669944573 -0.96956416433592907 0 0 0 1 -0.96956416433592907 0.24483735669944573 0 
1 -43.446842177646687 24.071927046639122 -100 0 0 1 -0.96956416433592907 0.24483735669944573 0 -0.24483735669944573 -0.96956416433592907 0 
1 -44.338841208835738 24.297177414802611 -100 -0.96956416433592907 0.24483735669944573 0 0 0 1 0.24483735669944573 0.96956416433592907 0 
Triangulations 0

TShapes 35
Ve
1e-07
-43.4468421776467 24.0719270466391 100
0 0

0101101
*
Ve
1e-07
-43.4468421776467 24.0719270466391 -100
0 0

0101101
*
Ed
 1e-07 1 1 0
1  1 0 0 200
2  1 1 0 0 200
2  2 2 0 0 200
0

0101000
-35 0 +34 0 *
Ve
1e-07
-43.6720925458102 23.1799280154501 100
0 0

0101101
*
Ed
 1e-07 1 1 0
1  2 0 0 0.92
2  3 1 0 0 0.92
2  4 3 0 0 0.92
0

0101000
-32 0 +35 0 *
Ve
1e-07
-43.6720925458102 23.1799280154501 -100
0 0

0101101
*
Ed
 1e-07 1 1 0
1  3 0 0 200
2  5 1 0 0 200
2  6 4 0 0 200
0

0101000
-32 0 +30 0 *
Ed
 1e-07 1 1 0
1  4 0 0 0.92
2  7 1 0 0 0.92
2  8 5 0 0 0.92
0

0101000
-30 0 +34 0 *
Wi

0101100
-33 0 -31 0 +29 0 +28 0 *
Fa
0  1e-07 1 0

0111000
+27 0 *
Ve
1e-07
-44.3388412088357 24.2971774148026 100
0 0

0101101
*
Ve
1e-07
-44.3388412088357 24.2971774148026 -100
0 0

0101101
*
Ed
 1e-07 1 1 0
1  5 0 0 200
2  9 6 0 0 200
2  10 2 0 0 200
0

0101000
-25 0 +24 0 *
Ve
1e-07
-44.5640915769992 23.4051783836136 100
0 0

0101101
*
Ed
 1e-07 1 1 0
1  6 0 0 0.92
2  11 6 0 0 0.92
2  12 3 0 0 0.92
0

0101000
-22 0 +25 0 *
Ve
1e-07
-44.5640915769992 23.4051783836136 -100
0 0

0101101
*
Ed
 1e-07 1 1 0
1  7 0 0 200
2  13 6 0 0 200
2  14 4 0 0 200
0

0101000
-22 0 +20 0 *
Ed
 1e-07 1 1 0
1  8 0 0 0.92
2  15 6 0 0 0.92
2  16 5 0 0 0.92
0

0101000
-20 0 +24 0 *
Wi

0101100
-23 0 -21 0 +19 0 +18 0 *
Fa
0  1e-07 6 0

0111000
+17 0 *
Ed
 1e-07 1 1 0
1  9 0 0 0.92
2  17 2 0 0 0.92
2  18 5 0 0 0.92
0

0101000
-24 0 +34 0 *
Ed
 1e-07 1 1 0
1  10 0 0 0.92
2  19 2 0 0 0.92
2  20 3 0 0 0.92
0

0101000
-25 0 +35 0 *
Wi

0101100
-15 0 -23 0 +14 0 +33 0 *
Fa
0  1e-07 2 0

0111000
+13 0 *
Ed
 1e-07 1 1 0
1  11 0 0 0.92
2  21 4 0 0 0.92
2  22 5 0 0 0.92
0

0101000
-20 0 +30 0 *
Ed
 1e-07 1 1 0
1  12 0 0 0.92
2  23 4 0 0 0.92
2  24 3 0 0 0.92
0

0101000
-22 0 +32 0 *
Wi

0101100
-11 0 -19 0 +10 0 +29 0 *
Fa
0  1e-07 4 0

0111000
+9 0 *
Wi

0101100
-28 0 -11 0 +18 0 +15 0 *
Fa
0  1e-07 5 0

0111000
+7 0 *
Wi

0101100
-31 0 -10 0 +21 0 +14 0 *
Fa
0  1e-07 3 0

0111000
+5 0 *
Sh

0101100
-26 0 +16 0 -12 0 +8 0 -6 0 +4 0 *
So

0100000
+3 0 *
Co

1100000
+2 0 *

+1 0 