DBRep_DrawableShape

CASCADE Topology V3, (c) Open Cascade
Locations 0
Curve2ds 24
1 0 0 1 0 
1 0 0 1 0 
1 200 0 0 -1 
1 0 0 -9.6350062226475489e-18 1 
1 0 -0.91999999999999948 1 0 
1 0 0 1 0 
1 0 0 0 -1 
1 0 0 -9.6350062226475489e-18 1 
1 0 0 1 0 
1 0 0.92000000000000581 1 0 
1 200 0 0 -1 
1 0.92000000000000282 7.6996291828664415e-15 -9.6350062226475489e-18 1 
1 0 -0.91999999999999793 1 0 
1 0 0.91999999999999937 1 0 
1 0 0 0 -1 
1 0.92000000000000282 7.6996291828664415e-15 -9.6350062226475489e-18 1 
1 0 0 0 1 
1 0 0 1 -9.6350062226475489e-18 
1 200 0 0 1 
1 0 0 1 -9.6350062226475489e-18 
1 0 0 0 1 
1 1.7404311224366828e-15 0.91999999999999948 1 -9.6350062226475489e-18 
1 200 0 0 1 
1 1.7404311224366828e-15 0.91999999999999948 1 -9.6350062226475489e-18 
Curves 12
1 -32.920707348508628 37.934630886126904 -100 0 0 1 
1 -32.920707348508628 37.934630886126904 100 0.420596016556187 0.90724803160826295 0 
1 -32.533759013276935 38.769299075206504 -100 0 0 1 
1 -32.920707348508628 37.934630886126904 -100 0.420596016556187 0.90724803160826295 0 
1 -32.086039159429021 37.547682550895217 -100 0 0 1 
1 -32.086039159429021 37.547682550895217 100 0.420596016556187 0.90724803160826295 0 
1 -31.699090824197331 38.382350739974818 -100 0 0 1 
1 -32.086039159429021 37.547682550895217 -100 0.420596016556187 0.90724803160826295 0 
1 -32.920707348508628 37.934630886126904 -100 0.90724803160826295 -0.420596016556187 0 
1 -32.920707348508628 37.934630886126904 100 0.90724803160826295 -0.420596016556187 0 
1 -32.533759013276935 38.769299075206504 -100 0.90724803160826295 -0.420596016556187 0 
1 -32.533759013276935 38.769299075206504 100 0.90724803160826295 -0.420596016556187 0 
Polygon3D 0
PolygonOnTriangulations 0
Surfaces 6
1 -32.920707348508628 37.934630886126904 -100 0.90724803160826295 -0.420596016556187 0 0 0 1 -0.420596016556187 -0.90724803160826295 0 
1 -32.920707348508628 37.934630886126904 -100 0.420596016556187 0.90724803160826295 0 0 0 1 0.90724803160826295 -0.420596016556187 0 
1 -32.920707348508628 37.934630886126904 100 0 0 1 0.90724803160826295 -0.420596016556187 0 0.420596016556187 0.90724803160826295 0 
1 -32.533759013276935 38.769299075206504 -100 0.420596016556187 0.90724803160826295 0 0 0 1 0.90724803160826295 -0.420596016556187 0 
1 -32.920707348508628 37.934630886126904 -100 0 0 1 0.90724803160826295 -0.420596016556187 0 0.420596016556187 0.90724803160826295 0 
1 -32.086039159429021 37.547682550895217 -100 0.90724803160826295 -0.420596016556187 0 0 0 1 -0.420596016556187 -0.90724803160826295 0 
Triangulations 0

TShapes 35
Ve
1e-07
-32.9207073485086 37.9346308861269 100
0 0

0101101
*
Ve
1e-07
-32.9207073485086 37.9346308861269 -100
0 0

0101101
*
Ed
 1e-07 1 1 0
1  1 0 0 200
2  1 1 0 0 200
2  2 2 0 0 200
0

0101000
-35 0 +34 0 *
Ve
1e-07
-32.5337590132769 38.7692990752065 100
0 0

0101101
*
Ed
 1e-07 1 1 0
1  2 0 0 0.92
2  3 1 0 0 0.92
2  4 3 0 0 0.92
0

0101000
-32 0 +35 0 *
Ve
1e-07
-32.5337590132769 38.7692990752065 -100
0 0

0101101
*
Ed
 1e-07 1 1 0
1  3 0 0 200
2  5 1 0 0 200
2  6 4 0 0 200
0

0101000
-32 0 +30 0 *
Ed
 1e-07 1 1 0
1  4 0 0 0.92
2  7 1 0 0 0.92
2  8 5 0 0 0.92
0

0101000
-30 0 +34 0 *
Wi

0101100
-33 0 -31 0 +29 0 +28 0 *
Fa
0  1e-07 1 0

0111000
+27 0 *
Ve
1e-07
-32.086039159429 37.5476825508952 100
0 0

0101101
*
Ve
1e-07
-32.086039159429 37.5476825508952 -100
0 0

0101101
*
Ed
 1e-07 1 1 0
1  5 0 0 200
2  9 6 0 0 200
2  10 2 0 0 200
0

0101000
-25 0 +24 0 *
Ve
1e-07
-31.6990908241973 38.3823507399748 100
0 0

0101101
*
Ed
 1e-07 1 1 0
1  6 0 0 0.92
2  11 6 0 0 0.92
2  12 3 0 0 0.92
0

0101000
-22 0 +25 0 *
Ve
1e-07
-31.6990908241973 38.3823507399748 -100
0 0

0101101
*
Ed
 1e-07 1 1 0
1  7 0 0 200
2  13 6 0 0 200
2  14 4 0 0 200
0

0101000
-22 0 +20 0 *
Ed
 1e-07 1 1 0
1  8 0 0 0.92
2  15 6 0 0 0.92
2  16 5 0 0 0.92
0

0101000
-20 0 +24 0 *
Wi

0101100
-23 0 -21 0 +19 0 +18 0 *
Fa
0  1e-07 6 0

0111000
+17 0 *
Ed
 1e-07 1 1 0
1  9 0 0 0.92
2  17 2 0 0 0.92
2  18 5 0 0 0.92
0

0101000
-24 0 +34 0 *
Ed
 1e-07 1 1 0
1  10 0 0 0.92
2  19 2 0 0 0.92
2  20 3 0 0 0.92
0

0101000
-25 0 +35 0 *
Wi

0101100
-15 0 -23 0 +14 0 +33 0 *
Fa
0  1e-07 2 0

0111000
+13 0 *
Ed
 1e-07 1 1 0
1  11 0 0 0.92
2  21 4 0 0 0.92
2  22 5 0 0 0.92
0

0101000
-20 0 +30 0 *
Ed
 1e-07 1 1 0
1  12 0 0 0.92
2  23 4 0 0 0.92
2  24 3 0 0 0.92
0

0101000
-22 0 +32 0 *
Wi

0101100
-11 0 -19 0 +10 0 +29 0 *
Fa
0  1e-07 4 0

0111000
+9 0 *
Wi

0101100
-28 0 -11 0 +18 0 +15 0 *
Fa
0  1e-07 5 0

0111000
+7 0 *
Wi

0101100
-31 0 -10 0 +21 0 +14 0 *
Fa
0  1e-07 3 0

0111000
+5 0 *
Sh

0101100
-26 0 +16 0 -12 0 +8 0 -6 0 +4 0 *
So

0100000
+3 0 *
Co

1100000
+2 0 *

+1 0 