DBRep_DrawableShape

CASCADE Topology V3, (c) Open Cascade
Locations 0
Curve2ds 24
1 0 0 1 0
1 0 0 1 0
1 200 0 0 -1
1 0 0 -4.3272699365539505e-18 1
1 0 -0.88000000000000267 1 0
1 0 0 1 0
1 0 0 0 -1
1 0 0 -4.3272699365539505e-18 1
1 0 0 1 0
1 0 0.87999999999999901 1 0
1 200 0 0 -1
1 0.87999999999999956 -7.723154426700454e-16 -4.3272699365539505e-18 1
1 0 -0.88000000000000334 1 0
1 0 0.87999999999999901 1 0
1 0 0 0 -1
1 0.87999999999999956 -7.723154426700454e-16 -4.3272699365539505e-18 1
1 0 0 0 1
1 0 0 1 -4.3272699365539505e-18
1 200 0 0 1
1 0 0 1 -4.3272699365539505e-18
1 0 0 0 1
1 2.7720434431845385e-15 0.88000000000000134 1 -4.3272699365539505e-18
1 200 0 0 1
1 2.7720434431845385e-15 0.88000000000000134 1 -4.3272699365539505e-18
Curves 12
1 7.5920309760109923 -48.792476879941042 -100 0 0 1
1 7.5920309760109923 -48.792476879941042 100 0.75920820291696312 -0.65084783523001399 0
1 8.260134194577919 -49.365222974943457 -100 0 0 1
1 7.5920309760109923 -48.792476879941042 -100 0.75920820291696312 -0.65084783523001399 0
1 7.0192848810085797 -49.460580098507968 -100 0 0 1
1 7.0192848810085797 -49.460580098507968 100 0.75920820291696312 -0.65084783523001399 0
1 7.6873880995755073 -50.033326193510383 -100 0 0 1
1 7.0192848810085797 -49.460580098507968 -100 0.75920820291696312 -0.65084783523001399 0
1 7.5920309760109923 -48.792476879941042 -100 -0.65084783523001399 -0.75920820291696312 0
1 7.5920309760109923 -48.792476879941042 100 -0.65084783523001399 -0.75920820291696312 0
1 8.260134194577919 -49.365222974943457 -100 -0.65084783523001399 -0.75920820291696312 0
1 8.260134194577919 -49.365222974943457 100 -0.65084783523001399 -0.75920820291696312 0
Polygon3D 0
PolygonOnTriangulations 0
Surfaces 6
1 7.5920309760109923 -48.792476879941042 -100 -0.65084783523001399 -0.75920820291696312 0 0 0 1 -0.75920820291696312 0.65084783523001399 0
1 7.5920309760109923 -48.792476879941042 -100 0.75920820291696312 -0.65084783523001399 0 0 0 1 -0.65084783523001399 -0.75920820291696312 0
1 7.5920309760109923 -48.792476879941042 100 0 0 1 -0.65084783523001399 -0.75920820291696312 0 0.75920820291696312 -0.65084783523001399 0
1 8.260134194577919 -49.365222974943457 -100 0.75920820291696312 -0.65084783523001399 0 0 0 1 -0.65084783523001399 -0.75920820291696312 0
1 7.5920309760109923 -48.792476879941042 -100 0 0 1 -0.65084783523001399 -0.75920820291696312 0 0.75920820291696312 -0.65084783523001399 0
1 7.0192848810085797 -49.460580098507968 -100 -0.65084783523001399 -0.75920820291696312 0 0 0 1 -0.75920820291696312 0.65084783523001399 0
Triangulations 0

TShapes 35
Ve
1e-07
7.59203097601099 -48.792476879941 100
0 0

0101101
*
Ve
1e-07
7.59203097601099 -48.792476879941 -100
0 0

0101101
*
Ed
 1e-07 1 1 0
1  1 0 0 200
2  1 1 0 0 200
2  2 2 0 0 200
0

0101000
-35 0 +34 0 *
Ve
1e-07
8.26013419457792 -49.3652229749435 100
0 0

0101101
*
Ed
 1e-07 1 1 0
1  2 0 0 0.88
2  3 1 0 0 0.88
2  4 3 0 0 0.88
0

0101000
-32 0 +35 0 *
Ve
1e-07
8.26013419457792 -49.3652229749435 -100
0 0

0101101
*
Ed
 1e-07 1 1 0
1  3 0 0 200
2  5 1 0 0 200
2  6 4 0 0 200
0

0101000
-32 0 +30 0 *
Ed
 1e-07 1 1 0
1  4 0 0 0.88
2  7 1 0 0 0.88
2  8 5 0 0 0.88
0

0101000
-30 0 +34 0 *
Wi

0101100
-33 0 -31 0 +29 0 +28 0 *
Fa
0  1e-07 1 0

0111000
+27 0 *
Ve
1e-07
7.01928488100858 -49.460580098508 100
0 0

0101101
*
Ve
1e-07
7.01928488100858 -49.460580098508 -100
0 0

0101101
*
Ed
 1e-07 1 1 0
1  5 0 0 200
2  9 6 0 0 200
2  10 2 0 0 200
0

0101000
-25 0 +24 0 *
Ve
1e-07
7.68738809957551 -50.0333261935104 100
0 0

0101101
*
Ed
 1e-07 1 1 0
1  6 0 0 0.88
2  11 6 0 0 0.88
2  12 3 0 0 0.88
0

0101000
-22 0 +25 0 *
Ve
1e-07
7.68738809957551 -50.0333261935104 -100
0 0

0101101
*
Ed
 1e-07 1 1 0
1  7 0 0 200
2  13 6 0 0 200
2  14 4 0 0 200
0

0101000
-22 0 +20 0 *
Ed
 1e-07 1 1 0
1  8 0 0 0.88
2  15 6 0 0 0.88
2  16 5 0 0 0.88
0

0101000
-20 0 +24 0 *
Wi

0101100
-23 0 -21 0 +19 0 +18 0 *
Fa
0  1e-07 6 0

0111000
+17 0 *
Ed
 1e-07 1 1 0
1  9 0 0 0.88
2  17 2 0 0 0.88
2  18 5 0 0 0.88
0

0101000
-24 0 +34 0 *
Ed
 1e-07 1 1 0
1  10 0 0 0.88
2  19 2 0 0 0.88
2  20 3 0 0 0.88
0

0101000
-25 0 +35 0 *
Wi

0101100
-15 0 -23 0 +14 0 +33 0 *
Fa
0  1e-07 2 0

0111000
+13 0 *
Ed
 1e-07 1 1 0
1  11 0 0 0.88
2  21 4 0 0 0.88
2  22 5 0 0 0.88
0

0101000
-20 0 +30 0 *
Ed
 1e-07 1 1 0
1  12 0 0 0.88
2  23 4 0 0 0.88
2  24 3 0 0 0.88
0

0101000
-22 0 +32 0 *
Wi

0101100
-11 0 -19 0 +10 0 +29 0 *
Fa
0  1e-07 4 0

0111000
+9 0 *
Wi

0101100
-28 0 -11 0 +18 0 +15 0 *
Fa
0  1e-07 5 0

0111000
+7 0 *
Wi

0101100
-31 0 -10 0 +21 0 +14 0 *
Fa
0  1e-07 3 0

0111000
+5 0 *
Sh

0101100
-26 0 +16 0 -12 0 +8 0 -6 0 +4 0 *
So

0100000
+3 0 *
Co

1100000
+2 0 *

+1 0
