DBRep_DrawableShape

CASCADE Topology V3, (c) Open Cascade
Locations 0
Curve2ds 24
1 0 0 1 0 
1 0 0 1 0 
1 200 0 0 -1 
1 0 0 1.2082448173437101e-17 1 
1 0 -0.88000000000000389 1 0 
1 0 0 1 0 
1 0 0 0 -1 
1 0 0 1.2082448173437101e-17 1 
1 0 0 1 0 
1 0 0.88000000000000389 1 0 
1 200 0 0 -1 
1 0.88000000000000145 -4.6140119461844698e-15 1.2082448173437101e-17 1 
1 0 -0.88000000000000389 1 0 
1 0 0.88000000000000389 1 0 
1 0 0 0 -1 
1 0.88000000000000145 -4.6140119461844698e-15 1.2082448173437101e-17 1 
1 0 0 0 1 
1 0 0 1 1.2082448173437101e-17 
1 200 0 0 1 
1 0 0 1 1.2082448173437101e-17 
1 0 0 0 1 
1 4.6310576439138675e-15 0.88000000000000134 1 1.2082448173437101e-17 
1 200 0 0 1 
1 4.6310576439138675e-15 0.88000000000000134 1 1.2082448173437101e-17 
Curves 12
1 -37.573476520622492 -33.843836547477174 -100 0 0 1 
1 -37.573476520622492 -33.843836547477174 100 -0.35610383604191737 0.934446391162292 0 
1 -37.886847896339376 -33.021523723254354 -100 0 0 1 
1 -37.573476520622492 -33.843836547477174 -100 -0.35610383604191737 0.934446391162292 0 
1 -36.751163696399672 -33.530465171760291 -100 0 0 1 
1 -36.751163696399672 -33.530465171760291 100 -0.35610383604191737 0.934446391162292 0 
1 -37.064535072116556 -32.708152347537471 -100 0 0 1 
1 -36.751163696399672 -33.530465171760291 -100 -0.35610383604191737 0.934446391162292 0 
1 -37.573476520622492 -33.843836547477174 -100 0.934446391162292 0.35610383604191737 0 
1 -37.573476520622492 -33.843836547477174 100 0.934446391162292 0.35610383604191737 0 
1 -37.886847896339376 -33.021523723254354 -100 0.934446391162292 0.35610383604191737 0 
1 -37.886847896339376 -33.021523723254354 100 0.934446391162292 0.35610383604191737 0 
Polygon3D 0
PolygonOnTriangulations 0
Surfaces 6
1 -37.573476520622492 -33.843836547477174 -100 0.934446391162292 0.35610383604191737 0 0 0 1 0.35610383604191737 -0.934446391162292 0 
1 -37.573476520622492 -33.843836547477174 -100 -0.35610383604191737 0.934446391162292 0 0 0 1 0.934446391162292 0.35610383604191737 0 
1 -37.573476520622492 -33.843836547477174 100 0 0 1 0.934446391162292 0.35610383604191737 0 -0.35610383604191737 0.934446391162292 0 
1 -37.886847896339376 -33.021523723254354 -100 -0.35610383604191737 0.934446391162292 0 0 0 1 0.934446391162292 0.35610383604191737 0 
1 -37.573476520622492 -33.843836547477174 -100 0 0 1 0.934446391162292 0.35610383604191737 0 -0.35610383604191737 0.934446391162292 0 
1 -36.751163696399672 -33.530465171760291 -100 0.934446391162292 0.35610383604191737 0 0 0 1 0.35610383604191737 -0.934446391162292 0 
Triangulations 0

TShapes 35
Ve
1e-07
-37.5734765206225 -33.8438365474772 100
0 0

0101101
*
Ve
1e-07
-37.5734765206225 -33.8438365474772 -100
0 0

0101101
*
Ed
 1e-07 1 1 0
1  1 0 0 200
2  1 1 0 0 200
2  2 2 0 0 200
0

0101000
-35 0 +34 0 *
Ve
1e-07
-37.8868478963394 -33.0215237232544 100
0 0

0101101
*
Ed
 1e-07 1 1 0
1  2 0 0 0.88
2  3 1 0 0 0.88
2  4 3 0 0 0.88
0

0101000
-32 0 +35 0 *
Ve
1e-07
-37.8868478963394 -33.0215237232544 -100
0 0

0101101
*
Ed
 1e-07 1 1 0
1  3 0 0 200
2  5 1 0 0 200
2  6 4 0 0 200
0

0101000
-32 0 +30 0 *
Ed
 1e-07 1 1 0
1  4 0 0 0.88
2  7 1 0 0 0.88
2  8 5 0 0 0.88
0

0101000
-30 0 +34 0 *
Wi

0101100
-33 0 -31 0 +29 0 +28 0 *
Fa
0  1e-07 1 0

0111000
+27 0 *
Ve
1e-07
-36.7511636963997 -33.5304651717603 100
0 0

0101101
*
Ve
1e-07
-36.7511636963997 -33.5304651717603 -100
0 0

0101101
*
Ed
 1e-07 1 1 0
1  5 0 0 200
2  9 6 0 0 200
2  10 2 0 0 200
0

0101000
-25 0 +24 0 *
Ve
1e-07
-37.0645350721166 -32.7081523475375 100
0 0

0101101
*
Ed
 1e-07 1 1 0
1  6 0 0 0.88
2  11 6 0 0 0.88
2  12 3 0 0 0.88
0

0101000
-22 0 +25 0 *
Ve
1e-07
-37.0645350721166 -32.7081523475375 -100
0 0

0101101
*
Ed
 1e-07 1 1 0
1  7 0 0 200
2  13 6 0 0 200
2  14 4 0 0 200
0

0101000
-22 0 +20 0 *
Ed
 1e-07 1 1 0
1  8 0 0 0.88
2  15 6 0 0 0.88
2  16 5 0 0 0.88
0

0101000
-20 0 +24 0 *
Wi

0101100
-23 0 -21 0 +19 0 +18 0 *
Fa
0  1e-07 6 0

0111000
+17 0 *
Ed
 1e-07 1 1 0
1  9 0 0 0.88
2  17 2 0 0 0.88
2  18 5 0 0 0.88
0

0101000
-24 0 +34 0 *
Ed
 1e-07 1 1 0
1  10 0 0 0.88
2  19 2 0 0 0.88
2  20 3 0 0 0.88
0

0101000
-25 0 +35 0 *
Wi

0101100
-15 0 -23 0 +14 0 +33 0 *
Fa
0  1e-07 2 0

0111000
+13 0 *
Ed
 1e-07 1 1 0
1  11 0 0 0.88
2  21 4 0 0 0.88
2  22 5 0 0 0.88
0

0101000
-20 0 +30 0 *
Ed
 1e-07 1 1 0
1  12 0 0 0.88
2  23 4 0 0 0.88
2  24 3 0 0 0.88
0

0101000
-22 0 +32 0 *
Wi

0101100
-11 0 -19 0 +10 0 +29 0 *
Fa
0  1e-07 4 0

0111000
+9 0 *
Wi

0101100
-28 0 -11 0 +18 0 +15 0 *
Fa
0  1e-07 5 0

0111000
+7 0 *
Wi

0101100
-31 0 -10 0 +21 0 +14 0 *
Fa
0  1e-07 3 0

0111000
+5 0 *
Sh

0101100
-26 0 +16 0 -12 0 +8 0 -6 0 +4 0 *
So

0100000
+3 0 *
Co

1100000
+2 0 *

+1 0 