DBRep_DrawableShape

CASCADE Topology V3, (c) Open Cascade
Locations 0
Curve2ds 24
1 0 0 1 0 
1 0 0 1 0 
1 200 0 0 -1 
1 0 0 -1.1431277007890855e-17 1 
1 0 -1.0002999999999953 1 0 
1 0 0 1 0 
1 0 0 0 -1 
1 0 0 -1.1431277007890855e-17 1 
1 0 0 1 0 
1 0 1.0003000000000002 1 0 
1 200 0 0 -1 
1 1.0003000000000002 6.6007563121709983e-16 -1.1431277007890855e-17 1 
1 0 -1.0002999999999953 1 0 
1 0 1.0003000000000002 1 0 
1 0 0 0 -1 
1 1.0003000000000002 6.6007563121709983e-16 -1.1431277007890855e-17 1 
1 0 0 0 1 
1 0 0 1 -1.1431277007890855e-17 
1 200 0 0 1 
1 0 0 1 -1.1431277007890855e-17 
1 0 0 0 1 
1 2.6369965786649885e-16 1.0002999999999953 1 -1.1431277007890855e-17 
1 200 0 0 1 
1 2.6369965786649885e-16 1.0002999999999953 1 -1.1431277007890855e-17 
Curves 12
1 -18.964882785147203 -47.013311241176631 -100 0 0 1 
1 -18.964882785147203 -47.013311241176631 100 -0.55830834229934823 0.82963353049340638 0 
1 -19.523358619949239 -46.18342882062408 -100 0 0 1 
1 -18.964882785147203 -47.013311241176631 -100 -0.55830834229934823 0.82963353049340638 0 
1 -18.135000364594649 -46.454835406374592 -100 0 0 1 
1 -18.135000364594649 -46.454835406374592 100 -0.55830834229934823 0.82963353049340638 0 
1 -18.693476199396684 -45.624952985822041 -100 0 0 1 
1 -18.135000364594649 -46.454835406374592 -100 -0.55830834229934823 0.82963353049340638 0 
1 -18.964882785147203 -47.013311241176631 -100 0.82963353049340638 0.55830834229934823 0 
1 -18.964882785147203 -47.013311241176631 100 0.82963353049340638 0.55830834229934823 0 
1 -19.523358619949239 -46.18342882062408 -100 0.82963353049340638 0.55830834229934823 0 
1 -19.523358619949239 -46.18342882062408 100 0.82963353049340638 0.55830834229934823 0 
Polygon3D 0
PolygonOnTriangulations 0
Surfaces 6
1 -18.964882785147203 -47.013311241176631 -100 0.82963353049340638 0.55830834229934823 0 0 0 1 0.55830834229934823 -0.82963353049340638 0 
1 -18.964882785147203 -47.013311241176631 -100 -0.55830834229934823 0.82963353049340638 0 0 0 1 0.82963353049340638 0.55830834229934823 0 
1 -18.964882785147203 -47.013311241176631 100 0 0 1 0.82963353049340638 0.55830834229934823 0 -0.55830834229934823 0.82963353049340638 0 
1 -19.523358619949239 -46.18342882062408 -100 -0.55830834229934823 0.82963353049340638 0 0 0 1 0.82963353049340638 0.55830834229934823 0 
1 -18.964882785147203 -47.013311241176631 -100 0 0 1 0.82963353049340638 0.55830834229934823 0 -0.55830834229934823 0.82963353049340638 0 
1 -18.135000364594649 -46.454835406374592 -100 0.82963353049340638 0.55830834229934823 0 0 0 1 0.55830834229934823 -0.82963353049340638 0 
Triangulations 0

TShapes 35
Ve
1e-07
-18.9648827851472 -47.0133112411766 100
0 0

0101101
*
Ve
1e-07
-18.9648827851472 -47.0133112411766 -100
0 0

0101101
*
Ed
 1e-07 1 1 0
1  1 0 0 200
2  1 1 0 0 200
2  2 2 0 0 200
0

0101000
-35 0 +34 0 *
Ve
1e-07
-19.5233586199492 -46.1834288206241 100
0 0

0101101
*
Ed
 1e-07 1 1 0
1  2 0 0 1.0003
2  3 1 0 0 1.0003
2  4 3 0 0 1.0003
0

0101000
-32 0 +35 0 *
Ve
1e-07
-19.5233586199492 -46.1834288206241 -100
0 0

0101101
*
Ed
 1e-07 1 1 0
1  3 0 0 200
2  5 1 0 0 200
2  6 4 0 0 200
0

0101000
-32 0 +30 0 *
Ed
 1e-07 1 1 0
1  4 0 0 1.0003
2  7 1 0 0 1.0003
2  8 5 0 0 1.0003
0

0101000
-30 0 +34 0 *
Wi

0101100
-33 0 -31 0 +29 0 +28 0 *
Fa
0  1e-07 1 0

0111000
+27 0 *
Ve
1e-07
-18.1350003645946 -46.4548354063746 100
0 0

0101101
*
Ve
1e-07
-18.1350003645946 -46.4548354063746 -100
0 0

0101101
*
Ed
 1e-07 1 1 0
1  5 0 0 200
2  9 6 0 0 200
2  10 2 0 0 200
0

0101000
-25 0 +24 0 *
Ve
1e-07
-18.6934761993967 -45.624952985822 100
0 0

0101101
*
Ed
 1e-07 1 1 0
1  6 0 0 1.0003
2  11 6 0 0 1.0003
2  12 3 0 0 1.0003
0

0101000
-22 0 +25 0 *
Ve
1e-07
-18.6934761993967 -45.624952985822 -100
0 0

0101101
*
Ed
 1e-07 1 1 0
1  7 0 0 200
2  13 6 0 0 200
2  14 4 0 0 200
0

0101000
-22 0 +20 0 *
Ed
 1e-07 1 1 0
1  8 0 0 1.0003
2  15 6 0 0 1.0003
2  16 5 0 0 1.0003
0

0101000
-20 0 +24 0 *
Wi

0101100
-23 0 -21 0 +19 0 +18 0 *
Fa
0  1e-07 6 0

0111000
+17 0 *
Ed
 1e-07 1 1 0
1  9 0 0 1.0003
2  17 2 0 0 1.0003
2  18 5 0 0 1.0003
0

0101000
-24 0 +34 0 *
Ed
 1e-07 1 1 0
1  10 0 0 1.0003
2  19 2 0 0 1.0003
2  20 3 0 0 1.0003
0

0101000
-25 0 +35 0 *
Wi

0101100
-15 0 -23 0 +14 0 +33 0 *
Fa
0  1e-07 2 0

0111000
+13 0 *
Ed
 1e-07 1 1 0
1  11 0 0 1.0003
2  21 4 0 0 1.0003
2  22 5 0 0 1.0003
0

0101000
-20 0 +30 0 *
Ed
 1e-07 1 1 0
1  12 0 0 1.0003
2  23 4 0 0 1.0003
2  24 3 0 0 1.0003
0

0101000
-22 0 +32 0 *
Wi

0101100
-11 0 -19 0 +10 0 +29 0 *
Fa
0  1e-07 4 0

0111000
+9 0 *
Wi

0101100
-28 0 -11 0 +18 0 +15 0 *
Fa
0  1e-07 5 0

0111000
+7 0 *
Wi

0101100
-31 0 -10 0 +21 0 +14 0 *
Fa
0  1e-07 3 0

0111000
+5 0 *
Sh

0101100
-26 0 +16 0 -12 0 +8 0 -6 0 +4 0 *
So

0100000
+3 0 *
Co

1100000
+2 0 *

+1 0 