DBRep_DrawableShape

CASCADE Topology V3, (c) Open Cascade
Locations 4
1
              1               0               0               0
              0               1               0               0
              0               0               1           -33.5
2  1 -1 0
1
              1               0               0               0
              0               1               0               0
              0               0               1            33.5
2  3 -1 0
Curve2ds 24
1 0 0.75 1 0
2 0 0 1 0 -0 1 46
1 6.2831853071795862 -0 0 1
1 0 -0 0 1
1 0 0 1 0
2 0 0 1 0 -0 1 46
1 0 0.375 1 0
2 0 0 1 0 -0 1 41
1 6.2831853071795862 -0 0 1
1 0 -0 0 1
1 0 66.625 1 0
2 0 0 1 0 -0 1 41
1 0 0 1 0
2 0 0 1 0 -0 1 46
1 0 0.75 1 0
2 0 0 1 0 -0 1 46
1 6.2831853071795862 -0 0 1
1 0 -0 0 1
1 0 0.375 1 0
2 0 0 1 0 -0 1 39.5
1 6.2831853071795862 -0 0 1
1 0 -0 0 1
1 0 66.625 1 0
2 0 0 1 0 -0 1 39.5
Curves 12
2 0 0 42.875 0 0 1 1 0 0 0 1 0 46
1 46 -1.1266750552155649e-14 42.125 0 0 1
2 0 0 42.125 0 0 1 1 0 0 0 1 0 46
2 0 0 9.375 0 0 1 1 0 0 0 1 0 41
1 41 -1.0042103753008296e-14 9 0 0 1
2 0 0 75.625 0 0 1 1 0 0 0 1 0 41
2 0 0 42.125 0 0 1 1 0 0 0 1 0 46
2 0 0 42.875 0 0 1 1 0 0 0 1 0 46
1 46 -1.1266750552155649e-14 42.125 0 0 1
2 0 0 9.375 0 0 1 1 0 0 0 1 0 39.5
1 39.5 -9.6747097132640909e-15 9 0 0 1
2 0 0 75.625 0 0 1 1 0 0 0 1 0 39.5
Polygon3D 0
PolygonOnTriangulations 0
Surfaces 10
2 0 0 42.125 0 0 1 1 0 0 0 1 0 46
1 0 0 42.875 0 0 1 1 0 0 0 1 0
1 0 0 42.125 0 0 1 1 0 0 0 1 0
2 0 0 9 0 0 1 1 0 0 0 1 0 41
1 0 0 42.125 0 0 1 1 0 0 0 1 0
2 0 0 42.125 0 0 1 1 0 0 0 1 0 46
1 0 0 42.875 0 0 1 1 0 0 0 1 0
1 0 0 42.875 0 0 1 1 0 0 0 1 0
2 0 0 9 0 0 1 1 0 0 0 1 0 39.5
1 0 0 42.125 0 0 1 1 0 0 0 1 0
Triangulations 0

TShapes 46
Ve
1e-07
46 -1.12667505521556e-14 9.375
0 0

0101101
*
Ed
 1e-07 1 1 0
1  1 0 0 6.28318530717959
2  1 1 0 0 6.28318530717959
2  2 2 0 0 6.28318530717959
0

0101000
+46 2 -46 2 *
Ve
1e-07
46 -1.12667505521556e-14 8.625
0 0

0101101
*
Ed
 1e-07 1 1 0
1  2 0 0 0.75
3  3 4CN 1 0 0 0.75
0

0101000
-46 2 +44 2 *
Ed
 1e-07 1 1 0
1  3 0 0 6.28318530717959
2  5 1 0 0 6.28318530717959
2  6 3 0 0 6.28318530717959
0

0101000
+44 2 -44 2 *
Wi

0101100
-45 0 +43 0 +42 0 -43 0 *
Fa
0  1e-07 1 0

0111000
+41 0 *
Wi

0101100
+45 1 *
Ve
1.00000010042104e-07
41 -1.00421037530083e-14 9.375
0 0

0101101
*
Ed
 1e-07 1 1 0
1  4 0 0 6.28318530717959
2  7 4 0 0 6.28318530717959
2  8 2 1 0 6.28318530717959
0

0101100
+38 0 -38 0 *
Wi

0101100
-37 0 *
Fa
0  1e-07 2 1

0101000
+39 0 +36 0 *
Wi

0101100
-42 0 *
Fa
0  1e-07 3 0

0111000
-34 0 *
Ve
1.00000010042104e-07
41 -1.00421037530083e-14 75.625
0 0

0101101
*
Ed
 1e-07 1 1 0
1  5 0 0.375 66.625
3  9 10CN 4 0 0.375 66.625
0

0101000
+38 0 -32 0 *
Ed
 1e-07 1 1 0
1  6 0 0 6.28318530717959
2  11 4 0 0 6.28318530717959
2  12 5 3 0 6.28318530717959
0

0101100
+32 0 -32 0 *
Wi

0101100
+31 0 +37 0 -31 0 -30 0 *
Fa
0  1e-07 4 0

0101000
+29 0 *
Ve
1e-07
46 -1.12667505521556e-14 75.625
0 0

0101101
*
Ed
 1e-07 1 1 0
1  7 0 0 6.28318530717959
2  13 6 0 0 6.28318530717959
2  14 5 0 0 6.28318530717959
0

0101000
+27 4 -27 4 *
Wi

0101100
+26 3 *
Wi

0101100
-30 0 *
Fa
0  1e-07 5 3

0101000
+25 0 +24 0 *
Ve
1e-07
46 -1.12667505521556e-14 76.375
0 0

0101101
*
Ed
 1e-07 1 1 0
1  8 0 0 6.28318530717959
2  15 6 0 0 6.28318530717959
2  16 7 0 0 6.28318530717959
0

0101000
+22 4 -22 4 *
Ed
 1e-07 1 1 0
1  9 0 0 0.75
3  17 18CN 6 0 0 0.75
0

0101000
-22 4 +27 4 *
Wi

0101100
-21 0 +20 0 +26 0 -20 0 *
Fa
0  1e-07 6 0

0111000
+19 0 *
Wi

0101100
+21 0 *
Fa
0  1e-07 7 0

0111000
+17 0 *
Sh

0101100
+40 1 +35 0 -33 1 +28 0 -23 0 +18 3 +16 3 *
Ve
1.0000000967471e-07
39.5 -9.67470971326409e-15 9.375
0 0

0101101
*
Ed
 1e-07 1 1 0
1  10 0 0 6.28318530717959
2  19 9 0 0 6.28318530717959
2  20 8 1 0 6.28318530717959
0

0101100
+14 0 -14 0 *
Wi

0101100
+13 0 *
Fa
0  1e-07 8 1

0101000
+12 0 *
Ve
1.0000000967471e-07
39.5 -9.67470971326409e-15 75.625
0 0

0101101
*
Ed
 1e-07 1 1 0
1  11 0 0.375 66.625
3  21 22CN 9 0 0.375 66.625
0

0101000
+14 0 -10 0 *
Ed
 1e-07 1 1 0
1  12 0 0 6.28318530717959
2  23 9 0 0 6.28318530717959
2  24 10 3 0 6.28318530717959
0

0101100
+10 0 -10 0 *
Wi

0101100
+9 0 +13 0 -9 0 -8 0 *
Fa
0  1e-07 9 0

0101000
+7 0 *
Wi

0101100
+8 0 *
Fa
0  1e-07 10 3

0101000
+5 0 *
Sh

0101100
+11 0 -6 0 -4 0 *
So

0100000
+15 0 +3 0 *
Co

1100000
+2 0 *

+1 0
