DBRep_DrawableShape

CASCADE Topology V3, (c) Open Cascade
Locations 0
Curve2ds 24
1 0 0 1 0
1 0 0 1 0
1 200 0 0 -1
1 0 0 -1.8091656806716094e-17 1
1 0 -1.0003000000000037 1 0
1 0 0 1 0
1 0 0 0 -1
1 0 0 -1.8091656806716094e-17 1
1 0 0 1 0
1 0 1.0002999999999991 1 0
1 200 0 0 -1
1 1.0002999999999991 -7.9089772935716347e-16 -1.8091656806716094e-17 1
1 0 -1.0003000000000037 1 0
1 0 1.0002999999999991 1 0
1 0 0 0 -1
1 1.0002999999999991 -7.9089772935716347e-16 -1.8091656806716094e-17 1
1 0 0 0 1
1 0 0 1 -1.8091656806716094e-17
1 200 0 0 1
1 0 0 1 -1.8091656806716094e-17
1 0 0 0 1
1 -1.4770101374706641e-15 1.0003000000000037 1 -1.8091656806716094e-17
1 200 0 0 1
1 -1.4770101374706641e-15 1.0003000000000037 1 -1.8091656806716094e-17
Curves 12
1 39.607561409106012 29.997601237155433 -100 0 0 1
1 39.607561409106012 29.997601237155433 100 0.94994176221067306 0.31242702893328717 0
1 40.557788153845351 30.310121994197402 -100 0 0 1
1 39.607561409106012 29.997601237155433 -100 0.94994176221067306 0.31242702893328717 0
1 39.920082166147978 29.047374492416097 -100 0 0 1
1 39.920082166147978 29.047374492416097 100 0.94994176221067306 0.31242702893328717 0
1 40.870308910887317 29.359895249458067 -100 0 0 1
1 39.920082166147978 29.047374492416097 -100 0.94994176221067306 0.31242702893328717 0
1 39.607561409106012 29.997601237155433 -100 0.31242702893328717 -0.94994176221067306 0
1 39.607561409106012 29.997601237155433 100 0.31242702893328717 -0.94994176221067306 0
1 40.557788153845351 30.310121994197402 -100 0.31242702893328717 -0.94994176221067306 0
1 40.557788153845351 30.310121994197402 100 0.31242702893328717 -0.94994176221067306 0
Polygon3D 0
PolygonOnTriangulations 0
Surfaces 6
1 39.607561409106012 29.997601237155433 -100 0.31242702893328717 -0.94994176221067306 0 0 0 1 -0.94994176221067306 -0.31242702893328717 0
1 39.607561409106012 29.997601237155433 -100 0.94994176221067306 0.31242702893328717 0 0 0 1 0.31242702893328717 -0.94994176221067306 0
1 39.607561409106012 29.997601237155433 100 0 0 1 0.31242702893328717 -0.94994176221067306 0 0.94994176221067306 0.31242702893328717 0
1 40.557788153845351 30.310121994197402 -100 0.94994176221067306 0.31242702893328717 0 0 0 1 0.31242702893328717 -0.94994176221067306 0
1 39.607561409106012 29.997601237155433 -100 0 0 1 0.31242702893328717 -0.94994176221067306 0 0.94994176221067306 0.31242702893328717 0
1 39.920082166147978 29.047374492416097 -100 0.31242702893328717 -0.94994176221067306 0 0 0 1 -0.94994176221067306 -0.31242702893328717 0
Triangulations 0

TShapes 35
Ve
1e-07
39.607561409106 29.9976012371554 100
0 0

0101101
*
Ve
1e-07
39.607561409106 29.9976012371554 -100
0 0

0101101
*
Ed
 1e-07 1 1 0
1  1 0 0 200
2  1 1 0 0 200
2  2 2 0 0 200
0

0101000
-35 0 +34 0 *
Ve
1e-07
40.5577881538454 30.3101219941974 100
0 0

0101101
*
Ed
 1e-07 1 1 0
1  2 0 0 1.0003
2  3 1 0 0 1.0003
2  4 3 0 0 1.0003
0

0101000
-32 0 +35 0 *
Ve
1e-07
40.5577881538454 30.3101219941974 -100
0 0

0101101
*
Ed
 1e-07 1 1 0
1  3 0 0 200
2  5 1 0 0 200
2  6 4 0 0 200
0

0101000
-32 0 +30 0 *
Ed
 1e-07 1 1 0
1  4 0 0 1.0003
2  7 1 0 0 1.0003
2  8 5 0 0 1.0003
0

0101000
-30 0 +34 0 *
Wi

0101100
-33 0 -31 0 +29 0 +28 0 *
Fa
0  1e-07 1 0

0111000
+27 0 *
Ve
1e-07
39.920082166148 29.0473744924161 100
0 0

0101101
*
Ve
1e-07
39.920082166148 29.0473744924161 -100
0 0

0101101
*
Ed
 1e-07 1 1 0
1  5 0 0 200
2  9 6 0 0 200
2  10 2 0 0 200
0

0101000
-25 0 +24 0 *
Ve
1e-07
40.8703089108873 29.3598952494581 100
0 0

0101101
*
Ed
 1e-07 1 1 0
1  6 0 0 1.0003
2  11 6 0 0 1.0003
2  12 3 0 0 1.0003
0

0101000
-22 0 +25 0 *
Ve
1e-07
40.8703089108873 29.3598952494581 -100
0 0

0101101
*
Ed
 1e-07 1 1 0
1  7 0 0 200
2  13 6 0 0 200
2  14 4 0 0 200
0

0101000
-22 0 +20 0 *
Ed
 1e-07 1 1 0
1  8 0 0 1.0003
2  15 6 0 0 1.0003
2  16 5 0 0 1.0003
0

0101000
-20 0 +24 0 *
Wi

0101100
-23 0 -21 0 +19 0 +18 0 *
Fa
0  1e-07 6 0

0111000
+17 0 *
Ed
 1e-07 1 1 0
1  9 0 0 1.0003
2  17 2 0 0 1.0003
2  18 5 0 0 1.0003
0

0101000
-24 0 +34 0 *
Ed
 1e-07 1 1 0
1  10 0 0 1.0003
2  19 2 0 0 1.0003
2  20 3 0 0 1.0003
0

0101000
-25 0 +35 0 *
Wi

0101100
-15 0 -23 0 +14 0 +33 0 *
Fa
0  1e-07 2 0

0111000
+13 0 *
Ed
 1e-07 1 1 0
1  11 0 0 1.0003
2  21 4 0 0 1.0003
2  22 5 0 0 1.0003
0

0101000
-20 0 +30 0 *
Ed
 1e-07 1 1 0
1  12 0 0 1.0003
2  23 4 0 0 1.0003
2  24 3 0 0 1.0003
0

0101000
-22 0 +32 0 *
Wi

0101100
-11 0 -19 0 +10 0 +29 0 *
Fa
0  1e-07 4 0

0111000
+9 0 *
Wi

0101100
-28 0 -11 0 +18 0 +15 0 *
Fa
0  1e-07 5 0

0111000
+7 0 *
Wi

0101100
-31 0 -10 0 +21 0 +14 0 *
Fa
0  1e-07 3 0

0111000
+5 0 *
Sh

0101100
-26 0 +16 0 -12 0 +8 0 -6 0 +4 0 *
So

0100000
+3 0 *
Co

1100000
+2 0 *

+1 0
