DBRep_DrawableShape

CASCADE Topology V3, (c) Open Cascade
Locations 0
Curve2ds 24
1 0 0 1 0 
1 0 0 1 0 
1 200 0 0 -1 
1 0 0 -1.7418825901197699e-18 1 
1 0 -0.87999999999999912 1 0 
1 0 0 1 0 
1 0 0 0 -1 
1 0 0 -1.7418825901197699e-18 1 
1 0 0 1 0 
1 0 0.88000000000000334 1 0 
1 200 0 0 -1 
1 0.88000000000000178 4.5585732074560637e-15 -1.7418825901197699e-18 1 
1 0 -0.87999999999999912 1 0 
1 0 0.88000000000000334 1 0 
1 0 0 0 -1 
1 0.88000000000000178 4.5585732074560637e-15 -1.7418825901197699e-18 1 
1 0 0 0 1 
1 0 0 1 -1.7418825901197699e-18 
1 200 0 0 1 
1 0 0 1 -1.7418825901197699e-18 
1 0 0 0 1 
1 -2.9051040811756251e-16 0.87999999999999912 1 -1.7418825901197699e-18 
1 200 0 0 1 
1 -2.9051040811756251e-16 0.87999999999999912 1 -1.7418825901197699e-18 
Curves 12
1 44.830152853772283 -20.929515486261813 -100 0 0 1 
1 44.830152853772283 -20.929515486261813 100 0.9755132224704911 -0.21994079381787796 0 
1 45.688604489546314 -21.123063384821545 -100 0 0 1 
1 44.830152853772283 -20.929515486261813 -100 0.9755132224704911 -0.21994079381787796 0 
1 44.636604955212555 -21.787967122035848 -100 0 0 1 
1 44.636604955212555 -21.787967122035848 100 0.9755132224704911 -0.21994079381787796 0 
1 45.495056590986586 -21.98151502059558 -100 0 0 1 
1 44.636604955212555 -21.787967122035848 -100 0.9755132224704911 -0.21994079381787796 0 
1 44.830152853772283 -20.929515486261813 -100 -0.21994079381787796 -0.9755132224704911 0 
1 44.830152853772283 -20.929515486261813 100 -0.21994079381787796 -0.9755132224704911 0 
1 45.688604489546314 -21.123063384821545 -100 -0.21994079381787796 -0.9755132224704911 0 
1 45.688604489546314 -21.123063384821545 100 -0.21994079381787796 -0.9755132224704911 0 
Polygon3D 0
PolygonOnTriangulations 0
Surfaces 6
1 44.830152853772283 -20.929515486261813 -100 -0.21994079381787796 -0.9755132224704911 0 0 0 1 -0.9755132224704911 0.21994079381787796 0 
1 44.830152853772283 -20.929515486261813 -100 0.9755132224704911 -0.21994079381787796 0 0 0 1 -0.21994079381787796 -0.9755132224704911 0 
1 44.830152853772283 -20.929515486261813 100 0 0 1 -0.21994079381787796 -0.9755132224704911 0 0.9755132224704911 -0.21994079381787796 0 
1 45.688604489546314 -21.123063384821545 -100 0.9755132224704911 -0.21994079381787796 0 0 0 1 -0.21994079381787796 -0.9755132224704911 0 
1 44.830152853772283 -20.929515486261813 -100 0 0 1 -0.21994079381787796 -0.9755132224704911 0 0.9755132224704911 -0.21994079381787796 0 
1 44.636604955212555 -21.787967122035848 -100 -0.21994079381787796 -0.9755132224704911 0 0 0 1 -0.9755132224704911 0.21994079381787796 0 
Triangulations 0

TShapes 35
Ve
1e-07
44.8301528537723 -20.9295154862618 100
0 0

0101101
*
Ve
1e-07
44.8301528537723 -20.9295154862618 -100
0 0

0101101
*
Ed
 1e-07 1 1 0
1  1 0 0 200
2  1 1 0 0 200
2  2 2 0 0 200
0

0101000
-35 0 +34 0 *
Ve
1e-07
45.6886044895463 -21.1230633848215 100
0 0

0101101
*
Ed
 1e-07 1 1 0
1  2 0 0 0.88
2  3 1 0 0 0.88
2  4 3 0 0 0.88
0

0101000
-32 0 +35 0 *
Ve
1e-07
45.6886044895463 -21.1230633848215 -100
0 0

0101101
*
Ed
 1e-07 1 1 0
1  3 0 0 200
2  5 1 0 0 200
2  6 4 0 0 200
0

0101000
-32 0 +30 0 *
Ed
 1e-07 1 1 0
1  4 0 0 0.88
2  7 1 0 0 0.88
2  8 5 0 0 0.88
0

0101000
-30 0 +34 0 *
Wi

0101100
-33 0 -31 0 +29 0 +28 0 *
Fa
0  1e-07 1 0

0111000
+27 0 *
Ve
1e-07
44.6366049552126 -21.7879671220358 100
0 0

0101101
*
Ve
1e-07
44.6366049552126 -21.7879671220358 -100
0 0

0101101
*
Ed
 1e-07 1 1 0
1  5 0 0 200
2  9 6 0 0 200
2  10 2 0 0 200
0

0101000
-25 0 +24 0 *
Ve
1e-07
45.4950565909866 -21.9815150205956 100
0 0

0101101
*
Ed
 1e-07 1 1 0
1  6 0 0 0.88
2  11 6 0 0 0.88
2  12 3 0 0 0.88
0

0101000
-22 0 +25 0 *
Ve
1e-07
45.4950565909866 -21.9815150205956 -100
0 0

0101101
*
Ed
 1e-07 1 1 0
1  7 0 0 200
2  13 6 0 0 200
2  14 4 0 0 200
0

0101000
-22 0 +20 0 *
Ed
 1e-07 1 1 0
1  8 0 0 0.88
2  15 6 0 0 0.88
2  16 5 0 0 0.88
0

0101000
-20 0 +24 0 *
Wi

0101100
-23 0 -21 0 +19 0 +18 0 *
Fa
0  1e-07 6 0

0111000
+17 0 *
Ed
 1e-07 1 1 0
1  9 0 0 0.88
2  17 2 0 0 0.88
2  18 5 0 0 0.88
0

0101000
-24 0 +34 0 *
Ed
 1e-07 1 1 0
1  10 0 0 0.88
2  19 2 0 0 0.88
2  20 3 0 0 0.88
0

0101000
-25 0 +35 0 *
Wi

0101100
-15 0 -23 0 +14 0 +33 0 *
Fa
0  1e-07 2 0

0111000
+13 0 *
Ed
 1e-07 1 1 0
1  11 0 0 0.88
2  21 4 0 0 0.88
2  22 5 0 0 0.88
0

0101000
-20 0 +30 0 *
Ed
 1e-07 1 1 0
1  12 0 0 0.88
2  23 4 0 0 0.88
2  24 3 0 0 0.88
0

0101000
-22 0 +32 0 *
Wi

0101100
-11 0 -19 0 +10 0 +29 0 *
Fa
0  1e-07 4 0

0111000
+9 0 *
Wi

0101100
-28 0 -11 0 +18 0 +15 0 *
Fa
0  1e-07 5 0

0111000
+7 0 *
Wi

0101100
-31 0 -10 0 +21 0 +14 0 *
Fa
0  1e-07 3 0

0111000
+5 0 *
Sh

0101100
-26 0 +16 0 -12 0 +8 0 -6 0 +4 0 *
So

0100000
+3 0 *
Co

1100000
+2 0 *

+1 0 