DBRep_DrawableShape

CASCADE Topology V3, (c) Open Cascade
Locations 0
Curve2ds 24
1 0 0 1 0
1 0 0 1 0
1 200 0 0 -1
1 0 0 1.652344825750407e-17 1
1 0 -0.91999999999999482 1 0
1 0 0 1 0
1 0 0 0 -1
1 0 0 1.652344825750407e-17 1
1 0 0 1 0
1 0 0.92000000000000137 1 0
1 200 0 0 -1
1 0.92000000000000115 -3.9342336911771368e-16 1.652344825750407e-17 1
1 0 -0.91999999999999482 1 0
1 0 0.92000000000000126 1 0
1 0 0 0 -1
1 0.92000000000000115 -3.9342336911771368e-16 1.652344825750407e-17 1
1 0 0 0 1
1 0 0 1 1.652344825750407e-17
1 200 0 0 1
1 0 0 1 1.652344825750407e-17
1 0 0 0 1
1 3.5995319635364445e-15 0.91999999999999682 1 1.652344825750407e-17
1 200 0 0 1
1 3.5995319635364445e-15 0.91999999999999682 1 1.652344825750407e-17
Curves 12
1 2.8700947630739186 49.936260602042616 -100 0 0 1
1 2.8700947630739186 49.936260602042616 100 -0.72263211171310804 -0.69123283423247062 0
1 2.2052732202978591 49.300326394548748 -100 0 0 1
1 2.8700947630739186 49.936260602042616 -100 -0.72263211171310804 -0.69123283423247062 0
1 2.2341605555800452 50.601082144818676 -100 0 0 1
1 2.2341605555800452 50.601082144818676 100 -0.72263211171310804 -0.69123283423247062 0
1 1.5693390128039859 49.965147937324808 -100 0 0 1
1 2.2341605555800452 50.601082144818676 -100 -0.72263211171310804 -0.69123283423247062 0
1 2.8700947630739186 49.936260602042616 -100 -0.69123283423247062 0.72263211171310804 0
1 2.8700947630739186 49.936260602042616 100 -0.69123283423247062 0.72263211171310804 0
1 2.2052732202978591 49.300326394548748 -100 -0.69123283423247062 0.72263211171310804 0
1 2.2052732202978591 49.300326394548748 100 -0.69123283423247062 0.72263211171310804 0
Polygon3D 0
PolygonOnTriangulations 0
Surfaces 6
1 2.8700947630739186 49.936260602042616 -100 -0.69123283423247062 0.72263211171310804 0 0 0 1 0.72263211171310804 0.69123283423247062 0
1 2.8700947630739186 49.936260602042616 -100 -0.72263211171310804 -0.69123283423247062 0 0 0 1 -0.69123283423247062 0.72263211171310804 0
1 2.8700947630739186 49.936260602042616 100 0 0 1 -0.69123283423247062 0.72263211171310804 0 -0.72263211171310804 -0.69123283423247062 0
1 2.2052732202978591 49.300326394548748 -100 -0.72263211171310804 -0.69123283423247062 0 0 0 1 -0.69123283423247062 0.72263211171310804 0
1 2.8700947630739186 49.936260602042616 -100 0 0 1 -0.69123283423247062 0.72263211171310804 0 -0.72263211171310804 -0.69123283423247062 0
1 2.2341605555800452 50.601082144818676 -100 -0.69123283423247062 0.72263211171310804 0 0 0 1 0.72263211171310804 0.69123283423247062 0
Triangulations 0

TShapes 35
Ve
1e-07
2.87009476307392 49.9362606020426 100
0 0

0101101
*
Ve
1e-07
2.87009476307392 49.9362606020426 -100
0 0

0101101
*
Ed
 1e-07 1 1 0
1  1 0 0 200
2  1 1 0 0 200
2  2 2 0 0 200
0

0101000
-35 0 +34 0 *
Ve
1e-07
2.20527322029786 49.3003263945487 100
0 0

0101101
*
Ed
 1e-07 1 1 0
1  2 0 0 0.92
2  3 1 0 0 0.92
2  4 3 0 0 0.92
0

0101000
-32 0 +35 0 *
Ve
1e-07
2.20527322029786 49.3003263945487 -100
0 0

0101101
*
Ed
 1e-07 1 1 0
1  3 0 0 200
2  5 1 0 0 200
2  6 4 0 0 200
0

0101000
-32 0 +30 0 *
Ed
 1e-07 1 1 0
1  4 0 0 0.92
2  7 1 0 0 0.92
2  8 5 0 0 0.92
0

0101000
-30 0 +34 0 *
Wi

0101100
-33 0 -31 0 +29 0 +28 0 *
Fa
0  1e-07 1 0

0111000
+27 0 *
Ve
1e-07
2.23416055558005 50.6010821448187 100
0 0

0101101
*
Ve
1e-07
2.23416055558005 50.6010821448187 -100
0 0

0101101
*
Ed
 1e-07 1 1 0
1  5 0 0 200
2  9 6 0 0 200
2  10 2 0 0 200
0

0101000
-25 0 +24 0 *
Ve
1e-07
1.56933901280399 49.9651479373248 100
0 0

0101101
*
Ed
 1e-07 1 1 0
1  6 0 0 0.92
2  11 6 0 0 0.92
2  12 3 0 0 0.92
0

0101000
-22 0 +25 0 *
Ve
1e-07
1.56933901280399 49.9651479373248 -100
0 0

0101101
*
Ed
 1e-07 1 1 0
1  7 0 0 200
2  13 6 0 0 200
2  14 4 0 0 200
0

0101000
-22 0 +20 0 *
Ed
 1e-07 1 1 0
1  8 0 0 0.92
2  15 6 0 0 0.92
2  16 5 0 0 0.92
0

0101000
-20 0 +24 0 *
Wi

0101100
-23 0 -21 0 +19 0 +18 0 *
Fa
0  1e-07 6 0

0111000
+17 0 *
Ed
 1e-07 1 1 0
1  9 0 0 0.92
2  17 2 0 0 0.92
2  18 5 0 0 0.92
0

0101000
-24 0 +34 0 *
Ed
 1e-07 1 1 0
1  10 0 0 0.92
2  19 2 0 0 0.92
2  20 3 0 0 0.92
0

0101000
-25 0 +35 0 *
Wi

0101100
-15 0 -23 0 +14 0 +33 0 *
Fa
0  1e-07 2 0

0111000
+13 0 *
Ed
 1e-07 1 1 0
1  11 0 0 0.92
2  21 4 0 0 0.92
2  22 5 0 0 0.92
0

0101000
-20 0 +30 0 *
Ed
 1e-07 1 1 0
1  12 0 0 0.92
2  23 4 0 0 0.92
2  24 3 0 0 0.92
0

0101000
-22 0 +32 0 *
Wi

0101100
-11 0 -19 0 +10 0 +29 0 *
Fa
0  1e-07 4 0

0111000
+9 0 *
Wi

0101100
-28 0 -11 0 +18 0 +15 0 *
Fa
0  1e-07 5 0

0111000
+7 0 *
Wi

0101100
-31 0 -10 0 +21 0 +14 0 *
Fa
0  1e-07 3 0

0111000
+5 0 *
Sh

0101100
-26 0 +16 0 -12 0 +8 0 -6 0 +4 0 *
So

0100000
+3 0 *
Co

1100000
+2 0 *

+1 0
