DBRep_DrawableShape

CASCADE Topology V3, (c) Open Cascade
Locations 0
Curve2ds 24
1 0 0 1 0
1 0 0 1 0
1 200 0 0 -1
1 0 0 -6.7615325105237551e-19 1
1 0 -0.9200000000000027 1 0
1 0 0 1 0
1 0 0 0 -1
1 0 0 -6.7615325105237551e-19 1
1 0 0 1 0
1 0 0.91999999999999971 1 0
1 200 0 0 -1
1 0.91999999999999971 2.0877414920889542e-15 -6.7615325105237551e-19 1
1 0 -0.9200000000000027 1 0
1 0 0.91999999999999971 1 0
1 0 0 0 -1
1 0.91999999999999971 2.0877414920889542e-15 -6.7615325105237551e-19 1
1 0 0 0 1
1 0 0 1 -6.7615325105237551e-19
1 200 0 0 1
1 0 0 1 -6.7615325105237551e-19
1 0 0 0 1
1 2.7778792807575777e-15 0.92000000000000093 1 -6.7615325105237551e-19
1 200 0 0 1
1 2.7778792807575777e-15 0.92000000000000093 1 -6.7615325105237551e-19
Curves 12
1 -24.271005997796589 -42.992979001577091 -100 0 0 1
1 -24.271005997796589 -42.992979001577091 100 0.50561554624039351 -0.86275889992513466 0
1 -23.805839695255429 -43.786717189508217 -100 0 0 1
1 -24.271005997796589 -42.992979001577091 -100 0.50561554624039351 -0.86275889992513466 0
1 -25.064744185727712 -43.458145304118254 -100 0 0 1
1 -25.064744185727712 -43.458145304118254 100 0.50561554624039351 -0.86275889992513466 0
1 -24.599577883186551 -44.25188349204938 -100 0 0 1
1 -25.064744185727712 -43.458145304118254 -100 0.50561554624039351 -0.86275889992513466 0
1 -24.271005997796589 -42.992979001577091 -100 -0.86275889992513466 -0.50561554624039351 0
1 -24.271005997796589 -42.992979001577091 100 -0.86275889992513466 -0.50561554624039351 0
1 -23.805839695255429 -43.786717189508217 -100 -0.86275889992513466 -0.50561554624039351 0
1 -23.805839695255429 -43.786717189508217 100 -0.86275889992513466 -0.50561554624039351 0
Polygon3D 0
PolygonOnTriangulations 0
Surfaces 6
1 -24.271005997796589 -42.992979001577091 -100 -0.86275889992513466 -0.50561554624039351 0 0 0 1 -0.50561554624039351 0.86275889992513466 0
1 -24.271005997796589 -42.992979001577091 -100 0.50561554624039351 -0.86275889992513466 0 0 0 1 -0.86275889992513466 -0.50561554624039351 0
1 -24.271005997796589 -42.992979001577091 100 0 0 1 -0.86275889992513466 -0.50561554624039351 0 0.50561554624039351 -0.86275889992513466 0
1 -23.805839695255429 -43.786717189508217 -100 0.50561554624039351 -0.86275889992513466 0 0 0 1 -0.86275889992513466 -0.50561554624039351 0
1 -24.271005997796589 -42.992979001577091 -100 0 0 1 -0.86275889992513466 -0.50561554624039351 0 0.50561554624039351 -0.86275889992513466 0
1 -25.064744185727712 -43.458145304118254 -100 -0.86275889992513466 -0.50561554624039351 0 0 0 1 -0.50561554624039351 0.86275889992513466 0
Triangulations 0

TShapes 35
Ve
1e-07
-24.2710059977966 -42.9929790015771 100
0 0

0101101
*
Ve
1e-07
-24.2710059977966 -42.9929790015771 -100
0 0

0101101
*
Ed
 1e-07 1 1 0
1  1 0 0 200
2  1 1 0 0 200
2  2 2 0 0 200
0

0101000
-35 0 +34 0 *
Ve
1e-07
-23.8058396952554 -43.7867171895082 100
0 0

0101101
*
Ed
 1e-07 1 1 0
1  2 0 0 0.92
2  3 1 0 0 0.92
2  4 3 0 0 0.92
0

0101000
-32 0 +35 0 *
Ve
1e-07
-23.8058396952554 -43.7867171895082 -100
0 0

0101101
*
Ed
 1e-07 1 1 0
1  3 0 0 200
2  5 1 0 0 200
2  6 4 0 0 200
0

0101000
-32 0 +30 0 *
Ed
 1e-07 1 1 0
1  4 0 0 0.92
2  7 1 0 0 0.92
2  8 5 0 0 0.92
0

0101000
-30 0 +34 0 *
Wi

0101100
-33 0 -31 0 +29 0 +28 0 *
Fa
0  1e-07 1 0

0111000
+27 0 *
Ve
1e-07
-25.0647441857277 -43.4581453041183 100
0 0

0101101
*
Ve
1e-07
-25.0647441857277 -43.4581453041183 -100
0 0

0101101
*
Ed
 1e-07 1 1 0
1  5 0 0 200
2  9 6 0 0 200
2  10 2 0 0 200
0

0101000
-25 0 +24 0 *
Ve
1e-07
-24.5995778831866 -44.2518834920494 100
0 0

0101101
*
Ed
 1e-07 1 1 0
1  6 0 0 0.92
2  11 6 0 0 0.92
2  12 3 0 0 0.92
0

0101000
-22 0 +25 0 *
Ve
1e-07
-24.5995778831866 -44.2518834920494 -100
0 0

0101101
*
Ed
 1e-07 1 1 0
1  7 0 0 200
2  13 6 0 0 200
2  14 4 0 0 200
0

0101000
-22 0 +20 0 *
Ed
 1e-07 1 1 0
1  8 0 0 0.92
2  15 6 0 0 0.92
2  16 5 0 0 0.92
0

0101000
-20 0 +24 0 *
Wi

0101100
-23 0 -21 0 +19 0 +18 0 *
Fa
0  1e-07 6 0

0111000
+17 0 *
Ed
 1e-07 1 1 0
1  9 0 0 0.92
2  17 2 0 0 0.92
2  18 5 0 0 0.92
0

0101000
-24 0 +34 0 *
Ed
 1e-07 1 1 0
1  10 0 0 0.92
2  19 2 0 0 0.92
2  20 3 0 0 0.92
0

0101000
-25 0 +35 0 *
Wi

0101100
-15 0 -23 0 +14 0 +33 0 *
Fa
0  1e-07 2 0

0111000
+13 0 *
Ed
 1e-07 1 1 0
1  11 0 0 0.92
2  21 4 0 0 0.92
2  22 5 0 0 0.92
0

0101000
-20 0 +30 0 *
Ed
 1e-07 1 1 0
1  12 0 0 0.92
2  23 4 0 0 0.92
2  24 3 0 0 0.92
0

0101000
-22 0 +32 0 *
Wi

0101100
-11 0 -19 0 +10 0 +29 0 *
Fa
0  1e-07 4 0

0111000
+9 0 *
Wi

0101100
-28 0 -11 0 +18 0 +15 0 *
Fa
0  1e-07 5 0

0111000
+7 0 *
Wi

0101100
-31 0 -10 0 +21 0 +14 0 *
Fa
0  1e-07 3 0

0111000
+5 0 *
Sh

0101100
-26 0 +16 0 -12 0 +8 0 -6 0 +4 0 *
So

0100000
+3 0 *
Co

1100000
+2 0 *

+1 0
