DBRep_DrawableShape

CASCADE Topology V3, (c) Open Cascade
Locations 0
Curve2ds 24
1 0 0 1 0
1 0 0 1 0
1 200 0 0 -1
1 0 0 1.1325727951595649e-17 1
1 0 -0.91999999999999882 1 0
1 0 0 1 0
1 0 0 0 -1
1 0 0 1.1325727951595649e-17 1
1 0 0 1 0
1 0 0.92000000000000648 1 0
1 200 0 0 -1
1 0.9200000000000057 -2.3878771915097967e-15 1.1325727951595649e-17 1
1 0 -0.91999999999999882 1 0
1 0 0.92000000000000648 1 0
1 0 0 0 -1
1 0.9200000000000057 -2.3878771915097967e-15 1.1325727951595649e-17 1
1 0 0 0 1
1 0 0 1 1.1325727951595649e-17
1 200 0 0 1
1 0 0 1 1.1325727951595649e-17
1 0 0 0 1
1 8.2940188612714269e-16 0.91999999999999882 1 1.1325727951595649e-17
1 200 0 0 1
1 8.2940188612714269e-16 0.91999999999999882 1 1.1325727951595649e-17
Curves 12
1 -45.635824317473606 -21.741303758785079 -100 0 0 1
1 -45.635824317473606 -21.741303758785079 100 -0.21710221435727556 0.97614887620750124 0
1 -45.835558354682298 -20.843246792674179 -100 0 0 1
1 -45.635824317473606 -21.741303758785079 -100 -0.21710221435727556 0.97614887620750124 0
1 -44.737767351362699 -21.541569721576387 -100 0 0 1
1 -44.737767351362699 -21.541569721576387 100 -0.21710221435727556 0.97614887620750124 0
1 -44.937501388571391 -20.643512755465487 -100 0 0 1
1 -44.737767351362699 -21.541569721576387 -100 -0.21710221435727556 0.97614887620750124 0
1 -45.635824317473606 -21.741303758785079 -100 0.97614887620750124 0.21710221435727556 0
1 -45.635824317473606 -21.741303758785079 100 0.97614887620750124 0.21710221435727556 0
1 -45.835558354682298 -20.843246792674179 -100 0.97614887620750124 0.21710221435727556 0
1 -45.835558354682298 -20.843246792674179 100 0.97614887620750124 0.21710221435727556 0
Polygon3D 0
PolygonOnTriangulations 0
Surfaces 6
1 -45.635824317473606 -21.741303758785079 -100 0.97614887620750124 0.21710221435727556 0 0 0 1 0.21710221435727556 -0.97614887620750124 0
1 -45.635824317473606 -21.741303758785079 -100 -0.21710221435727556 0.97614887620750124 0 0 0 1 0.97614887620750124 0.21710221435727556 0
1 -45.635824317473606 -21.741303758785079 100 0 0 1 0.97614887620750124 0.21710221435727556 0 -0.21710221435727556 0.97614887620750124 0
1 -45.835558354682298 -20.843246792674179 -100 -0.21710221435727556 0.97614887620750124 0 0 0 1 0.97614887620750124 0.21710221435727556 0
1 -45.635824317473606 -21.741303758785079 -100 0 0 1 0.97614887620750124 0.21710221435727556 0 -0.21710221435727556 0.97614887620750124 0
1 -44.737767351362699 -21.541569721576387 -100 0.97614887620750124 0.21710221435727556 0 0 0 1 0.21710221435727556 -0.97614887620750124 0
Triangulations 0

TShapes 35
Ve
1e-07
-45.6358243174736 -21.7413037587851 100
0 0

0101101
*
Ve
1e-07
-45.6358243174736 -21.7413037587851 -100
0 0

0101101
*
Ed
 1e-07 1 1 0
1  1 0 0 200
2  1 1 0 0 200
2  2 2 0 0 200
0

0101000
-35 0 +34 0 *
Ve
1e-07
-45.8355583546823 -20.8432467926742 100
0 0

0101101
*
Ed
 1e-07 1 1 0
1  2 0 0 0.92
2  3 1 0 0 0.92
2  4 3 0 0 0.92
0

0101000
-32 0 +35 0 *
Ve
1e-07
-45.8355583546823 -20.8432467926742 -100
0 0

0101101
*
Ed
 1e-07 1 1 0
1  3 0 0 200
2  5 1 0 0 200
2  6 4 0 0 200
0

0101000
-32 0 +30 0 *
Ed
 1e-07 1 1 0
1  4 0 0 0.92
2  7 1 0 0 0.92
2  8 5 0 0 0.92
0

0101000
-30 0 +34 0 *
Wi

0101100
-33 0 -31 0 +29 0 +28 0 *
Fa
0  1e-07 1 0

0111000
+27 0 *
Ve
1e-07
-44.7377673513627 -21.5415697215764 100
0 0

0101101
*
Ve
1e-07
-44.7377673513627 -21.5415697215764 -100
0 0

0101101
*
Ed
 1e-07 1 1 0
1  5 0 0 200
2  9 6 0 0 200
2  10 2 0 0 200
0

0101000
-25 0 +24 0 *
Ve
1e-07
-44.9375013885714 -20.6435127554655 100
0 0

0101101
*
Ed
 1e-07 1 1 0
1  6 0 0 0.92
2  11 6 0 0 0.92
2  12 3 0 0 0.92
0

0101000
-22 0 +25 0 *
Ve
1e-07
-44.9375013885714 -20.6435127554655 -100
0 0

0101101
*
Ed
 1e-07 1 1 0
1  7 0 0 200
2  13 6 0 0 200
2  14 4 0 0 200
0

0101000
-22 0 +20 0 *
Ed
 1e-07 1 1 0
1  8 0 0 0.92
2  15 6 0 0 0.92
2  16 5 0 0 0.92
0

0101000
-20 0 +24 0 *
Wi

0101100
-23 0 -21 0 +19 0 +18 0 *
Fa
0  1e-07 6 0

0111000
+17 0 *
Ed
 1e-07 1 1 0
1  9 0 0 0.92
2  17 2 0 0 0.92
2  18 5 0 0 0.92
0

0101000
-24 0 +34 0 *
Ed
 1e-07 1 1 0
1  10 0 0 0.92
2  19 2 0 0 0.92
2  20 3 0 0 0.92
0

0101000
-25 0 +35 0 *
Wi

0101100
-15 0 -23 0 +14 0 +33 0 *
Fa
0  1e-07 2 0

0111000
+13 0 *
Ed
 1e-07 1 1 0
1  11 0 0 0.92
2  21 4 0 0 0.92
2  22 5 0 0 0.92
0

0101000
-20 0 +30 0 *
Ed
 1e-07 1 1 0
1  12 0 0 0.92
2  23 4 0 0 0.92
2  24 3 0 0 0.92
0

0101000
-22 0 +32 0 *
Wi

0101100
-11 0 -19 0 +10 0 +29 0 *
Fa
0  1e-07 4 0

0111000
+9 0 *
Wi

0101100
-28 0 -11 0 +18 0 +15 0 *
Fa
0  1e-07 5 0

0111000
+7 0 *
Wi

0101100
-31 0 -10 0 +21 0 +14 0 *
Fa
0  1e-07 3 0

0111000
+5 0 *
Sh

0101100
-26 0 +16 0 -12 0 +8 0 -6 0 +4 0 *
So

0100000
+3 0 *
Co

1100000
+2 0 *

+1 0
