DBRep_DrawableShape

CASCADE Topology V3, (c) Open Cascade
Locations 0
Curve2ds 24
1 0 0 1 0 
1 0 0 1 0 
1 200 0 0 -1 
1 0 0 -2.5765330073387817e-17 1 
1 0 -1.0003000000000011 1 0 
1 0 0 1 0 
1 0 0 0 -1 
1 0 0 -2.5765330073387817e-17 1 
1 0 0 1 0 
1 0 1.0003000000000011 1 0 
1 200 0 0 -1 
1 1.0003000000000011 -5.0027077578991127e-16 -2.5765330073387817e-17 1 
1 0 -1.0003000000000011 1 0 
1 0 1.0003000000000011 1 0 
1 0 0 0 -1 
1 1.0003000000000011 -5.0027077578991127e-16 -2.5765330073387817e-17 1 
1 0 0 0 1 
1 0 0 1 -2.5765330073387817e-17 
1 200 0 0 1 
1 0 0 1 -2.5765330073387817e-17 
1 0 0 0 1 
1 4.8452157713310784e-16 1.0003000000000011 1 -2.5765330073387817e-17 
1 200 0 0 1 
1 4.8452157713310784e-16 1.0003000000000011 1 -2.5765330073387817e-17 
Curves 12
1 27.692856855720599 41.383471787670068 -100 0 0 1 
1 27.692856855720599 41.383471787670068 100 0.88525837122711859 0.46509957662022144 0 
1 28.578380804459087 41.848710894163275 -100 0 0 1 
1 27.692856855720599 41.383471787670068 -100 0.88525837122711859 0.46509957662022144 0 
1 28.158095962213807 40.49794783893158 -100 0 0 1 
1 28.158095962213807 40.49794783893158 100 0.88525837122711859 0.46509957662022144 0 
1 29.043619910952295 40.963186945424788 -100 0 0 1 
1 28.158095962213807 40.49794783893158 -100 0.88525837122711859 0.46509957662022144 0 
1 27.692856855720599 41.383471787670068 -100 0.46509957662022144 -0.88525837122711859 0 
1 27.692856855720599 41.383471787670068 100 0.46509957662022144 -0.88525837122711859 0 
1 28.578380804459087 41.848710894163275 -100 0.46509957662022144 -0.88525837122711859 0 
1 28.578380804459087 41.848710894163275 100 0.46509957662022144 -0.88525837122711859 0 
Polygon3D 0
PolygonOnTriangulations 0
Surfaces 6
1 27.692856855720599 41.383471787670068 -100 0.46509957662022144 -0.88525837122711859 0 0 0 1 -0.88525837122711859 -0.46509957662022144 0 
1 27.692856855720599 41.383471787670068 -100 0.88525837122711859 0.46509957662022144 0 0 0 1 0.46509957662022144 -0.88525837122711859 0 
1 27.692856855720599 41.383471787670068 100 0 0 1 0.46509957662022144 -0.88525837122711859 0 0.88525837122711859 0.46509957662022144 0 
1 28.578380804459087 41.848710894163275 -100 0.88525837122711859 0.46509957662022144 0 0 0 1 0.46509957662022144 -0.88525837122711859 0 
1 27.692856855720599 41.383471787670068 -100 0 0 1 0.46509957662022144 -0.88525837122711859 0 0.88525837122711859 0.46509957662022144 0 
1 28.158095962213807 40.49794783893158 -100 0.46509957662022144 -0.88525837122711859 0 0 0 1 -0.88525837122711859 -0.46509957662022144 0 
Triangulations 0

TShapes 35
Ve
1e-07
27.6928568557206 41.3834717876701 100
0 0

0101101
*
Ve
1e-07
27.6928568557206 41.3834717876701 -100
0 0

0101101
*
Ed
 1e-07 1 1 0
1  1 0 0 200
2  1 1 0 0 200
2  2 2 0 0 200
0

0101000
-35 0 +34 0 *
Ve
1e-07
28.5783808044591 41.8487108941633 100
0 0

0101101
*
Ed
 1e-07 1 1 0
1  2 0 0 1.0003
2  3 1 0 0 1.0003
2  4 3 0 0 1.0003
0

0101000
-32 0 +35 0 *
Ve
1e-07
28.5783808044591 41.8487108941633 -100
0 0

0101101
*
Ed
 1e-07 1 1 0
1  3 0 0 200
2  5 1 0 0 200
2  6 4 0 0 200
0

0101000
-32 0 +30 0 *
Ed
 1e-07 1 1 0
1  4 0 0 1.0003
2  7 1 0 0 1.0003
2  8 5 0 0 1.0003
0

0101000
-30 0 +34 0 *
Wi

0101100
-33 0 -31 0 +29 0 +28 0 *
Fa
0  1e-07 1 0

0111000
+27 0 *
Ve
1e-07
28.1580959622138 40.4979478389316 100
0 0

0101101
*
Ve
1e-07
28.1580959622138 40.4979478389316 -100
0 0

0101101
*
Ed
 1e-07 1 1 0
1  5 0 0 200
2  9 6 0 0 200
2  10 2 0 0 200
0

0101000
-25 0 +24 0 *
Ve
1e-07
29.0436199109523 40.9631869454248 100
0 0

0101101
*
Ed
 1e-07 1 1 0
1  6 0 0 1.0003
2  11 6 0 0 1.0003
2  12 3 0 0 1.0003
0

0101000
-22 0 +25 0 *
Ve
1e-07
29.0436199109523 40.9631869454248 -100
0 0

0101101
*
Ed
 1e-07 1 1 0
1  7 0 0 200
2  13 6 0 0 200
2  14 4 0 0 200
0

0101000
-22 0 +20 0 *
Ed
 1e-07 1 1 0
1  8 0 0 1.0003
2  15 6 0 0 1.0003
2  16 5 0 0 1.0003
0

0101000
-20 0 +24 0 *
Wi

0101100
-23 0 -21 0 +19 0 +18 0 *
Fa
0  1e-07 6 0

0111000
+17 0 *
Ed
 1e-07 1 1 0
1  9 0 0 1.0003
2  17 2 0 0 1.0003
2  18 5 0 0 1.0003
0

0101000
-24 0 +34 0 *
Ed
 1e-07 1 1 0
1  10 0 0 1.0003
2  19 2 0 0 1.0003
2  20 3 0 0 1.0003
0

0101000
-25 0 +35 0 *
Wi

0101100
-15 0 -23 0 +14 0 +33 0 *
Fa
0  1e-07 2 0

0111000
+13 0 *
Ed
 1e-07 1 1 0
1  11 0 0 1.0003
2  21 4 0 0 1.0003
2  22 5 0 0 1.0003
0

0101000
-20 0 +30 0 *
Ed
 1e-07 1 1 0
1  12 0 0 1.0003
2  23 4 0 0 1.0003
2  24 3 0 0 1.0003
0

0101000
-22 0 +32 0 *
Wi

0101100
-11 0 -19 0 +10 0 +29 0 *
Fa
0  1e-07 4 0

0111000
+9 0 *
Wi

0101100
-28 0 -11 0 +18 0 +15 0 *
Fa
0  1e-07 5 0

0111000
+7 0 *
Wi

0101100
-31 0 -10 0 +21 0 +14 0 *
Fa
0  1e-07 3 0

0111000
+5 0 *
Sh

0101100
-26 0 +16 0 -12 0 +8 0 -6 0 +4 0 *
So

0100000
+3 0 *
Co

1100000
+2 0 *

+1 0 