DBRep_DrawableShape

CASCADE Topology V3, (c) Open Cascade
Locations 0
Curve2ds 24
1 0 0 1 0
1 0 0 1 0
1 200 0 0 -1
1 0 0 -6.8655693975825925e-18 1
1 0 -1.0002999999999993 1 0
1 0 0 1 0
1 0 0 0 -1
1 0 0 -6.8655693975825925e-18 1
1 0 0 1 0
1 0 1.0003000000000033 1 0
1 200 0 0 -1
1 1.0003000000000033 4.3289571354088971e-16 -6.8655693975825925e-18 1
1 0 -1.0002999999999993 1 0
1 0 1.0003000000000033 1 0
1 0 0 0 -1
1 1.0003000000000033 4.3289571354088971e-16 -6.8655693975825925e-18 1
1 0 0 0 1
1 0 0 1 -6.8655693975825925e-18
1 200 0 0 1
1 0 0 1 -6.8655693975825925e-18
1 0 0 0 1
1 2.6843973988566862e-15 1.0002999999999993 1 -6.8655693975825925e-18
1 200 0 0 1
1 2.6843973988566862e-15 1.0002999999999993 1 -6.8655693975825925e-18
Curves 12
1 -48.241755062468144 -10.853824602303261 -100 0 0 1
1 -48.241755062468144 -10.853824602303261 100 0.11484082981127061 -0.993383905551252 0
1 -48.126879780407933 -11.847506523026178 -100 0 0 1
1 -48.241755062468144 -10.853824602303261 -100 0.11484082981127061 -0.993383905551252 0
1 -49.235436983191065 -10.968699884363476 -100 0 0 1
1 -49.235436983191065 -10.968699884363476 100 0.11484082981127061 -0.993383905551252 0
1 -49.120561701130853 -11.962381805086393 -100 0 0 1
1 -49.235436983191065 -10.968699884363476 -100 0.11484082981127061 -0.993383905551252 0
1 -48.241755062468144 -10.853824602303261 -100 -0.993383905551252 -0.11484082981127061 0
1 -48.241755062468144 -10.853824602303261 100 -0.993383905551252 -0.11484082981127061 0
1 -48.126879780407933 -11.847506523026178 -100 -0.993383905551252 -0.11484082981127061 0
1 -48.126879780407933 -11.847506523026178 100 -0.993383905551252 -0.11484082981127061 0
Polygon3D 0
PolygonOnTriangulations 0
Surfaces 6
1 -48.241755062468144 -10.853824602303261 -100 -0.993383905551252 -0.11484082981127061 0 0 0 1 -0.11484082981127061 0.993383905551252 0
1 -48.241755062468144 -10.853824602303261 -100 0.11484082981127061 -0.993383905551252 0 0 0 1 -0.993383905551252 -0.11484082981127061 0
1 -48.241755062468144 -10.853824602303261 100 0 0 1 -0.993383905551252 -0.11484082981127061 0 0.11484082981127061 -0.993383905551252 0
1 -48.126879780407933 -11.847506523026178 -100 0.11484082981127061 -0.993383905551252 0 0 0 1 -0.993383905551252 -0.11484082981127061 0
1 -48.241755062468144 -10.853824602303261 -100 0 0 1 -0.993383905551252 -0.11484082981127061 0 0.11484082981127061 -0.993383905551252 0
1 -49.235436983191065 -10.968699884363476 -100 -0.993383905551252 -0.11484082981127061 0 0 0 1 -0.11484082981127061 0.993383905551252 0
Triangulations 0

TShapes 35
Ve
1e-07
-48.2417550624681 -10.8538246023033 100
0 0

0101101
*
Ve
1e-07
-48.2417550624681 -10.8538246023033 -100
0 0

0101101
*
Ed
 1e-07 1 1 0
1  1 0 0 200
2  1 1 0 0 200
2  2 2 0 0 200
0

0101000
-35 0 +34 0 *
Ve
1e-07
-48.1268797804079 -11.8475065230262 100
0 0

0101101
*
Ed
 1e-07 1 1 0
1  2 0 0 1.0003
2  3 1 0 0 1.0003
2  4 3 0 0 1.0003
0

0101000
-32 0 +35 0 *
Ve
1e-07
-48.1268797804079 -11.8475065230262 -100
0 0

0101101
*
Ed
 1e-07 1 1 0
1  3 0 0 200
2  5 1 0 0 200
2  6 4 0 0 200
0

0101000
-32 0 +30 0 *
Ed
 1e-07 1 1 0
1  4 0 0 1.0003
2  7 1 0 0 1.0003
2  8 5 0 0 1.0003
0

0101000
-30 0 +34 0 *
Wi

0101100
-33 0 -31 0 +29 0 +28 0 *
Fa
0  1e-07 1 0

0111000
+27 0 *
Ve
1e-07
-49.2354369831911 -10.9686998843635 100
0 0

0101101
*
Ve
1e-07
-49.2354369831911 -10.9686998843635 -100
0 0

0101101
*
Ed
 1e-07 1 1 0
1  5 0 0 200
2  9 6 0 0 200
2  10 2 0 0 200
0

0101000
-25 0 +24 0 *
Ve
1e-07
-49.1205617011309 -11.9623818050864 100
0 0

0101101
*
Ed
 1e-07 1 1 0
1  6 0 0 1.0003
2  11 6 0 0 1.0003
2  12 3 0 0 1.0003
0

0101000
-22 0 +25 0 *
Ve
1e-07
-49.1205617011309 -11.9623818050864 -100
0 0

0101101
*
Ed
 1e-07 1 1 0
1  7 0 0 200
2  13 6 0 0 200
2  14 4 0 0 200
0

0101000
-22 0 +20 0 *
Ed
 1e-07 1 1 0
1  8 0 0 1.0003
2  15 6 0 0 1.0003
2  16 5 0 0 1.0003
0

0101000
-20 0 +24 0 *
Wi

0101100
-23 0 -21 0 +19 0 +18 0 *
Fa
0  1e-07 6 0

0111000
+17 0 *
Ed
 1e-07 1 1 0
1  9 0 0 1.0003
2  17 2 0 0 1.0003
2  18 5 0 0 1.0003
0

0101000
-24 0 +34 0 *
Ed
 1e-07 1 1 0
1  10 0 0 1.0003
2  19 2 0 0 1.0003
2  20 3 0 0 1.0003
0

0101000
-25 0 +35 0 *
Wi

0101100
-15 0 -23 0 +14 0 +33 0 *
Fa
0  1e-07 2 0

0111000
+13 0 *
Ed
 1e-07 1 1 0
1  11 0 0 1.0003
2  21 4 0 0 1.0003
2  22 5 0 0 1.0003
0

0101000
-20 0 +30 0 *
Ed
 1e-07 1 1 0
1  12 0 0 1.0003
2  23 4 0 0 1.0003
2  24 3 0 0 1.0003
0

0101000
-22 0 +32 0 *
Wi

0101100
-11 0 -19 0 +10 0 +29 0 *
Fa
0  1e-07 4 0

0111000
+9 0 *
Wi

0101100
-28 0 -11 0 +18 0 +15 0 *
Fa
0  1e-07 5 0

0111000
+7 0 *
Wi

0101100
-31 0 -10 0 +21 0 +14 0 *
Fa
0  1e-07 3 0

0111000
+5 0 *
Sh

0101100
-26 0 +16 0 -12 0 +8 0 -6 0 +4 0 *
So

0100000
+3 0 *
Co

1100000
+2 0 *

+1 0
