DBRep_DrawableShape

CASCADE Topology V3, (c) Open Cascade
Locations 0
Curve2ds 24
1 0 0 1 0 
1 0 0 1 0 
1 200 0 0 -1 
1 0 0 1.1336480453939292e-17 1 
1 0 -0.99999999999999623 1 0 
1 0 0 1 0 
1 0 0 0 -1 
1 0 0 1.1336480453939292e-17 1 
1 0 0 1 0 
1 0 1.0000000000000004 1 0 
1 200 0 0 -1 
1 1.0000000000000004 5.4619802982458065e-16 1.1336480453939292e-17 1 
1 0 -0.99999999999999623 1 0 
1 0 1.0000000000000004 1 0 
1 0 0 0 -1 
1 1.0000000000000004 5.4619802982458065e-16 1.1336480453939292e-17 1 
1 0 0 0 1 
1 0 0 1 1.1336480453939292e-17 
1 200 0 0 1 
1 0 0 1 1.1336480453939292e-17 
1 0 0 0 1 
1 3.6377823075554598e-15 0.99999999999999767 1 1.1336480453939292e-17 
1 200 0 0 1 
1 3.6377823075554598e-15 0.99999999999999767 1 1.1336480453939292e-17 
Curves 12
1 -46.413661686163309 19.621322910420229 -100 0 0 1 
1 -46.413661686163309 19.621322910420229 100 0.20440113722021327 0.97888721265684309 0 
1 -46.209260548943092 20.600210123077069 -100 0 0 1 
1 -46.413661686163309 19.621322910420229 -100 0.20440113722021327 0.97888721265684309 0 
1 -45.434774473506465 19.416921773200016 -100 0 0 1 
1 -45.434774473506465 19.416921773200016 100 0.20440113722021327 0.97888721265684309 0 
1 -45.230373336286249 20.395808985856856 -100 0 0 1 
1 -45.434774473506465 19.416921773200016 -100 0.20440113722021327 0.97888721265684309 0 
1 -46.413661686163309 19.621322910420229 -100 0.97888721265684309 -0.20440113722021327 0 
1 -46.413661686163309 19.621322910420229 100 0.97888721265684309 -0.20440113722021327 0 
1 -46.209260548943092 20.600210123077069 -100 0.97888721265684309 -0.20440113722021327 0 
1 -46.209260548943092 20.600210123077069 100 0.97888721265684309 -0.20440113722021327 0 
Polygon3D 0
PolygonOnTriangulations 0
Surfaces 6
1 -46.413661686163309 19.621322910420229 -100 0.97888721265684309 -0.20440113722021327 0 0 0 1 -0.20440113722021327 -0.97888721265684309 0 
1 -46.413661686163309 19.621322910420229 -100 0.20440113722021327 0.97888721265684309 0 0 0 1 0.97888721265684309 -0.20440113722021327 0 
1 -46.413661686163309 19.621322910420229 100 0 0 1 0.97888721265684309 -0.20440113722021327 0 0.20440113722021327 0.97888721265684309 0 
1 -46.209260548943092 20.600210123077069 -100 0.20440113722021327 0.97888721265684309 0 0 0 1 0.97888721265684309 -0.20440113722021327 0 
1 -46.413661686163309 19.621322910420229 -100 0 0 1 0.97888721265684309 -0.20440113722021327 0 0.20440113722021327 0.97888721265684309 0 
1 -45.434774473506465 19.416921773200016 -100 0.97888721265684309 -0.20440113722021327 0 0 0 1 -0.20440113722021327 -0.97888721265684309 0 
Triangulations 0

TShapes 35
Ve
1e-07
-46.4136616861633 19.6213229104202 100
0 0

0101101
*
Ve
1e-07
-46.4136616861633 19.6213229104202 -100
0 0

0101101
*
Ed
 1e-07 1 1 0
1  1 0 0 200
2  1 1 0 0 200
2  2 2 0 0 200
0

0101000
-35 0 +34 0 *
Ve
1e-07
-46.2092605489431 20.6002101230771 100
0 0

0101101
*
Ed
 1e-07 1 1 0
1  2 0 0 1
2  3 1 0 0 1
2  4 3 0 0 1
0

0101000
-32 0 +35 0 *
Ve
1e-07
-46.2092605489431 20.6002101230771 -100
0 0

0101101
*
Ed
 1e-07 1 1 0
1  3 0 0 200
2  5 1 0 0 200
2  6 4 0 0 200
0

0101000
-32 0 +30 0 *
Ed
 1e-07 1 1 0
1  4 0 0 1
2  7 1 0 0 1
2  8 5 0 0 1
0

0101000
-30 0 +34 0 *
Wi

0101100
-33 0 -31 0 +29 0 +28 0 *
Fa
0  1e-07 1 0

0111000
+27 0 *
Ve
1e-07
-45.4347744735065 19.4169217732 100
0 0

0101101
*
Ve
1e-07
-45.4347744735065 19.4169217732 -100
0 0

0101101
*
Ed
 1e-07 1 1 0
1  5 0 0 200
2  9 6 0 0 200
2  10 2 0 0 200
0

0101000
-25 0 +24 0 *
Ve
1e-07
-45.2303733362862 20.3958089858569 100
0 0

0101101
*
Ed
 1e-07 1 1 0
1  6 0 0 1
2  11 6 0 0 1
2  12 3 0 0 1
0

0101000
-22 0 +25 0 *
Ve
1e-07
-45.2303733362862 20.3958089858569 -100
0 0

0101101
*
Ed
 1e-07 1 1 0
1  7 0 0 200
2  13 6 0 0 200
2  14 4 0 0 200
0

0101000
-22 0 +20 0 *
Ed
 1e-07 1 1 0
1  8 0 0 1
2  15 6 0 0 1
2  16 5 0 0 1
0

0101000
-20 0 +24 0 *
Wi

0101100
-23 0 -21 0 +19 0 +18 0 *
Fa
0  1e-07 6 0

0111000
+17 0 *
Ed
 1e-07 1 1 0
1  9 0 0 1
2  17 2 0 0 1
2  18 5 0 0 1
0

0101000
-24 0 +34 0 *
Ed
 1e-07 1 1 0
1  10 0 0 1
2  19 2 0 0 1
2  20 3 0 0 1
0

0101000
-25 0 +35 0 *
Wi

0101100
-15 0 -23 0 +14 0 +33 0 *
Fa
0  1e-07 2 0

0111000
+13 0 *
Ed
 1e-07 1 1 0
1  11 0 0 1
2  21 4 0 0 1
2  22 5 0 0 1
0

0101000
-20 0 +30 0 *
Ed
 1e-07 1 1 0
1  12 0 0 1
2  23 4 0 0 1
2  24 3 0 0 1
0

0101000
-22 0 +32 0 *
Wi

0101100
-11 0 -19 0 +10 0 +29 0 *
Fa
0  1e-07 4 0

0111000
+9 0 *
Wi

0101100
-28 0 -11 0 +18 0 +15 0 *
Fa
0  1e-07 5 0

0111000
+7 0 *
Wi

0101100
-31 0 -10 0 +21 0 +14 0 *
Fa
0  1e-07 3 0

0111000
+5 0 *
Sh

0101100
-26 0 +16 0 -12 0 +8 0 -6 0 +4 0 *
So

0100000
+3 0 *
Co

1100000
+2 0 *

+1 0 