DBRep_DrawableShape

CASCADE Topology V3, (c) Open Cascade
Locations 0
Curve2ds 24
1 0 0 1 0
1 0 0 1 0
1 200 0 0 -1
1 0 0 -6.8655693975825925e-18 1
1 0 -0.92000000000000104 1 0
1 0 0 1 0
1 0 0 0 -1
1 0 0 -6.8655693975825925e-18 1
1 0 0 1 0
1 0 0.91999999999999704 1 0
1 200 0 0 -1
1 0.91999999999999704 2.5871659108264357e-16 -6.8655693975825925e-18 1
1 0 -0.92000000000000104 1 0
1 0 0.91999999999999704 1 0
1 0 0 0 -1
1 0.91999999999999704 2.5871659108264357e-16 -6.8655693975825925e-18 1
1 0 0 0 1
1 0 0 1 -6.8655693975825925e-18
1 200 0 0 1
1 0 0 1 -6.8655693975825925e-18
1 0 0 0 1
1 -3.3822364716127458e-15 0.92000000000000104 1 -6.8655693975825925e-18
1 200 0 0 1
1 -3.3822364716127458e-15 0.92000000000000104 1 -6.8655693975825925e-18
Curves 12
1 -48.27702856695911 -10.898319825428066 -100 0 0 1
1 -48.27702856695911 -10.898319825428066 100 0.11484082981127061 -0.993383905551252 0
1 -48.171375003532738 -11.812233018535219 -100 0 0 1
1 -48.27702856695911 -10.898319825428066 -100 0.11484082981127061 -0.993383905551252 0
1 -49.190941760066259 -11.003973388854435 -100 0 0 1
1 -49.190941760066259 -11.003973388854435 100 0.11484082981127061 -0.993383905551252 0
1 -49.085288196639887 -11.917886581961588 -100 0 0 1
1 -49.190941760066259 -11.003973388854435 -100 0.11484082981127061 -0.993383905551252 0
1 -48.27702856695911 -10.898319825428066 -100 -0.993383905551252 -0.11484082981127061 0
1 -48.27702856695911 -10.898319825428066 100 -0.993383905551252 -0.11484082981127061 0
1 -48.171375003532738 -11.812233018535219 -100 -0.993383905551252 -0.11484082981127061 0
1 -48.171375003532738 -11.812233018535219 100 -0.993383905551252 -0.11484082981127061 0
Polygon3D 0
PolygonOnTriangulations 0
Surfaces 6
1 -48.27702856695911 -10.898319825428066 -100 -0.993383905551252 -0.11484082981127061 0 0 0 1 -0.11484082981127061 0.993383905551252 0
1 -48.27702856695911 -10.898319825428066 -100 0.11484082981127061 -0.993383905551252 0 0 0 1 -0.993383905551252 -0.11484082981127061 0
1 -48.27702856695911 -10.898319825428066 100 0 0 1 -0.993383905551252 -0.11484082981127061 0 0.11484082981127061 -0.993383905551252 0
1 -48.171375003532738 -11.812233018535219 -100 0.11484082981127061 -0.993383905551252 0 0 0 1 -0.993383905551252 -0.11484082981127061 0
1 -48.27702856695911 -10.898319825428066 -100 0 0 1 -0.993383905551252 -0.11484082981127061 0 0.11484082981127061 -0.993383905551252 0
1 -49.190941760066259 -11.003973388854435 -100 -0.993383905551252 -0.11484082981127061 0 0 0 1 -0.11484082981127061 0.993383905551252 0
Triangulations 0

TShapes 35
Ve
1e-07
-48.2770285669591 -10.8983198254281 100
0 0

0101101
*
Ve
1e-07
-48.2770285669591 -10.8983198254281 -100
0 0

0101101
*
Ed
 1e-07 1 1 0
1  1 0 0 200
2  1 1 0 0 200
2  2 2 0 0 200
0

0101000
-35 0 +34 0 *
Ve
1e-07
-48.1713750035327 -11.8122330185352 100
0 0

0101101
*
Ed
 1e-07 1 1 0
1  2 0 0 0.92
2  3 1 0 0 0.92
2  4 3 0 0 0.92
0

0101000
-32 0 +35 0 *
Ve
1e-07
-48.1713750035327 -11.8122330185352 -100
0 0

0101101
*
Ed
 1e-07 1 1 0
1  3 0 0 200
2  5 1 0 0 200
2  6 4 0 0 200
0

0101000
-32 0 +30 0 *
Ed
 1e-07 1 1 0
1  4 0 0 0.92
2  7 1 0 0 0.92
2  8 5 0 0 0.92
0

0101000
-30 0 +34 0 *
Wi

0101100
-33 0 -31 0 +29 0 +28 0 *
Fa
0  1e-07 1 0

0111000
+27 0 *
Ve
1e-07
-49.1909417600663 -11.0039733888544 100
0 0

0101101
*
Ve
1e-07
-49.1909417600663 -11.0039733888544 -100
0 0

0101101
*
Ed
 1e-07 1 1 0
1  5 0 0 200
2  9 6 0 0 200
2  10 2 0 0 200
0

0101000
-25 0 +24 0 *
Ve
1e-07
-49.0852881966399 -11.9178865819616 100
0 0

0101101
*
Ed
 1e-07 1 1 0
1  6 0 0 0.92
2  11 6 0 0 0.92
2  12 3 0 0 0.92
0

0101000
-22 0 +25 0 *
Ve
1e-07
-49.0852881966399 -11.9178865819616 -100
0 0

0101101
*
Ed
 1e-07 1 1 0
1  7 0 0 200
2  13 6 0 0 200
2  14 4 0 0 200
0

0101000
-22 0 +20 0 *
Ed
 1e-07 1 1 0
1  8 0 0 0.92
2  15 6 0 0 0.92
2  16 5 0 0 0.92
0

0101000
-20 0 +24 0 *
Wi

0101100
-23 0 -21 0 +19 0 +18 0 *
Fa
0  1e-07 6 0

0111000
+17 0 *
Ed
 1e-07 1 1 0
1  9 0 0 0.92
2  17 2 0 0 0.92
2  18 5 0 0 0.92
0

0101000
-24 0 +34 0 *
Ed
 1e-07 1 1 0
1  10 0 0 0.92
2  19 2 0 0 0.92
2  20 3 0 0 0.92
0

0101000
-25 0 +35 0 *
Wi

0101100
-15 0 -23 0 +14 0 +33 0 *
Fa
0  1e-07 2 0

0111000
+13 0 *
Ed
 1e-07 1 1 0
1  11 0 0 0.92
2  21 4 0 0 0.92
2  22 5 0 0 0.92
0

0101000
-20 0 +30 0 *
Ed
 1e-07 1 1 0
1  12 0 0 0.92
2  23 4 0 0 0.92
2  24 3 0 0 0.92
0

0101000
-22 0 +32 0 *
Wi

0101100
-11 0 -19 0 +10 0 +29 0 *
Fa
0  1e-07 4 0

0111000
+9 0 *
Wi

0101100
-28 0 -11 0 +18 0 +15 0 *
Fa
0  1e-07 5 0

0111000
+7 0 *
Wi

0101100
-31 0 -10 0 +21 0 +14 0 *
Fa
0  1e-07 3 0

0111000
+5 0 *
Sh

0101100
-26 0 +16 0 -12 0 +8 0 -6 0 +4 0 *
So

0100000
+3 0 *
Co

1100000
+2 0 *

+1 0
