DBRep_DrawableShape

CASCADE Topology V3, (c) Open Cascade
Locations 0
Curve2ds 24
1 0 0 1 0
1 0 0 1 0
1 200 0 0 -1
1 0 0 -1.7346630380524133e-17 1
1 0 -0.88000000000000467 1 0
1 0 0 1 0
1 0 0 0 -1
1 0 0 -1.7346630380524133e-17 1
1 0 0 1 0
1 0 0.87999999999999745 1 0
1 200 0 0 -1
1 0.87999999999999845 -1.6825827039028794e-15 -1.7346630380524133e-17 1
1 0 -0.880000000000005 1 0
1 0 0.87999999999999745 1 0
1 0 0 0 -1
1 0.87999999999999845 -1.6825827039028794e-15 -1.7346630380524133e-17 1
1 0 0 0 1
1 0 0 1 -1.7346630380524133e-17
1 200 0 0 1
1 0 0 1 -1.7346630380524133e-17
1 0 0 0 1
1 3.1010422242657555e-15 0.88000000000000334 1 -1.7346630380524133e-17
1 200 0 0 1
1 3.1010422242657555e-15 0.88000000000000334 1 -1.7346630380524133e-17
Curves 12
1 3.4949438119082892 -49.254296375751906 -100 0 0 1
1 3.4949438119082892 -49.254296375751906 100 0.73155205595555084 -0.68178558904336384 0
1 4.1387096211491743 -49.854267694110071 -100 0 0 1
1 3.4949438119082892 -49.254296375751906 -100 0.73155205595555084 -0.68178558904336384 0
1 2.8949724935501289 -49.898062184992789 -100 0 0 1
1 2.8949724935501289 -49.898062184992789 100 0.73155205595555084 -0.68178558904336384 0
1 3.538738302791014 -50.498033503350953 -100 0 0 1
1 2.8949724935501289 -49.898062184992789 -100 0.73155205595555084 -0.68178558904336384 0
1 3.4949438119082892 -49.254296375751906 -100 -0.68178558904336384 -0.73155205595555084 0
1 3.4949438119082892 -49.254296375751906 100 -0.68178558904336384 -0.73155205595555084 0
1 4.1387096211491743 -49.854267694110071 -100 -0.68178558904336384 -0.73155205595555084 0
1 4.1387096211491743 -49.854267694110071 100 -0.68178558904336384 -0.73155205595555084 0
Polygon3D 0
PolygonOnTriangulations 0
Surfaces 6
1 3.4949438119082892 -49.254296375751906 -100 -0.68178558904336384 -0.73155205595555084 0 0 0 1 -0.73155205595555084 0.68178558904336384 0
1 3.4949438119082892 -49.254296375751906 -100 0.73155205595555084 -0.68178558904336384 0 0 0 1 -0.68178558904336384 -0.73155205595555084 0
1 3.4949438119082892 -49.254296375751906 100 0 0 1 -0.68178558904336384 -0.73155205595555084 0 0.73155205595555084 -0.68178558904336384 0
1 4.1387096211491743 -49.854267694110071 -100 0.73155205595555084 -0.68178558904336384 0 0 0 1 -0.68178558904336384 -0.73155205595555084 0
1 3.4949438119082892 -49.254296375751906 -100 0 0 1 -0.68178558904336384 -0.73155205595555084 0 0.73155205595555084 -0.68178558904336384 0
1 2.8949724935501289 -49.898062184992789 -100 -0.68178558904336384 -0.73155205595555084 0 0 0 1 -0.73155205595555084 0.68178558904336384 0
Triangulations 0

TShapes 35
Ve
1e-07
3.49494381190829 -49.2542963757519 100
0 0

0101101
*
Ve
1e-07
3.49494381190829 -49.2542963757519 -100
0 0

0101101
*
Ed
 1e-07 1 1 0
1  1 0 0 200
2  1 1 0 0 200
2  2 2 0 0 200
0

0101000
-35 0 +34 0 *
Ve
1e-07
4.13870962114917 -49.8542676941101 100
0 0

0101101
*
Ed
 1e-07 1 1 0
1  2 0 0 0.88
2  3 1 0 0 0.88
2  4 3 0 0 0.88
0

0101000
-32 0 +35 0 *
Ve
1e-07
4.13870962114917 -49.8542676941101 -100
0 0

0101101
*
Ed
 1e-07 1 1 0
1  3 0 0 200
2  5 1 0 0 200
2  6 4 0 0 200
0

0101000
-32 0 +30 0 *
Ed
 1e-07 1 1 0
1  4 0 0 0.88
2  7 1 0 0 0.88
2  8 5 0 0 0.88
0

0101000
-30 0 +34 0 *
Wi

0101100
-33 0 -31 0 +29 0 +28 0 *
Fa
0  1e-07 1 0

0111000
+27 0 *
Ve
1e-07
2.89497249355013 -49.8980621849928 100
0 0

0101101
*
Ve
1e-07
2.89497249355013 -49.8980621849928 -100
0 0

0101101
*
Ed
 1e-07 1 1 0
1  5 0 0 200
2  9 6 0 0 200
2  10 2 0 0 200
0

0101000
-25 0 +24 0 *
Ve
1e-07
3.53873830279101 -50.498033503351 100
0 0

0101101
*
Ed
 1e-07 1 1 0
1  6 0 0 0.88
2  11 6 0 0 0.88
2  12 3 0 0 0.88
0

0101000
-22 0 +25 0 *
Ve
1e-07
3.53873830279101 -50.498033503351 -100
0 0

0101101
*
Ed
 1e-07 1 1 0
1  7 0 0 200
2  13 6 0 0 200
2  14 4 0 0 200
0

0101000
-22 0 +20 0 *
Ed
 1e-07 1 1 0
1  8 0 0 0.88
2  15 6 0 0 0.88
2  16 5 0 0 0.88
0

0101000
-20 0 +24 0 *
Wi

0101100
-23 0 -21 0 +19 0 +18 0 *
Fa
0  1e-07 6 0

0111000
+17 0 *
Ed
 1e-07 1 1 0
1  9 0 0 0.88
2  17 2 0 0 0.88
2  18 5 0 0 0.88
0

0101000
-24 0 +34 0 *
Ed
 1e-07 1 1 0
1  10 0 0 0.88
2  19 2 0 0 0.88
2  20 3 0 0 0.88
0

0101000
-25 0 +35 0 *
Wi

0101100
-15 0 -23 0 +14 0 +33 0 *
Fa
0  1e-07 2 0

0111000
+13 0 *
Ed
 1e-07 1 1 0
1  11 0 0 0.88
2  21 4 0 0 0.88
2  22 5 0 0 0.88
0

0101000
-20 0 +30 0 *
Ed
 1e-07 1 1 0
1  12 0 0 0.88
2  23 4 0 0 0.88
2  24 3 0 0 0.88
0

0101000
-22 0 +32 0 *
Wi

0101100
-11 0 -19 0 +10 0 +29 0 *
Fa
0  1e-07 4 0

0111000
+9 0 *
Wi

0101100
-28 0 -11 0 +18 0 +15 0 *
Fa
0  1e-07 5 0

0111000
+7 0 *
Wi

0101100
-31 0 -10 0 +21 0 +14 0 *
Fa
0  1e-07 3 0

0111000
+5 0 *
Sh

0101100
-26 0 +16 0 -12 0 +8 0 -6 0 +4 0 *
So

0100000
+3 0 *
Co

1100000
+2 0 *

+1 0
