DBRep_DrawableShape

CASCADE Topology V3, (c) Open Cascade
Locations 0
Curve2ds 24
1 0 0 1 0
1 0 0 1 0
1 200 0 0 -1
1 0 0 -3.0185085000441233e-18 1
1 0 -0.99999999999999356 1 0
1 0 0 1 0
1 0 0 0 -1
1 0 0 -3.0185085000441233e-18 1
1 0 0 1 0
1 0 1.0000000000000007 1 0
1 200 0 0 -1
1 1.0000000000000007 5.2404742567222149e-17 -3.0185085000441233e-18 1
1 0 -0.99999999999999356 1 0
1 0 1.0000000000000007 1 0
1 0 0 0 -1
1 1.0000000000000007 5.2404742567222149e-17 -3.0185085000441233e-18 1
1 0 0 0 1
1 0 0 1 -3.0185085000441233e-18
1 200 0 0 1
1 0 0 1 -3.0185085000441233e-18
1 0 0 0 1
1 -3.936182369236634e-16 0.99999999999999356 1 -3.0185085000441233e-18
1 200 0 0 1
1 -3.936182369236634e-16 0.99999999999999356 1 -3.0185085000441233e-18
Curves 12
1 50.293223176857481 4.3168524971251916 -100 0 0 1
1 50.293223176857481 4.3168524971251916 100 -0.99884838648495078 -0.047978128521343345 0
1 49.294374790372537 4.2688743686038482 -100 0 0 1
1 50.293223176857481 4.3168524971251916 -100 -0.99884838648495078 -0.047978128521343345 0
1 50.245245048336137 5.3157008836101429 -100 0 0 1
1 50.245245048336137 5.3157008836101429 100 -0.99884838648495078 -0.047978128521343345 0
1 49.246396661851193 5.2677227550887995 -100 0 0 1
1 50.245245048336137 5.3157008836101429 -100 -0.99884838648495078 -0.047978128521343345 0
1 50.293223176857481 4.3168524971251916 -100 -0.047978128521343345 0.99884838648495078 0
1 50.293223176857481 4.3168524971251916 100 -0.047978128521343345 0.99884838648495078 0
1 49.294374790372537 4.2688743686038482 -100 -0.047978128521343345 0.99884838648495078 0
1 49.294374790372537 4.2688743686038482 100 -0.047978128521343345 0.99884838648495078 0
Polygon3D 0
PolygonOnTriangulations 0
Surfaces 6
1 50.293223176857481 4.3168524971251916 -100 -0.047978128521343345 0.99884838648495078 0 0 0 1 0.99884838648495078 0.047978128521343345 0
1 50.293223176857481 4.3168524971251916 -100 -0.99884838648495078 -0.047978128521343345 0 0 0 1 -0.047978128521343345 0.99884838648495078 0
1 50.293223176857481 4.3168524971251916 100 0 0 1 -0.047978128521343345 0.99884838648495078 0 -0.99884838648495078 -0.047978128521343345 0
1 49.294374790372537 4.2688743686038482 -100 -0.99884838648495078 -0.047978128521343345 0 0 0 1 -0.047978128521343345 0.99884838648495078 0
1 50.293223176857481 4.3168524971251916 -100 0 0 1 -0.047978128521343345 0.99884838648495078 0 -0.99884838648495078 -0.047978128521343345 0
1 50.245245048336137 5.3157008836101429 -100 -0.047978128521343345 0.99884838648495078 0 0 0 1 0.99884838648495078 0.047978128521343345 0
Triangulations 0

TShapes 35
Ve
1e-07
50.2932231768575 4.31685249712519 100
0 0

0101101
*
Ve
1e-07
50.2932231768575 4.31685249712519 -100
0 0

0101101
*
Ed
 1e-07 1 1 0
1  1 0 0 200
2  1 1 0 0 200
2  2 2 0 0 200
0

0101000
-35 0 +34 0 *
Ve
1e-07
49.2943747903725 4.26887436860385 100
0 0

0101101
*
Ed
 1e-07 1 1 0
1  2 0 0 1
2  3 1 0 0 1
2  4 3 0 0 1
0

0101000
-32 0 +35 0 *
Ve
1e-07
49.2943747903725 4.26887436860385 -100
0 0

0101101
*
Ed
 1e-07 1 1 0
1  3 0 0 200
2  5 1 0 0 200
2  6 4 0 0 200
0

0101000
-32 0 +30 0 *
Ed
 1e-07 1 1 0
1  4 0 0 1
2  7 1 0 0 1
2  8 5 0 0 1
0

0101000
-30 0 +34 0 *
Wi

0101100
-33 0 -31 0 +29 0 +28 0 *
Fa
0  1e-07 1 0

0111000
+27 0 *
Ve
1e-07
50.2452450483361 5.31570088361014 100
0 0

0101101
*
Ve
1e-07
50.2452450483361 5.31570088361014 -100
0 0

0101101
*
Ed
 1e-07 1 1 0
1  5 0 0 200
2  9 6 0 0 200
2  10 2 0 0 200
0

0101000
-25 0 +24 0 *
Ve
1e-07
49.2463966618512 5.2677227550888 100
0 0

0101101
*
Ed
 1e-07 1 1 0
1  6 0 0 1
2  11 6 0 0 1
2  12 3 0 0 1
0

0101000
-22 0 +25 0 *
Ve
1e-07
49.2463966618512 5.2677227550888 -100
0 0

0101101
*
Ed
 1e-07 1 1 0
1  7 0 0 200
2  13 6 0 0 200
2  14 4 0 0 200
0

0101000
-22 0 +20 0 *
Ed
 1e-07 1 1 0
1  8 0 0 1
2  15 6 0 0 1
2  16 5 0 0 1
0

0101000
-20 0 +24 0 *
Wi

0101100
-23 0 -21 0 +19 0 +18 0 *
Fa
0  1e-07 6 0

0111000
+17 0 *
Ed
 1e-07 1 1 0
1  9 0 0 1
2  17 2 0 0 1
2  18 5 0 0 1
0

0101000
-24 0 +34 0 *
Ed
 1e-07 1 1 0
1  10 0 0 1
2  19 2 0 0 1
2  20 3 0 0 1
0

0101000
-25 0 +35 0 *
Wi

0101100
-15 0 -23 0 +14 0 +33 0 *
Fa
0  1e-07 2 0

0111000
+13 0 *
Ed
 1e-07 1 1 0
1  11 0 0 1
2  21 4 0 0 1
2  22 5 0 0 1
0

0101000
-20 0 +30 0 *
Ed
 1e-07 1 1 0
1  12 0 0 1
2  23 4 0 0 1
2  24 3 0 0 1
0

0101000
-22 0 +32 0 *
Wi

0101100
-11 0 -19 0 +10 0 +29 0 *
Fa
0  1e-07 4 0

0111000
+9 0 *
Wi

0101100
-28 0 -11 0 +18 0 +15 0 *
Fa
0  1e-07 5 0

0111000
+7 0 *
Wi

0101100
-31 0 -10 0 +21 0 +14 0 *
Fa
0  1e-07 3 0

0111000
+5 0 *
Sh

0101100
-26 0 +16 0 -12 0 +8 0 -6 0 +4 0 *
So

0100000
+3 0 *
Co

1100000
+2 0 *

+1 0
