DBRep_DrawableShape

CASCADE Topology V3, (c) Open Cascade
Locations 0
Curve2ds 24
1 0 0 1 0
1 0 0 1 0
1 200 0 0 -1
1 0 0 -2.6897774713856986e-17 1
1 0 -0.880000000000002 1 0
1 0 0 1 0
1 0 0 0 -1
1 0 0 -2.6897774713856986e-17 1
1 0 0 1 0
1 0 0.8799999999999959 1 0
1 200 0 0 -1
1 0.87999999999999734 3.5048390838532468e-15 -2.6897774713856986e-17 1
1 0 -0.880000000000002 1 0
1 0 0.8799999999999959 1 0
1 0 0 0 -1
1 0.87999999999999734 3.5048390838532468e-15 -2.6897774713856986e-17 1
1 0 0 0 1
1 0 0 1 -2.6897774713856986e-17
1 200 0 0 1
1 0 0 1 -2.6897774713856986e-17
1 0 0 0 1
1 -4.6367945961010843e-16 0.880000000000002 1 -2.6897774713856986e-17
1 200 0 0 1
1 -4.6367945961010843e-16 0.880000000000002 1 -2.6897774713856986e-17
Curves 12
1 -10.777354675585162 48.893661349125949 -100 0 0 1
1 -10.777354675585162 48.893661349125949 100 0.63120239520027699 0.77561816397853489 0
1 -10.221896567808917 49.576205333427062 -100 0 0 1
1 -10.777354675585162 48.893661349125949 -100 0.63120239520027699 0.77561816397853489 0
1 -10.094810691284051 48.33820324134971 -100 0 0 1
1 -10.094810691284051 48.33820324134971 100 0.63120239520027699 0.77561816397853489 0
1 -9.5393525835078066 49.020747225650823 -100 0 0 1
1 -10.094810691284051 48.33820324134971 -100 0.63120239520027699 0.77561816397853489 0
1 -10.777354675585162 48.893661349125949 -100 0.77561816397853489 -0.63120239520027699 0
1 -10.777354675585162 48.893661349125949 100 0.77561816397853489 -0.63120239520027699 0
1 -10.221896567808917 49.576205333427062 -100 0.77561816397853489 -0.63120239520027699 0
1 -10.221896567808917 49.576205333427062 100 0.77561816397853489 -0.63120239520027699 0
Polygon3D 0
PolygonOnTriangulations 0
Surfaces 6
1 -10.777354675585162 48.893661349125949 -100 0.77561816397853489 -0.63120239520027699 0 0 0 1 -0.63120239520027699 -0.77561816397853489 0
1 -10.777354675585162 48.893661349125949 -100 0.63120239520027699 0.77561816397853489 0 0 0 1 0.77561816397853489 -0.63120239520027699 0
1 -10.777354675585162 48.893661349125949 100 0 0 1 0.77561816397853489 -0.63120239520027699 0 0.63120239520027699 0.77561816397853489 0
1 -10.221896567808917 49.576205333427062 -100 0.63120239520027699 0.77561816397853489 0 0 0 1 0.77561816397853489 -0.63120239520027699 0
1 -10.777354675585162 48.893661349125949 -100 0 0 1 0.77561816397853489 -0.63120239520027699 0 0.63120239520027699 0.77561816397853489 0
1 -10.094810691284051 48.33820324134971 -100 0.77561816397853489 -0.63120239520027699 0 0 0 1 -0.63120239520027699 -0.77561816397853489 0
Triangulations 0

TShapes 35
Ve
1e-07
-10.7773546755852 48.8936613491259 100
0 0

0101101
*
Ve
1e-07
-10.7773546755852 48.8936613491259 -100
0 0

0101101
*
Ed
 1e-07 1 1 0
1  1 0 0 200
2  1 1 0 0 200
2  2 2 0 0 200
0

0101000
-35 0 +34 0 *
Ve
1e-07
-10.2218965678089 49.5762053334271 100
0 0

0101101
*
Ed
 1e-07 1 1 0
1  2 0 0 0.88
2  3 1 0 0 0.88
2  4 3 0 0 0.88
0

0101000
-32 0 +35 0 *
Ve
1e-07
-10.2218965678089 49.5762053334271 -100
0 0

0101101
*
Ed
 1e-07 1 1 0
1  3 0 0 200
2  5 1 0 0 200
2  6 4 0 0 200
0

0101000
-32 0 +30 0 *
Ed
 1e-07 1 1 0
1  4 0 0 0.88
2  7 1 0 0 0.88
2  8 5 0 0 0.88
0

0101000
-30 0 +34 0 *
Wi

0101100
-33 0 -31 0 +29 0 +28 0 *
Fa
0  1e-07 1 0

0111000
+27 0 *
Ve
1e-07
-10.0948106912841 48.3382032413497 100
0 0

0101101
*
Ve
1e-07
-10.0948106912841 48.3382032413497 -100
0 0

0101101
*
Ed
 1e-07 1 1 0
1  5 0 0 200
2  9 6 0 0 200
2  10 2 0 0 200
0

0101000
-25 0 +24 0 *
Ve
1e-07
-9.53935258350781 49.0207472256508 100
0 0

0101101
*
Ed
 1e-07 1 1 0
1  6 0 0 0.88
2  11 6 0 0 0.88
2  12 3 0 0 0.88
0

0101000
-22 0 +25 0 *
Ve
1e-07
-9.53935258350781 49.0207472256508 -100
0 0

0101101
*
Ed
 1e-07 1 1 0
1  7 0 0 200
2  13 6 0 0 200
2  14 4 0 0 200
0

0101000
-22 0 +20 0 *
Ed
 1e-07 1 1 0
1  8 0 0 0.88
2  15 6 0 0 0.88
2  16 5 0 0 0.88
0

0101000
-20 0 +24 0 *
Wi

0101100
-23 0 -21 0 +19 0 +18 0 *
Fa
0  1e-07 6 0

0111000
+17 0 *
Ed
 1e-07 1 1 0
1  9 0 0 0.88
2  17 2 0 0 0.88
2  18 5 0 0 0.88
0

0101000
-24 0 +34 0 *
Ed
 1e-07 1 1 0
1  10 0 0 0.88
2  19 2 0 0 0.88
2  20 3 0 0 0.88
0

0101000
-25 0 +35 0 *
Wi

0101100
-15 0 -23 0 +14 0 +33 0 *
Fa
0  1e-07 2 0

0111000
+13 0 *
Ed
 1e-07 1 1 0
1  11 0 0 0.88
2  21 4 0 0 0.88
2  22 5 0 0 0.88
0

0101000
-20 0 +30 0 *
Ed
 1e-07 1 1 0
1  12 0 0 0.88
2  23 4 0 0 0.88
2  24 3 0 0 0.88
0

0101000
-22 0 +32 0 *
Wi

0101100
-11 0 -19 0 +10 0 +29 0 *
Fa
0  1e-07 4 0

0111000
+9 0 *
Wi

0101100
-28 0 -11 0 +18 0 +15 0 *
Fa
0  1e-07 5 0

0111000
+7 0 *
Wi

0101100
-31 0 -10 0 +21 0 +14 0 *
Fa
0  1e-07 3 0

0111000
+5 0 *
Sh

0101100
-26 0 +16 0 -12 0 +8 0 -6 0 +4 0 *
So

0100000
+3 0 *
Co

1100000
+2 0 *

+1 0
