DBRep_DrawableShape

CASCADE Topology V3, (c) Open Cascade
Locations 0
Curve2ds 24
1 0 0 1 0
1 0 0 1 0
1 200 0 0 -1
1 0 0 -1.3592227730939137e-17 1
1 0 -0.87999999999999823 1 0
1 0 0 1 0
1 0 0 0 -1
1 0 0 -1.3592227730939137e-17 1
1 0 0 1 0
1 0 0.88 1 0
1 200 0 0 -1
1 0.87999999999999945 4.7165287837690681e-15 -1.3592227730939137e-17 1
1 0 -0.87999999999999823 1 0
1 0 0.88 1 0
1 0 0 0 -1
1 0.87999999999999945 4.7165287837690681e-15 -1.3592227730939137e-17 1
1 0 0 0 1
1 0 0 1 -1.3592227730939137e-17
1 200 0 0 1
1 0 0 1 -1.3592227730939137e-17
1 0 0 0 1
1 1.621058837906247e-16 0.87999999999999823 1 -1.3592227730939137e-17
1 200 0 0 1
1 1.621058837906247e-16 0.87999999999999823 1 -1.3592227730939137e-17
Curves 12
1 -23.152332899268782 44.148724559512388 -100 0 0 1
1 -23.152332899268782 44.148724559512388 100 -0.51229270450928521 -0.85881091336018911 0
1 -23.603150479236952 43.392970955755423 -100 0 0 1
1 -23.152332899268782 44.148724559512388 -100 -0.51229270450928521 -0.85881091336018911 0
1 -23.90808650302575 44.599542139480555 -100 0 0 1
1 -23.90808650302575 44.599542139480555 100 -0.51229270450928521 -0.85881091336018911 0
1 -24.35890408299392 43.84378853572359 -100 0 0 1
1 -23.90808650302575 44.599542139480555 -100 -0.51229270450928521 -0.85881091336018911 0
1 -23.152332899268782 44.148724559512388 -100 -0.85881091336018911 0.51229270450928521 0
1 -23.152332899268782 44.148724559512388 100 -0.85881091336018911 0.51229270450928521 0
1 -23.603150479236952 43.392970955755423 -100 -0.85881091336018911 0.51229270450928521 0
1 -23.603150479236952 43.392970955755423 100 -0.85881091336018911 0.51229270450928521 0
Polygon3D 0
PolygonOnTriangulations 0
Surfaces 6
1 -23.152332899268782 44.148724559512388 -100 -0.85881091336018911 0.51229270450928521 0 0 0 1 0.51229270450928521 0.85881091336018911 0
1 -23.152332899268782 44.148724559512388 -100 -0.51229270450928521 -0.85881091336018911 0 0 0 1 -0.85881091336018911 0.51229270450928521 0
1 -23.152332899268782 44.148724559512388 100 0 0 1 -0.85881091336018911 0.51229270450928521 0 -0.51229270450928521 -0.85881091336018911 0
1 -23.603150479236952 43.392970955755423 -100 -0.51229270450928521 -0.85881091336018911 0 0 0 1 -0.85881091336018911 0.51229270450928521 0
1 -23.152332899268782 44.148724559512388 -100 0 0 1 -0.85881091336018911 0.51229270450928521 0 -0.51229270450928521 -0.85881091336018911 0
1 -23.90808650302575 44.599542139480555 -100 -0.85881091336018911 0.51229270450928521 0 0 0 1 0.51229270450928521 0.85881091336018911 0
Triangulations 0

TShapes 35
Ve
1e-07
-23.1523328992688 44.1487245595124 100
0 0

0101101
*
Ve
1e-07
-23.1523328992688 44.1487245595124 -100
0 0

0101101
*
Ed
 1e-07 1 1 0
1  1 0 0 200
2  1 1 0 0 200
2  2 2 0 0 200
0

0101000
-35 0 +34 0 *
Ve
1e-07
-23.603150479237 43.3929709557554 100
0 0

0101101
*
Ed
 1e-07 1 1 0
1  2 0 0 0.88
2  3 1 0 0 0.88
2  4 3 0 0 0.88
0

0101000
-32 0 +35 0 *
Ve
1e-07
-23.603150479237 43.3929709557554 -100
0 0

0101101
*
Ed
 1e-07 1 1 0
1  3 0 0 200
2  5 1 0 0 200
2  6 4 0 0 200
0

0101000
-32 0 +30 0 *
Ed
 1e-07 1 1 0
1  4 0 0 0.88
2  7 1 0 0 0.88
2  8 5 0 0 0.88
0

0101000
-30 0 +34 0 *
Wi

0101100
-33 0 -31 0 +29 0 +28 0 *
Fa
0  1e-07 1 0

0111000
+27 0 *
Ve
1e-07
-23.9080865030257 44.5995421394806 100
0 0

0101101
*
Ve
1e-07
-23.9080865030257 44.5995421394806 -100
0 0

0101101
*
Ed
 1e-07 1 1 0
1  5 0 0 200
2  9 6 0 0 200
2  10 2 0 0 200
0

0101000
-25 0 +24 0 *
Ve
1e-07
-24.3589040829939 43.8437885357236 100
0 0

0101101
*
Ed
 1e-07 1 1 0
1  6 0 0 0.88
2  11 6 0 0 0.88
2  12 3 0 0 0.88
0

0101000
-22 0 +25 0 *
Ve
1e-07
-24.3589040829939 43.8437885357236 -100
0 0

0101101
*
Ed
 1e-07 1 1 0
1  7 0 0 200
2  13 6 0 0 200
2  14 4 0 0 200
0

0101000
-22 0 +20 0 *
Ed
 1e-07 1 1 0
1  8 0 0 0.88
2  15 6 0 0 0.88
2  16 5 0 0 0.88
0

0101000
-20 0 +24 0 *
Wi

0101100
-23 0 -21 0 +19 0 +18 0 *
Fa
0  1e-07 6 0

0111000
+17 0 *
Ed
 1e-07 1 1 0
1  9 0 0 0.88
2  17 2 0 0 0.88
2  18 5 0 0 0.88
0

0101000
-24 0 +34 0 *
Ed
 1e-07 1 1 0
1  10 0 0 0.88
2  19 2 0 0 0.88
2  20 3 0 0 0.88
0

0101000
-25 0 +35 0 *
Wi

0101100
-15 0 -23 0 +14 0 +33 0 *
Fa
0  1e-07 2 0

0111000
+13 0 *
Ed
 1e-07 1 1 0
1  11 0 0 0.88
2  21 4 0 0 0.88
2  22 5 0 0 0.88
0

0101000
-20 0 +30 0 *
Ed
 1e-07 1 1 0
1  12 0 0 0.88
2  23 4 0 0 0.88
2  24 3 0 0 0.88
0

0101000
-22 0 +32 0 *
Wi

0101100
-11 0 -19 0 +10 0 +29 0 *
Fa
0  1e-07 4 0

0111000
+9 0 *
Wi

0101100
-28 0 -11 0 +18 0 +15 0 *
Fa
0  1e-07 5 0

0111000
+7 0 *
Wi

0101100
-31 0 -10 0 +21 0 +14 0 *
Fa
0  1e-07 3 0

0111000
+5 0 *
Sh

0101100
-26 0 +16 0 -12 0 +8 0 -6 0 +4 0 *
So

0100000
+3 0 *
Co

1100000
+2 0 *

+1 0
