DBRep_DrawableShape

CASCADE Topology V3, (c) Open Cascade
Locations 0
Curve2ds 24
1 0 0 1 0
1 0 0 1 0
1 200 0 0 -1
1 0 0 -7.2123109078074644e-18 1
1 0 -0.99999999999999967 1 0
1 0 0 1 0
1 0 0 0 -1
1 0 0 -7.2123109078074644e-18 1
1 0 0 1 0
1 0 0.99999999999999911 1 0
1 200 0 0 -1
1 0.99999999999999911 3.4174896380030234e-15 -7.2123109078074644e-18 1
1 0 -0.99999999999999967 1 0
1 0 0.99999999999999911 1 0
1 0 0 0 -1
1 0.99999999999999911 3.4174896380030234e-15 -7.2123109078074644e-18 1
1 0 0 0 1
1 0 0 1 -7.2123109078074644e-18
1 200 0 0 1
1 0 0 1 -7.2123109078074644e-18
1 0 0 0 1
1 7.344369114176236e-17 0.99999999999999967 1 -7.2123109078074644e-18
1 200 0 0 1
1 7.344369114176236e-17 0.99999999999999967 1 -7.2123109078074644e-18
Curves 12
1 47.891598427945219 -16.254277069094094 -100 0 0 1
1 47.891598427945219 -16.254277069094094 100 -0.98730623124219397 0.15882822718375775 0
1 46.904292196703025 -16.095448841910336 -100 0 0 1
1 47.891598427945219 -16.254277069094094 -100 -0.98730623124219397 0.15882822718375775 0
1 48.050426655128973 -15.2669708378519 -100 0 0 1
1 48.050426655128973 -15.2669708378519 100 -0.98730623124219397 0.15882822718375775 0
1 47.06312042388678 -15.108142610668143 -100 0 0 1
1 48.050426655128973 -15.2669708378519 -100 -0.98730623124219397 0.15882822718375775 0
1 47.891598427945219 -16.254277069094094 -100 0.15882822718375775 0.98730623124219397 0
1 47.891598427945219 -16.254277069094094 100 0.15882822718375775 0.98730623124219397 0
1 46.904292196703025 -16.095448841910336 -100 0.15882822718375775 0.98730623124219397 0
1 46.904292196703025 -16.095448841910336 100 0.15882822718375775 0.98730623124219397 0
Polygon3D 0
PolygonOnTriangulations 0
Surfaces 6
1 47.891598427945219 -16.254277069094094 -100 0.15882822718375775 0.98730623124219397 0 0 0 1 0.98730623124219397 -0.15882822718375775 0
1 47.891598427945219 -16.254277069094094 -100 -0.98730623124219397 0.15882822718375775 0 0 0 1 0.15882822718375775 0.98730623124219397 0
1 47.891598427945219 -16.254277069094094 100 0 0 1 0.15882822718375775 0.98730623124219397 0 -0.98730623124219397 0.15882822718375775 0
1 46.904292196703025 -16.095448841910336 -100 -0.98730623124219397 0.15882822718375775 0 0 0 1 0.15882822718375775 0.98730623124219397 0
1 47.891598427945219 -16.254277069094094 -100 0 0 1 0.15882822718375775 0.98730623124219397 0 -0.98730623124219397 0.15882822718375775 0
1 48.050426655128973 -15.2669708378519 -100 0.15882822718375775 0.98730623124219397 0 0 0 1 0.98730623124219397 -0.15882822718375775 0
Triangulations 0

TShapes 35
Ve
1e-07
47.8915984279452 -16.2542770690941 100
0 0

0101101
*
Ve
1e-07
47.8915984279452 -16.2542770690941 -100
0 0

0101101
*
Ed
 1e-07 1 1 0
1  1 0 0 200
2  1 1 0 0 200
2  2 2 0 0 200
0

0101000
-35 0 +34 0 *
Ve
1e-07
46.904292196703 -16.0954488419103 100
0 0

0101101
*
Ed
 1e-07 1 1 0
1  2 0 0 1
2  3 1 0 0 1
2  4 3 0 0 1
0

0101000
-32 0 +35 0 *
Ve
1e-07
46.904292196703 -16.0954488419103 -100
0 0

0101101
*
Ed
 1e-07 1 1 0
1  3 0 0 200
2  5 1 0 0 200
2  6 4 0 0 200
0

0101000
-32 0 +30 0 *
Ed
 1e-07 1 1 0
1  4 0 0 1
2  7 1 0 0 1
2  8 5 0 0 1
0

0101000
-30 0 +34 0 *
Wi

0101100
-33 0 -31 0 +29 0 +28 0 *
Fa
0  1e-07 1 0

0111000
+27 0 *
Ve
1e-07
48.050426655129 -15.2669708378519 100
0 0

0101101
*
Ve
1e-07
48.050426655129 -15.2669708378519 -100
0 0

0101101
*
Ed
 1e-07 1 1 0
1  5 0 0 200
2  9 6 0 0 200
2  10 2 0 0 200
0

0101000
-25 0 +24 0 *
Ve
1e-07
47.0631204238868 -15.1081426106681 100
0 0

0101101
*
Ed
 1e-07 1 1 0
1  6 0 0 1
2  11 6 0 0 1
2  12 3 0 0 1
0

0101000
-22 0 +25 0 *
Ve
1e-07
47.0631204238868 -15.1081426106681 -100
0 0

0101101
*
Ed
 1e-07 1 1 0
1  7 0 0 200
2  13 6 0 0 200
2  14 4 0 0 200
0

0101000
-22 0 +20 0 *
Ed
 1e-07 1 1 0
1  8 0 0 1
2  15 6 0 0 1
2  16 5 0 0 1
0

0101000
-20 0 +24 0 *
Wi

0101100
-23 0 -21 0 +19 0 +18 0 *
Fa
0  1e-07 6 0

0111000
+17 0 *
Ed
 1e-07 1 1 0
1  9 0 0 1
2  17 2 0 0 1
2  18 5 0 0 1
0

0101000
-24 0 +34 0 *
Ed
 1e-07 1 1 0
1  10 0 0 1
2  19 2 0 0 1
2  20 3 0 0 1
0

0101000
-25 0 +35 0 *
Wi

0101100
-15 0 -23 0 +14 0 +33 0 *
Fa
0  1e-07 2 0

0111000
+13 0 *
Ed
 1e-07 1 1 0
1  11 0 0 1
2  21 4 0 0 1
2  22 5 0 0 1
0

0101000
-20 0 +30 0 *
Ed
 1e-07 1 1 0
1  12 0 0 1
2  23 4 0 0 1
2  24 3 0 0 1
0

0101000
-22 0 +32 0 *
Wi

0101100
-11 0 -19 0 +10 0 +29 0 *
Fa
0  1e-07 4 0

0111000
+9 0 *
Wi

0101100
-28 0 -11 0 +18 0 +15 0 *
Fa
0  1e-07 5 0

0111000
+7 0 *
Wi

0101100
-31 0 -10 0 +21 0 +14 0 *
Fa
0  1e-07 3 0

0111000
+5 0 *
Sh

0101100
-26 0 +16 0 -12 0 +8 0 -6 0 +4 0 *
So

0100000
+3 0 *
Co

1100000
+2 0 *

+1 0
