DBRep_DrawableShape

CASCADE Topology V3, (c) Open Cascade
Locations 0
Curve2ds 24
1 0 0 1 0
1 0 0 1 0
1 200 0 0 -1
1 0 0 1.9360360761326555e-17 1
1 0 -0.99999999999999778 1 0
1 0 0 1 0
1 0 0 0 -1
1 0 0 1.9360360761326555e-17 1
1 0 0 1 0
1 0 0.99999999999999778 1 0
1 200 0 0 -1
1 0.99999999999999778 9.4465180344095698e-16 1.9360360761326555e-17 1
1 0 -0.99999999999999778 1 0
1 0 0.99999999999999778 1 0
1 0 0 0 -1
1 0.99999999999999778 9.4465180344095698e-16 1.9360360761326555e-17 1
1 0 0 0 1
1 0 0 1 1.9360360761326558e-17
1 200 0 0 1
1 0 0 1 1.9360360761326558e-17
1 0 0 0 1
1 -9.2069025387611177e-16 0.99999999999999778 1 1.9360360761326558e-17
1 200 0 0 1
1 -9.2069025387611177e-16 0.99999999999999778 1 1.9360360761326558e-17
Curves 12
1 -37.029834518809324 -32.630719333905233 -100 0 0 1
1 -37.029834518809324 -32.630719333905233 100 0.35610383604191748 -0.934446391162292 0
1 -36.673730682767406 -33.565165725067523 -100 0 0 1
1 -37.029834518809324 -32.630719333905233 -100 0.35610383604191748 -0.934446391162292 0
1 -37.964280909971613 -32.986823169947151 -100 0 0 1
1 -37.964280909971613 -32.986823169947151 100 0.35610383604191748 -0.934446391162292 0
1 -37.608177073929696 -33.92126956110944 -100 0 0 1
1 -37.964280909971613 -32.986823169947151 -100 0.35610383604191748 -0.934446391162292 0
1 -37.029834518809324 -32.630719333905233 -100 -0.934446391162292 -0.35610383604191748 0
1 -37.029834518809324 -32.630719333905233 100 -0.934446391162292 -0.35610383604191748 0
1 -36.673730682767406 -33.565165725067523 -100 -0.934446391162292 -0.35610383604191748 0
1 -36.673730682767406 -33.565165725067523 100 -0.934446391162292 -0.35610383604191748 0
Polygon3D 0
PolygonOnTriangulations 0
Surfaces 6
1 -37.029834518809324 -32.630719333905233 -100 -0.934446391162292 -0.35610383604191748 0 0 0 1 -0.35610383604191748 0.934446391162292 0
1 -37.029834518809324 -32.630719333905233 -100 0.35610383604191748 -0.934446391162292 0 0 0 1 -0.934446391162292 -0.35610383604191748 0
1 -37.029834518809324 -32.630719333905233 100 0 0 1 -0.934446391162292 -0.35610383604191748 0 0.35610383604191748 -0.934446391162292 0
1 -36.673730682767406 -33.565165725067523 -100 0.35610383604191748 -0.934446391162292 0 0 0 1 -0.934446391162292 -0.35610383604191748 0
1 -37.029834518809324 -32.630719333905233 -100 0 0 1 -0.934446391162292 -0.35610383604191748 0 0.35610383604191748 -0.934446391162292 0
1 -37.964280909971613 -32.986823169947151 -100 -0.934446391162292 -0.35610383604191748 0 0 0 1 -0.35610383604191748 0.934446391162292 0
Triangulations 0

TShapes 35
Ve
1e-07
-37.0298345188093 -32.6307193339052 100
0 0

0101101
*
Ve
1e-07
-37.0298345188093 -32.6307193339052 -100
0 0

0101101
*
Ed
 1e-07 1 1 0
1  1 0 0 200
2  1 1 0 0 200
2  2 2 0 0 200
0

0101000
-35 0 +34 0 *
Ve
1e-07
-36.6737306827674 -33.5651657250675 100
0 0

0101101
*
Ed
 1e-07 1 1 0
1  2 0 0 1
2  3 1 0 0 1
2  4 3 0 0 1
0

0101000
-32 0 +35 0 *
Ve
1e-07
-36.6737306827674 -33.5651657250675 -100
0 0

0101101
*
Ed
 1e-07 1 1 0
1  3 0 0 200
2  5 1 0 0 200
2  6 4 0 0 200
0

0101000
-32 0 +30 0 *
Ed
 1e-07 1 1 0
1  4 0 0 1
2  7 1 0 0 1
2  8 5 0 0 1
0

0101000
-30 0 +34 0 *
Wi

0101100
-33 0 -31 0 +29 0 +28 0 *
Fa
0  1e-07 1 0

0111000
+27 0 *
Ve
1e-07
-37.9642809099716 -32.9868231699472 100
0 0

0101101
*
Ve
1e-07
-37.9642809099716 -32.9868231699472 -100
0 0

0101101
*
Ed
 1e-07 1 1 0
1  5 0 0 200
2  9 6 0 0 200
2  10 2 0 0 200
0

0101000
-25 0 +24 0 *
Ve
1e-07
-37.6081770739297 -33.9212695611094 100
0 0

0101101
*
Ed
 1e-07 1 1 0
1  6 0 0 1
2  11 6 0 0 1
2  12 3 0 0 1
0

0101000
-22 0 +25 0 *
Ve
1e-07
-37.6081770739297 -33.9212695611094 -100
0 0

0101101
*
Ed
 1e-07 1 1 0
1  7 0 0 200
2  13 6 0 0 200
2  14 4 0 0 200
0

0101000
-22 0 +20 0 *
Ed
 1e-07 1 1 0
1  8 0 0 1
2  15 6 0 0 1
2  16 5 0 0 1
0

0101000
-20 0 +24 0 *
Wi

0101100
-23 0 -21 0 +19 0 +18 0 *
Fa
0  1e-07 6 0

0111000
+17 0 *
Ed
 1e-07 1 1 0
1  9 0 0 1
2  17 2 0 0 1
2  18 5 0 0 1
0

0101000
-24 0 +34 0 *
Ed
 1e-07 1 1 0
1  10 0 0 1
2  19 2 0 0 1
2  20 3 0 0 1
0

0101000
-25 0 +35 0 *
Wi

0101100
-15 0 -23 0 +14 0 +33 0 *
Fa
0  1e-07 2 0

0111000
+13 0 *
Ed
 1e-07 1 1 0
1  11 0 0 1
2  21 4 0 0 1
2  22 5 0 0 1
0

0101000
-20 0 +30 0 *
Ed
 1e-07 1 1 0
1  12 0 0 1
2  23 4 0 0 1
2  24 3 0 0 1
0

0101000
-22 0 +32 0 *
Wi

0101100
-11 0 -19 0 +10 0 +29 0 *
Fa
0  1e-07 4 0

0111000
+9 0 *
Wi

0101100
-28 0 -11 0 +18 0 +15 0 *
Fa
0  1e-07 5 0

0111000
+7 0 *
Wi

0101100
-31 0 -10 0 +21 0 +14 0 *
Fa
0  1e-07 3 0

0111000
+5 0 *
Sh

0101100
-26 0 +16 0 -12 0 +8 0 -6 0 +4 0 *
So

0100000
+3 0 *
Co

1100000
+2 0 *

+1 0
