DBRep_DrawableShape

CASCADE Topology V3, (c) Open Cascade
Locations 0
Curve2ds 24
1 0 0 1 0
1 0 0 1 0
1 200 0 0 -1
1 0 0 6.0761932986978157e-18 1
1 0 -0.91999999999999837 1 0
1 0 0 1 0
1 0 0 0 -1
1 0 0 6.0761932986978157e-18 1
1 0 0 1 0
1 0 0.92000000000000215 1 0
1 200 0 0 -1
1 0.92000000000000126 1.5809140580136689e-15 6.0761932986978157e-18 1
1 0 -0.91999999999999826 1 0
1 0 0.92000000000000215 1 0
1 0 0 0 -1
1 0.92000000000000126 1.5809140580136689e-15 6.0761932986978157e-18 1
1 0 0 0 1
1 0 0 1 6.0761932986978157e-18
1 200 0 0 1
1 0 0 1 6.0761932986978157e-18
1 0 0 0 1
1 -1.1415064645563341e-15 0.91999999999999893 1 6.0761932986978157e-18
1 200 0 0 1
1 -1.1415064645563341e-15 0.91999999999999893 1 6.0761932986978157e-18
Curves 12
1 1.4539420285075457 -50.629598925577021 -100 0 0 1
1 1.4539420285075457 -50.629598925577021 100 -0.71724851856422156 0.69681745286511698 0
1 0.79407339142846189 -49.988526868941115 -100 0 0 1
1 1.4539420285075457 -50.629598925577021 -100 -0.71724851856422156 0.69681745286511698 0
1 2.0950140851434531 -49.969730288497935 -100 0 0 1
1 2.0950140851434531 -49.969730288497935 100 -0.71724851856422156 0.69681745286511698 0
1 1.4351454480643695 -49.328658231862029 -100 0 0 1
1 2.0950140851434531 -49.969730288497935 -100 -0.71724851856422156 0.69681745286511698 0
1 1.4539420285075457 -50.629598925577021 -100 0.69681745286511698 0.71724851856422156 0
1 1.4539420285075457 -50.629598925577021 100 0.69681745286511698 0.71724851856422156 0
1 0.79407339142846189 -49.988526868941115 -100 0.69681745286511698 0.71724851856422156 0
1 0.79407339142846189 -49.988526868941115 100 0.69681745286511698 0.71724851856422156 0
Polygon3D 0
PolygonOnTriangulations 0
Surfaces 6
1 1.4539420285075457 -50.629598925577021 -100 0.69681745286511698 0.71724851856422156 0 0 0 1 0.71724851856422156 -0.69681745286511698 0
1 1.4539420285075457 -50.629598925577021 -100 -0.71724851856422156 0.69681745286511698 0 0 0 1 0.69681745286511698 0.71724851856422156 0
1 1.4539420285075457 -50.629598925577021 100 0 0 1 0.69681745286511698 0.71724851856422156 0 -0.71724851856422156 0.69681745286511698 0
1 0.79407339142846189 -49.988526868941115 -100 -0.71724851856422156 0.69681745286511698 0 0 0 1 0.69681745286511698 0.71724851856422156 0
1 1.4539420285075457 -50.629598925577021 -100 0 0 1 0.69681745286511698 0.71724851856422156 0 -0.71724851856422156 0.69681745286511698 0
1 2.0950140851434531 -49.969730288497935 -100 0.69681745286511698 0.71724851856422156 0 0 0 1 0.71724851856422156 -0.69681745286511698 0
Triangulations 0

TShapes 35
Ve
1e-07
1.45394202850755 -50.629598925577 100
0 0

0101101
*
Ve
1e-07
1.45394202850755 -50.629598925577 -100
0 0

0101101
*
Ed
 1e-07 1 1 0
1  1 0 0 200
2  1 1 0 0 200
2  2 2 0 0 200
0

0101000
-35 0 +34 0 *
Ve
1e-07
0.794073391428462 -49.9885268689411 100
0 0

0101101
*
Ed
 1e-07 1 1 0
1  2 0 0 0.92
2  3 1 0 0 0.92
2  4 3 0 0 0.92
0

0101000
-32 0 +35 0 *
Ve
1e-07
0.794073391428462 -49.9885268689411 -100
0 0

0101101
*
Ed
 1e-07 1 1 0
1  3 0 0 200
2  5 1 0 0 200
2  6 4 0 0 200
0

0101000
-32 0 +30 0 *
Ed
 1e-07 1 1 0
1  4 0 0 0.92
2  7 1 0 0 0.92
2  8 5 0 0 0.92
0

0101000
-30 0 +34 0 *
Wi

0101100
-33 0 -31 0 +29 0 +28 0 *
Fa
0  1e-07 1 0

0111000
+27 0 *
Ve
1e-07
2.09501408514345 -49.9697302884979 100
0 0

0101101
*
Ve
1e-07
2.09501408514345 -49.9697302884979 -100
0 0

0101101
*
Ed
 1e-07 1 1 0
1  5 0 0 200
2  9 6 0 0 200
2  10 2 0 0 200
0

0101000
-25 0 +24 0 *
Ve
1e-07
1.43514544806437 -49.328658231862 100
0 0

0101101
*
Ed
 1e-07 1 1 0
1  6 0 0 0.92
2  11 6 0 0 0.92
2  12 3 0 0 0.92
0

0101000
-22 0 +25 0 *
Ve
1e-07
1.43514544806437 -49.328658231862 -100
0 0

0101101
*
Ed
 1e-07 1 1 0
1  7 0 0 200
2  13 6 0 0 200
2  14 4 0 0 200
0

0101000
-22 0 +20 0 *
Ed
 1e-07 1 1 0
1  8 0 0 0.92
2  15 6 0 0 0.92
2  16 5 0 0 0.92
0

0101000
-20 0 +24 0 *
Wi

0101100
-23 0 -21 0 +19 0 +18 0 *
Fa
0  1e-07 6 0

0111000
+17 0 *
Ed
 1e-07 1 1 0
1  9 0 0 0.92
2  17 2 0 0 0.92
2  18 5 0 0 0.92
0

0101000
-24 0 +34 0 *
Ed
 1e-07 1 1 0
1  10 0 0 0.92
2  19 2 0 0 0.92
2  20 3 0 0 0.92
0

0101000
-25 0 +35 0 *
Wi

0101100
-15 0 -23 0 +14 0 +33 0 *
Fa
0  1e-07 2 0

0111000
+13 0 *
Ed
 1e-07 1 1 0
1  11 0 0 0.92
2  21 4 0 0 0.92
2  22 5 0 0 0.92
0

0101000
-20 0 +30 0 *
Ed
 1e-07 1 1 0
1  12 0 0 0.92
2  23 4 0 0 0.92
2  24 3 0 0 0.92
0

0101000
-22 0 +32 0 *
Wi

0101100
-11 0 -19 0 +10 0 +29 0 *
Fa
0  1e-07 4 0

0111000
+9 0 *
Wi

0101100
-28 0 -11 0 +18 0 +15 0 *
Fa
0  1e-07 5 0

0111000
+7 0 *
Wi

0101100
-31 0 -10 0 +21 0 +14 0 *
Fa
0  1e-07 3 0

0111000
+5 0 *
Sh

0101100
-26 0 +16 0 -12 0 +8 0 -6 0 +4 0 *
So

0100000
+3 0 *
Co

1100000
+2 0 *

+1 0
