DBRep_DrawableShape

CASCADE Topology V3, (c) Open Cascade
Locations 0
Curve2ds 34
1 0 0 1 0
2 0 0 -1 0 0 1 4
1 0 3 1 0
2 0 0 -1 0 0 1 4
1 6.2831853071795862 0 0 1
1 0 0 0 1
1 0 0 1 0
2 0 0 -1 0 0 1 7.5
1 0 3 1 0
2 0 0 -1 0 0 1 7.5
1 6.2831853071795862 0 0 1
1 0 0 0 1
1 0 0 1 0
2 0 0 -1 0 0 1 11
1 0 3 1 0
2 0 0 -1 0 0 1 11
1 6.2831853071795862 0 0 1
1 0 0 0 1
1 0 0 1 0
2 0 0 -1 0 0 1 36
1 0 4.2426406871192857 1 0
1 0 0 1 0
1 6.2831853071795862 0 0 1
1 0 0 0 1
1 6.2831853071795862 0 0 1
1 0 0 0 1
2 0 0 1 0 -0 1 39
1 0 47 1 0
2 0 0 1 0 0 -1 5
1 6.2831853071795862 12 -1 0
1 6.2831853071795862 0 0 1
1 0 0 0 1
1 0 29 1 0
2 0 0 1 0 -0 1 5
Curves 17
2 0 0 78 0 0 1 1 0 0 0 1 0 4
2 0 0 75 0 0 1 1 0 0 0 1 0 4
1 4 0 78 0 0 -1
2 0 0 75 0 0 1 1 0 0 0 1 0 7.5
2 0 0 78 0 0 1 1 0 0 0 1 0 7.5
1 7.5 0 75 0 0 1
2 0 0 78 0 0 1 1 0 0 0 1 0 11
2 0 0 75 0 0 1 1 0 0 0 1 0 11
1 11 0 78 0 0 -1
2 0 0 75 0 0 1 1 0 0 0 1 0 36
2 0 0 78 0 0 1 1 0 0 0 1 0 39
1 36 0 75 0.70710678118654757 0 0.70710678118654757
1 39 0 78 0 0 1
2 0 0 125 0 0 1 1 0 -0 -0 1 0 39
2 0 0 125 0 0 -1 1 0 0 0 -1 0 5
1 5 0 137 0 0 -1
2 0 0 108 0 0 1 1 0 0 0 1 0 5
Polygon3D 0
PolygonOnTriangulations 0
Surfaces 12
1 0 0 78 0 0 1 -1 0 0 0 1 0
2 0 0 78 -0 -0 -1 1 0 0 0 1 0 4
1 0 0 75 0 0 1 -1 0 0 0 1 0
2 0 0 75 0 0 1 1 0 0 0 1 0 7.5
1 0 0 78 0 0 1 -1 0 0 0 1 0
2 0 0 78 -0 -0 -1 1 0 0 0 1 0 11
1 0 0 75 0 0 1 -1 0 0 0 1 0
3 0 0 75 0 0 1 1 0 0 0 1 0 36
0.78539816339744828
2 0 0 78 0 0 1 1 0 0 0 1 0 39
1 0 0 125 0 0 1 1 0 0 0 1 0
2 0 0 137 -0 -0 -1 1 0 0 0 1 0 5
1 0 0 108 0 0 1 1 0 0 0 1 0
Triangulations 0

TShapes 56
Ve
1e-07
4 0 78
0 0

0101101
*
Ed
 1e-07 1 1 0
1  1 0 0 6.28318530717959
2  1 2 0 0 6.28318530717959
2  2 1 0 0 6.28318530717959
0

0101000
+56 0 -56 0 *
Wi

0101100
-55 0 *
Fa
0  1e-07 1 0

0101000
+54 0 *
Ve
1e-07
4 0 75
0 0

0101101
*
Ed
 1e-07 1 1 0
1  2 0 0 6.28318530717959
2  3 2 0 0 6.28318530717959
2  4 3 0 0 6.28318530717959
0

0101000
+52 0 -52 0 *
Ed
 1e-07 1 1 0
1  3 0 0 3
3  5 6CN 2 0 0 3
0

0101000
+56 0 -52 0 *
Wi

0101100
+55 0 -51 0 -50 0 +50 0 *
Fa
0  1e-07 2 0

0101000
+49 0 *
Wi

0101100
+51 0 *
Ve
1e-07
7.5 0 75
0 0

0101101
*
Ed
 1e-07 1 1 0
1  4 0 0 6.28318530717959
2  7 4 0 0 6.28318530717959
2  8 3 0 0 6.28318530717959
0

0101000
+46 0 -46 0 *
Wi

0101100
-45 0 *
Fa
0  1e-07 3 0

0101000
+47 0 +44 0 *
Ve
1e-07
7.5 0 78
0 0

0101101
*
Ed
 1e-07 1 1 0
1  5 0 0 6.28318530717959
2  9 4 0 0 6.28318530717959
2  10 5 0 0 6.28318530717959
0

0101000
+42 0 -42 0 *
Ed
 1e-07 1 1 0
1  6 0 0 3
3  11 12CN 4 0 0 3
0

0101000
+46 0 -42 0 *
Wi

0101100
+45 0 -41 0 -40 0 +40 0 *
Fa
0  1e-07 4 0

0101000
+39 0 *
Wi

0101100
+41 0 *
Ve
1e-07
11 0 78
0 0

0101101
*
Ed
 1e-07 1 1 0
1  7 0 0 6.28318530717959
2  13 6 0 0 6.28318530717959
2  14 5 0 0 6.28318530717959
0

0101000
+36 0 -36 0 *
Wi

0101100
-35 0 *
Fa
0  1e-07 5 0

0101000
+37 0 +34 0 *
Ve
1e-07
11 0 75
0 0

0101101
*
Ed
 1e-07 1 1 0
1  8 0 0 6.28318530717959
2  15 6 0 0 6.28318530717959
2  16 7 0 0 6.28318530717959
0

0101000
+32 0 -32 0 *
Ed
 1e-07 1 1 0
1  9 0 0 3
3  17 18CN 6 0 0 3
0

0101000
+36 0 -32 0 *
Wi

0101100
+35 0 -31 0 -30 0 +30 0 *
Fa
0  1e-07 6 0

0101000
+29 0 *
Wi

0101100
+31 0 *
Ve
1e-07
36 0 75
0 0

0101101
*
Ed
 1e-07 1 1 0
1  10 0 0 6.28318530717959
2  19 8 0 0 6.28318530717959
2  20 7 0 0 6.28318530717959
0

0101000
+26 0 -26 0 *
Wi

0101100
-25 0 *
Fa
0  1e-07 7 0

0101000
+27 0 +24 0 *
Ve
1e-07
39 0 78
0 0

0101101
*
Ed
 1e-07 1 1 0
1  11 0 0 6.28318530717959
2  21 8 0 0 6.28318530717959
2  22 9 0 0 6.28318530717959
0

0101000
+22 0 -22 0 *
Ed
 1e-07 1 1 0
1  12 0 0 4.24264068711928
3  23 24CN 8 0 0 4.24264068711928
0

0101000
+26 0 -22 0 *
Wi

0101100
+25 0 -21 0 -20 0 +20 0 *
Fa
0  1e-07 8 0

0101000
+19 0 *
Ve
1.00000009552245e-07
39 0 125
0 0

0101101
*
Ed
 1e-07 1 1 0
1  13 0 0 47
3  25 26CN 9 0 0 47
0

0101000
+22 0 -17 0 *
Ed
 1e-07 1 1 0
1  14 0 0 6.28318530717959
2  27 10 0 0 6.28318530717959
2  28 9 0 0 6.28318530717959
0

0101100
+17 0 -17 0 *
Wi

0101100
-16 0 -15 0 +16 0 +21 0 *
Fa
0  1e-07 9 0

0101000
+14 0 *
Sh

0101000
+53 0 +48 0 +43 0 +38 0 +33 0 +28 0 +23 0 +18 0 +13 0 *
Ve
1.00000001224647e-07
5 0 125
0 0

0101101
*
Ed
 1e-07 1 1 0
1  15 0 0 6.28318530717959
2  29 10 0 0 6.28318530717959
2  30 11 0 0 6.28318530717959
0

0101100
+11 0 -11 0 *
Ve
1e-07
5 0 108
0 0

0101101
*
Ed
 1e-07 1 1 0
1  16 0 12 29
3  31 32CN 11 0 12 29
0

0101000
+11 0 -9 0 *
Ed
 1e-07 1 1 0
1  17 0 0 6.28318530717959
2  33 11 0 0 6.28318530717959
2  34 12 0 0 6.28318530717959
0

0101000
+9 0 -9 0 *
Wi

0101100
-10 0 -8 0 -7 0 +8 0 *
Fa
0  1e-07 11 0

0101000
+6 0 *
Wi

0101100
+7 0 *
Fa
0  1e-07 12 0

0101000
+4 0 *
Sh

0101000
+5 0 +3 0 *
Co

1100000
+12 0 +2 0 *

+1 0
