DBRep_DrawableShape

CASCADE Topology V3, (c) Open Cascade
Locations 0
Curve2ds 24
1 0 0 1 0 
1 0 0 1 0 
1 200 0 0 -1 
1 0 0 2.6445915718394018e-17 1 
1 0 -1.0003000000000002 1 0 
1 0 0 1 0 
1 0 0 0 -1 
1 0 0 2.6445915718394018e-17 1 
1 0 0 1 0 
1 0 1.0002999999999955 1 0 
1 200 0 0 -1 
1 1.0002999999999986 3.6682908423600085e-15 2.6445915718394018e-17 1 
1 0 -1.0003000000000002 1 0 
1 0 1.0002999999999955 1 0 
1 0 0 0 -1 
1 1.0002999999999986 3.6682908423600085e-15 2.6445915718394018e-17 1 
1 0 0 0 1 
1 0 0 1 2.6445915718394018e-17 
1 200 0 0 1 
1 0 0 1 2.6445915718394018e-17 
1 0 0 0 1 
1 2.5163014054790508e-15 1.000300000000002 1 2.6445915718394018e-17 
1 200 0 0 1 
1 2.5163014054790508e-15 1.000300000000002 1 2.6445915718394018e-17 
Curves 12
1 -24.878473766972569 43.160301429561891 -100 0 0 1 
1 -24.878473766972569 43.160301429561891 100 -0.49436335155608674 -0.86925535755509331 0 
1 -25.372985427534125 42.29078529539953 -100 0 0 1 
1 -24.878473766972569 43.160301429561891 -100 -0.49436335155608674 -0.86925535755509331 0 
1 -25.747989901134929 43.65481309012344 -100 0 0 1 
1 -25.747989901134929 43.65481309012344 100 -0.49436335155608674 -0.86925535755509331 0 
1 -26.242501561696486 42.78529695596108 -100 0 0 1 
1 -25.747989901134929 43.65481309012344 -100 -0.49436335155608674 -0.86925535755509331 0 
1 -24.878473766972569 43.160301429561891 -100 -0.86925535755509331 0.49436335155608674 0 
1 -24.878473766972569 43.160301429561891 100 -0.86925535755509331 0.49436335155608674 0 
1 -25.372985427534125 42.29078529539953 -100 -0.86925535755509331 0.49436335155608674 0 
1 -25.372985427534125 42.29078529539953 100 -0.86925535755509331 0.49436335155608674 0 
Polygon3D 0
PolygonOnTriangulations 0
Surfaces 6
1 -24.878473766972569 43.160301429561891 -100 -0.86925535755509331 0.49436335155608674 0 0 0 1 0.49436335155608674 0.86925535755509331 0 
1 -24.878473766972569 43.160301429561891 -100 -0.49436335155608674 -0.86925535755509331 0 0 0 1 -0.86925535755509331 0.49436335155608674 0 
1 -24.878473766972569 43.160301429561891 100 0 0 1 -0.86925535755509331 0.49436335155608674 0 -0.49436335155608674 -0.86925535755509331 0 
1 -25.372985427534125 42.29078529539953 -100 -0.49436335155608674 -0.86925535755509331 0 0 0 1 -0.86925535755509331 0.49436335155608674 0 
1 -24.878473766972569 43.160301429561891 -100 0 0 1 -0.86925535755509331 0.49436335155608674 0 -0.49436335155608674 -0.86925535755509331 0 
1 -25.747989901134929 43.65481309012344 -100 -0.86925535755509331 0.49436335155608674 0 0 0 1 0.49436335155608674 0.86925535755509331 0 
Triangulations 0

TShapes 35
Ve
1e-07
-24.8784737669726 43.1603014295619 100
0 0

0101101
*
Ve
1e-07
-24.8784737669726 43.1603014295619 -100
0 0

0101101
*
Ed
 1e-07 1 1 0
1  1 0 0 200
2  1 1 0 0 200
2  2 2 0 0 200
0

0101000
-35 0 +34 0 *
Ve
1e-07
-25.3729854275341 42.2907852953995 100
0 0

0101101
*
Ed
 1e-07 1 1 0
1  2 0 0 1.0003
2  3 1 0 0 1.0003
2  4 3 0 0 1.0003
0

0101000
-32 0 +35 0 *
Ve
1e-07
-25.3729854275341 42.2907852953995 -100
0 0

0101101
*
Ed
 1e-07 1 1 0
1  3 0 0 200
2  5 1 0 0 200
2  6 4 0 0 200
0

0101000
-32 0 +30 0 *
Ed
 1e-07 1 1 0
1  4 0 0 1.0003
2  7 1 0 0 1.0003
2  8 5 0 0 1.0003
0

0101000
-30 0 +34 0 *
Wi

0101100
-33 0 -31 0 +29 0 +28 0 *
Fa
0  1e-07 1 0

0111000
+27 0 *
Ve
1e-07
-25.7479899011349 43.6548130901234 100
0 0

0101101
*
Ve
1e-07
-25.7479899011349 43.6548130901234 -100
0 0

0101101
*
Ed
 1e-07 1 1 0
1  5 0 0 200
2  9 6 0 0 200
2  10 2 0 0 200
0

0101000
-25 0 +24 0 *
Ve
1e-07
-26.2425015616965 42.7852969559611 100
0 0

0101101
*
Ed
 1e-07 1 1 0
1  6 0 0 1.0003
2  11 6 0 0 1.0003
2  12 3 0 0 1.0003
0

0101000
-22 0 +25 0 *
Ve
1e-07
-26.2425015616965 42.7852969559611 -100
0 0

0101101
*
Ed
 1e-07 1 1 0
1  7 0 0 200
2  13 6 0 0 200
2  14 4 0 0 200
0

0101000
-22 0 +20 0 *
Ed
 1e-07 1 1 0
1  8 0 0 1.0003
2  15 6 0 0 1.0003
2  16 5 0 0 1.0003
0

0101000
-20 0 +24 0 *
Wi

0101100
-23 0 -21 0 +19 0 +18 0 *
Fa
0  1e-07 6 0

0111000
+17 0 *
Ed
 1e-07 1 1 0
1  9 0 0 1.0003
2  17 2 0 0 1.0003
2  18 5 0 0 1.0003
0

0101000
-24 0 +34 0 *
Ed
 1e-07 1 1 0
1  10 0 0 1.0003
2  19 2 0 0 1.0003
2  20 3 0 0 1.0003
0

0101000
-25 0 +35 0 *
Wi

0101100
-15 0 -23 0 +14 0 +33 0 *
Fa
0  1e-07 2 0

0111000
+13 0 *
Ed
 1e-07 1 1 0
1  11 0 0 1.0003
2  21 4 0 0 1.0003
2  22 5 0 0 1.0003
0

0101000
-20 0 +30 0 *
Ed
 1e-07 1 1 0
1  12 0 0 1.0003
2  23 4 0 0 1.0003
2  24 3 0 0 1.0003
0

0101000
-22 0 +32 0 *
Wi

0101100
-11 0 -19 0 +10 0 +29 0 *
Fa
0  1e-07 4 0

0111000
+9 0 *
Wi

0101100
-28 0 -11 0 +18 0 +15 0 *
Fa
0  1e-07 5 0

0111000
+7 0 *
Wi

0101100
-31 0 -10 0 +21 0 +14 0 *
Fa
0  1e-07 3 0

0111000
+5 0 *
Sh

0101100
-26 0 +16 0 -12 0 +8 0 -6 0 +4 0 *
So

0100000
+3 0 *
Co

1100000
+2 0 *

+1 0 