DBRep_DrawableShape

CASCADE Topology V3, (c) Open Cascade
Locations 0
Curve2ds 12
1 0 1 1 0
2 0 0 1 -3.2393920879600547e-18 3.2393920879600547e-18 1 50.510000000999995
1 6.2831853071795862 -0 0 1
1 0 -0 0 1
1 0 0 1 0
2 0 0 1 -3.2393920879600547e-18 3.2393920879600547e-18 1 50.510000000999995
1 0 1 1 0
2 0 0 1 -3.2393920879600547e-18 3.2393920879600547e-18 1 49.490000000999991
1 0 0 1 0
2 0 0 1 -3.2393920879600547e-18 3.2393920879600547e-18 1 49.490000000999991
1 6.2831853071795862 -0 0 1
1 0 -0 0 1
Curves 6
2 0 0 -100.05 0 -0 1 0.99452189536827329 0.10452846326765391 0 -0.10452846326765391 0.99452189536827329 0 50.510000000999995
1 50.233300936046 5.2797326797537147 -101.05 0 0 1
2 0 0 -101.05 0 -0 1 0.99452189536827329 0.10452846326765391 0 -0.10452846326765391 0.99452189536827329 0 50.510000000999995
2 0 0 -100.05 0 -0 1 0.99452189536827329 0.10452846326765391 0 -0.10452846326765391 0.99452189536827329 0 49.490000000999999
2 0 0 -101.05 0 -0 1 0.99452189536827329 0.10452846326765391 0 -0.10452846326765391 0.99452189536827329 0 49.490000000999999
1 49.21888860277037 5.1731136472207089 -101.05 0 0 1
Polygon3D 0
PolygonOnTriangulations 0
Surfaces 4
2 0 0 -101.05 0 0 1 0.99452189536827329 0.10452846326765391 0 -0.10452846326765391 0.99452189536827329 0 50.510000000999995
1 0 0 -100.05 0 0 1 0.99452189536827329 0.10452846326765391 0 -0.10452846326765391 0.99452189536827329 0
1 0 0 -101.05 0 0 1 0.99452189536827329 0.10452846326765391 0 -0.10452846326765391 0.99452189536827329 0
2 0 0 -101.05 0 0 1 0.99452189536827329 0.10452846326765391 0 -0.10452846326765391 0.99452189536827329 0 49.490000000999999
Triangulations 0

TShapes 23
Ve
1e-07
50.233300936046 5.27973267975371 -100.05
0 0

0101101
*
Ed
 1e-07 1 1 0
1  1 0 0 6.28318530717959
2  1 1 0 0 6.28318530717959
2  2 2 0 0 6.28318530717959
0

0101000
+23 0 -23 0 *
Ve
1e-07
50.233300936046 5.27973267975371 -101.05
0 0

0101101
*
Ed
 1e-07 1 1 0
1  2 0 0 1
3  3 4CN 1 0 0 1
0

0101000
-23 0 +21 0 *
Ed
 1e-07 1 1 0
1  3 0 0 6.28318530717959
2  5 1 0 0 6.28318530717959
2  6 3 0 0 6.28318530717959
0

0101000
+21 0 -21 0 *
Wi

0101100
-22 0 +20 0 +19 0 -20 0 *
Fa
0  1e-07 1 0

0111000
+18 0 *
Wi

0101100
+22 0 *
Ve
1e-07
49.2188886027704 5.17311364722071 -100.05
0 0

0101101
*
Ed
 1e-07 1 1 0
1  4 0 0 6.28318530717959
2  7 4 0 0 6.28318530717959
2  8 2 0 0 6.28318530717959
0

0101000
+15 0 -15 0 *
Wi

0101100
-14 0 *
Fa
0  1e-07 2 0

0101000
+16 0 +13 0 *
Wi

0101100
+19 0 *
Ve
1e-07
49.2188886027704 5.17311364722071 -101.05
0 0

0101101
*
Ed
 1e-07 1 1 0
1  5 0 0 6.28318530717959
2  9 4 0 0 6.28318530717959
2  10 3 0 0 6.28318530717959
0

0101000
+10 0 -10 0 *
Wi

0101100
-9 0 *
Fa
0  1e-07 3 0

0101000
+11 0 +8 0 *
Ed
 1e-07 1 1 0
1  6 0 0 1
3  11 12CN 4 0 0 1
0

0101000
-15 0 +10 0 *
Wi

0101100
-14 0 +6 0 +9 0 -6 0 *
Fa
0  1e-07 4 0

0111000
+5 0 *
Sh

0101100
+17 0 +12 0 -7 0 -4 0 *
So

0100000
+3 0 *
Co

1100000
+2 0 *

+1 0
