DBRep_DrawableShape

CASCADE Topology V3, (c) Open Cascade
Locations 0
Curve2ds 24
1 0 0 1 0
1 0 0 1 0
1 200 0 0 -1
1 0 0 7.0446058478657497e-18 1
1 0 -1.0003000000000024 1 0
1 0 0 1 0
1 0 0 0 -1
1 0 0 7.0446058478657497e-18 1
1 0 0 1 0
1 0 1.0003000000000024 1 0
1 200 0 0 -1
1 1.0003000000000024 2.2515724092763929e-16 7.0446058478657497e-18 1
1 0 -1.0003000000000024 1 0
1 0 1.0003000000000024 1 0
1 0 0 0 -1
1 1.0003000000000024 2.2515724092763929e-16 7.0446058478657497e-18 1
1 0 0 0 1
1 0 0 1 7.0446058478657497e-18
1 200 0 0 1
1 0 0 1 7.0446058478657497e-18
1 0 0 0 1
1 -1.9952913736824136e-16 1.0003000000000024 1 7.0446058478657497e-18
1 200 0 0 1
1 -1.9952913736824136e-16 1.0003000000000024 1 7.0446058478657497e-18
Curves 12
1 -40.088278344935333 29.343342646910031 -100 0 0 1
1 -40.088278344935333 29.343342646910031 100 -0.30467959949123918 -0.9524549026877116 0
1 -40.39304934830642 28.390602007751511 -100 0 0 1
1 -40.088278344935333 29.343342646910031 -100 -0.30467959949123918 -0.9524549026877116 0
1 -41.041018984093853 29.648113650281118 -100 0 0 1
1 -41.041018984093853 29.648113650281118 100 -0.30467959949123918 -0.9524549026877116 0
1 -41.34578998746494 28.695373011122598 -100 0 0 1
1 -41.041018984093853 29.648113650281118 -100 -0.30467959949123918 -0.9524549026877116 0
1 -40.088278344935333 29.343342646910031 -100 -0.9524549026877116 0.30467959949123918 0
1 -40.088278344935333 29.343342646910031 100 -0.9524549026877116 0.30467959949123918 0
1 -40.39304934830642 28.390602007751511 -100 -0.9524549026877116 0.30467959949123918 0
1 -40.39304934830642 28.390602007751511 100 -0.9524549026877116 0.30467959949123918 0
Polygon3D 0
PolygonOnTriangulations 0
Surfaces 6
1 -40.088278344935333 29.343342646910031 -100 -0.9524549026877116 0.30467959949123918 0 0 0 1 0.30467959949123918 0.9524549026877116 0
1 -40.088278344935333 29.343342646910031 -100 -0.30467959949123918 -0.9524549026877116 0 0 0 1 -0.9524549026877116 0.30467959949123918 0
1 -40.088278344935333 29.343342646910031 100 0 0 1 -0.9524549026877116 0.30467959949123918 0 -0.30467959949123918 -0.9524549026877116 0
1 -40.39304934830642 28.390602007751511 -100 -0.30467959949123918 -0.9524549026877116 0 0 0 1 -0.9524549026877116 0.30467959949123918 0
1 -40.088278344935333 29.343342646910031 -100 0 0 1 -0.9524549026877116 0.30467959949123918 0 -0.30467959949123918 -0.9524549026877116 0
1 -41.041018984093853 29.648113650281118 -100 -0.9524549026877116 0.30467959949123918 0 0 0 1 0.30467959949123918 0.9524549026877116 0
Triangulations 0

TShapes 35
Ve
1e-07
-40.0882783449353 29.34334264691 100
0 0

0101101
*
Ve
1e-07
-40.0882783449353 29.34334264691 -100
0 0

0101101
*
Ed
 1e-07 1 1 0
1  1 0 0 200
2  1 1 0 0 200
2  2 2 0 0 200
0

0101000
-35 0 +34 0 *
Ve
1e-07
-40.3930493483064 28.3906020077515 100
0 0

0101101
*
Ed
 1e-07 1 1 0
1  2 0 0 1.0003
2  3 1 0 0 1.0003
2  4 3 0 0 1.0003
0

0101000
-32 0 +35 0 *
Ve
1e-07
-40.3930493483064 28.3906020077515 -100
0 0

0101101
*
Ed
 1e-07 1 1 0
1  3 0 0 200
2  5 1 0 0 200
2  6 4 0 0 200
0

0101000
-32 0 +30 0 *
Ed
 1e-07 1 1 0
1  4 0 0 1.0003
2  7 1 0 0 1.0003
2  8 5 0 0 1.0003
0

0101000
-30 0 +34 0 *
Wi

0101100
-33 0 -31 0 +29 0 +28 0 *
Fa
0  1e-07 1 0

0111000
+27 0 *
Ve
1e-07
-41.0410189840939 29.6481136502811 100
0 0

0101101
*
Ve
1e-07
-41.0410189840939 29.6481136502811 -100
0 0

0101101
*
Ed
 1e-07 1 1 0
1  5 0 0 200
2  9 6 0 0 200
2  10 2 0 0 200
0

0101000
-25 0 +24 0 *
Ve
1e-07
-41.3457899874649 28.6953730111226 100
0 0

0101101
*
Ed
 1e-07 1 1 0
1  6 0 0 1.0003
2  11 6 0 0 1.0003
2  12 3 0 0 1.0003
0

0101000
-22 0 +25 0 *
Ve
1e-07
-41.3457899874649 28.6953730111226 -100
0 0

0101101
*
Ed
 1e-07 1 1 0
1  7 0 0 200
2  13 6 0 0 200
2  14 4 0 0 200
0

0101000
-22 0 +20 0 *
Ed
 1e-07 1 1 0
1  8 0 0 1.0003
2  15 6 0 0 1.0003
2  16 5 0 0 1.0003
0

0101000
-20 0 +24 0 *
Wi

0101100
-23 0 -21 0 +19 0 +18 0 *
Fa
0  1e-07 6 0

0111000
+17 0 *
Ed
 1e-07 1 1 0
1  9 0 0 1.0003
2  17 2 0 0 1.0003
2  18 5 0 0 1.0003
0

0101000
-24 0 +34 0 *
Ed
 1e-07 1 1 0
1  10 0 0 1.0003
2  19 2 0 0 1.0003
2  20 3 0 0 1.0003
0

0101000
-25 0 +35 0 *
Wi

0101100
-15 0 -23 0 +14 0 +33 0 *
Fa
0  1e-07 2 0

0111000
+13 0 *
Ed
 1e-07 1 1 0
1  11 0 0 1.0003
2  21 4 0 0 1.0003
2  22 5 0 0 1.0003
0

0101000
-20 0 +30 0 *
Ed
 1e-07 1 1 0
1  12 0 0 1.0003
2  23 4 0 0 1.0003
2  24 3 0 0 1.0003
0

0101000
-22 0 +32 0 *
Wi

0101100
-11 0 -19 0 +10 0 +29 0 *
Fa
0  1e-07 4 0

0111000
+9 0 *
Wi

0101100
-28 0 -11 0 +18 0 +15 0 *
Fa
0  1e-07 5 0

0111000
+7 0 *
Wi

0101100
-31 0 -10 0 +21 0 +14 0 *
Fa
0  1e-07 3 0

0111000
+5 0 *
Sh

0101100
-26 0 +16 0 -12 0 +8 0 -6 0 +4 0 *
So

0100000
+3 0 *
Co

1100000
+2 0 *

+1 0
