DBRep_DrawableShape

CASCADE Topology V3, (c) Open Cascade
Locations 0
Curve2ds 24
1 0 0 1 0
1 0 0 1 0
1 200 0 0 -1
1 0 0 -1.7742760138869818e-18 1
1 0 -1.0000000000000004 1 0
1 0 0 1 0
1 0 0 0 -1
1 0 0 -1.7742760138869818e-18 1
1 0 0 1 0
1 0 1.0000000000000024 1 0
1 200 0 0 -1
1 1.0000000000000022 9.093305481083526e-16 -1.7742760138869818e-18 1
1 0 -0.99999999999999944 1 0
1 0 1.0000000000000024 1 0
1 0 0 0 -1
1 1.0000000000000022 9.093305481083526e-16 -1.7742760138869818e-18 1
1 0 0 0 1
1 0 0 1 -1.7742760138869818e-18
1 200 0 0 1
1 0 0 1 -1.7742760138869818e-18
1 0 0 0 1
1 4.5487801065107725e-15 1.0000000000000009 1 -1.7742760138869818e-18
1 200 0 0 1
1 4.5487801065107725e-15 1.0000000000000009 1 -1.7742760138869818e-18
Curves 12
1 -48.800670797837817 8.5570434627726879 -100 0 0 1
1 -48.800670797837817 8.5570434627726879 100 -0.081262032991655186 -0.99669277211890284 0
1 -48.881932830829477 7.5603506906537845 -100 0 0 1
1 -48.800670797837817 8.5570434627726879 -100 -0.081262032991655186 -0.99669277211890284 0
1 -49.797363569956723 8.6383054957643424 -100 0 0 1
1 -49.797363569956723 8.6383054957643424 100 -0.081262032991655186 -0.99669277211890284 0
1 -49.878625602948382 7.6416127236454399 -100 0 0 1
1 -49.797363569956723 8.6383054957643424 -100 -0.081262032991655186 -0.99669277211890284 0
1 -48.800670797837817 8.5570434627726879 -100 -0.99669277211890284 0.081262032991655186 0
1 -48.800670797837817 8.5570434627726879 100 -0.99669277211890284 0.081262032991655186 0
1 -48.881932830829477 7.5603506906537845 -100 -0.99669277211890284 0.081262032991655186 0
1 -48.881932830829477 7.5603506906537845 100 -0.99669277211890284 0.081262032991655186 0
Polygon3D 0
PolygonOnTriangulations 0
Surfaces 6
1 -48.800670797837817 8.5570434627726879 -100 -0.99669277211890284 0.081262032991655186 0 0 0 1 0.081262032991655186 0.99669277211890284 0
1 -48.800670797837817 8.5570434627726879 -100 -0.081262032991655186 -0.99669277211890284 0 0 0 1 -0.99669277211890284 0.081262032991655186 0
1 -48.800670797837817 8.5570434627726879 100 0 0 1 -0.99669277211890284 0.081262032991655186 0 -0.081262032991655186 -0.99669277211890284 0
1 -48.881932830829477 7.5603506906537845 -100 -0.081262032991655186 -0.99669277211890284 0 0 0 1 -0.99669277211890284 0.081262032991655186 0
1 -48.800670797837817 8.5570434627726879 -100 0 0 1 -0.99669277211890284 0.081262032991655186 0 -0.081262032991655186 -0.99669277211890284 0
1 -49.797363569956723 8.6383054957643424 -100 -0.99669277211890284 0.081262032991655186 0 0 0 1 0.081262032991655186 0.99669277211890284 0
Triangulations 0

TShapes 35
Ve
1e-07
-48.8006707978378 8.55704346277269 100
0 0

0101101
*
Ve
1e-07
-48.8006707978378 8.55704346277269 -100
0 0

0101101
*
Ed
 1e-07 1 1 0
1  1 0 0 200
2  1 1 0 0 200
2  2 2 0 0 200
0

0101000
-35 0 +34 0 *
Ve
1e-07
-48.8819328308295 7.56035069065378 100
0 0

0101101
*
Ed
 1e-07 1 1 0
1  2 0 0 1
2  3 1 0 0 1
2  4 3 0 0 1
0

0101000
-32 0 +35 0 *
Ve
1e-07
-48.8819328308295 7.56035069065378 -100
0 0

0101101
*
Ed
 1e-07 1 1 0
1  3 0 0 200
2  5 1 0 0 200
2  6 4 0 0 200
0

0101000
-32 0 +30 0 *
Ed
 1e-07 1 1 0
1  4 0 0 1
2  7 1 0 0 1
2  8 5 0 0 1
0

0101000
-30 0 +34 0 *
Wi

0101100
-33 0 -31 0 +29 0 +28 0 *
Fa
0  1e-07 1 0

0111000
+27 0 *
Ve
1e-07
-49.7973635699567 8.63830549576434 100
0 0

0101101
*
Ve
1e-07
-49.7973635699567 8.63830549576434 -100
0 0

0101101
*
Ed
 1e-07 1 1 0
1  5 0 0 200
2  9 6 0 0 200
2  10 2 0 0 200
0

0101000
-25 0 +24 0 *
Ve
1e-07
-49.8786256029484 7.64161272364544 100
0 0

0101101
*
Ed
 1e-07 1 1 0
1  6 0 0 1
2  11 6 0 0 1
2  12 3 0 0 1
0

0101000
-22 0 +25 0 *
Ve
1e-07
-49.8786256029484 7.64161272364544 -100
0 0

0101101
*
Ed
 1e-07 1 1 0
1  7 0 0 200
2  13 6 0 0 200
2  14 4 0 0 200
0

0101000
-22 0 +20 0 *
Ed
 1e-07 1 1 0
1  8 0 0 1
2  15 6 0 0 1
2  16 5 0 0 1
0

0101000
-20 0 +24 0 *
Wi

0101100
-23 0 -21 0 +19 0 +18 0 *
Fa
0  1e-07 6 0

0111000
+17 0 *
Ed
 1e-07 1 1 0
1  9 0 0 1
2  17 2 0 0 1
2  18 5 0 0 1
0

0101000
-24 0 +34 0 *
Ed
 1e-07 1 1 0
1  10 0 0 1
2  19 2 0 0 1
2  20 3 0 0 1
0

0101000
-25 0 +35 0 *
Wi

0101100
-15 0 -23 0 +14 0 +33 0 *
Fa
0  1e-07 2 0

0111000
+13 0 *
Ed
 1e-07 1 1 0
1  11 0 0 1
2  21 4 0 0 1
2  22 5 0 0 1
0

0101000
-20 0 +30 0 *
Ed
 1e-07 1 1 0
1  12 0 0 1
2  23 4 0 0 1
2  24 3 0 0 1
0

0101000
-22 0 +32 0 *
Wi

0101100
-11 0 -19 0 +10 0 +29 0 *
Fa
0  1e-07 4 0

0111000
+9 0 *
Wi

0101100
-28 0 -11 0 +18 0 +15 0 *
Fa
0  1e-07 5 0

0111000
+7 0 *
Wi

0101100
-31 0 -10 0 +21 0 +14 0 *
Fa
0  1e-07 3 0

0111000
+5 0 *
Sh

0101100
-26 0 +16 0 -12 0 +8 0 -6 0 +4 0 *
So

0100000
+3 0 *
Co

1100000
+2 0 *

+1 0
