DBRep_DrawableShape

CASCADE Topology V3, (c) Open Cascade
Locations 0
Curve2ds 24
1 0 0 1 0
1 0 0 1 0
1 200 0 0 -1
1 0 0 -4.3996877403420013e-18 1
1 0 -1.0000000000000038 1 0
1 0 0 1 0
1 0 0 0 -1
1 0 0 -4.3996877403420013e-18 1
1 0 0 1 0
1 0 0.99999999999999922 1 0
1 200 0 0 -1
1 0.99999999999999922 -2.4132997591160135e-15 -4.3996877403420013e-18 1
1 0 -1.0000000000000038 1 0
1 0 0.99999999999999922 1 0
1 0 0 0 -1
1 0.99999999999999922 -2.4132997591160135e-15 -4.3996877403420013e-18 1
1 0 0 0 1
1 0 0 1 -4.3996877403420013e-18
1 200 0 0 1
1 0 0 1 -4.3996877403420013e-18
1 0 0 0 1
1 6.060864866215803e-17 1.0000000000000038 1 -4.3996877403420013e-18
1 200 0 0 1
1 6.060864866215803e-17 1.0000000000000038 1 -4.3996877403420013e-18
Curves 12
1 48.994969674315172 7.3174910050546718 -100 0 0 1
1 48.994969674315172 7.3174910050546718 100 0.99763788438833578 0.068692442329310294 0
1 49.992607558703511 7.3861834473839822 -100 0 0 1
1 48.994969674315172 7.3174910050546718 -100 0.99763788438833578 0.068692442329310294 0
1 49.06366211664448 6.3198531206663366 -100 0 0 1
1 49.06366211664448 6.3198531206663366 100 0.99763788438833578 0.068692442329310294 0
1 50.061300001032819 6.3885455629956471 -100 0 0 1
1 49.06366211664448 6.3198531206663366 -100 0.99763788438833578 0.068692442329310294 0
1 48.994969674315172 7.3174910050546718 -100 0.068692442329310294 -0.99763788438833578 0
1 48.994969674315172 7.3174910050546718 100 0.068692442329310294 -0.99763788438833578 0
1 49.992607558703511 7.3861834473839822 -100 0.068692442329310294 -0.99763788438833578 0
1 49.992607558703511 7.3861834473839822 100 0.068692442329310294 -0.99763788438833578 0
Polygon3D 0
PolygonOnTriangulations 0
Surfaces 6
1 48.994969674315172 7.3174910050546718 -100 0.068692442329310294 -0.99763788438833578 0 0 0 1 -0.99763788438833578 -0.068692442329310294 0
1 48.994969674315172 7.3174910050546718 -100 0.99763788438833578 0.068692442329310294 0 0 0 1 0.068692442329310294 -0.99763788438833578 0
1 48.994969674315172 7.3174910050546718 100 0 0 1 0.068692442329310294 -0.99763788438833578 0 0.99763788438833578 0.068692442329310294 0
1 49.992607558703511 7.3861834473839822 -100 0.99763788438833578 0.068692442329310294 0 0 0 1 0.068692442329310294 -0.99763788438833578 0
1 48.994969674315172 7.3174910050546718 -100 0 0 1 0.068692442329310294 -0.99763788438833578 0 0.99763788438833578 0.068692442329310294 0
1 49.06366211664448 6.3198531206663366 -100 0.068692442329310294 -0.99763788438833578 0 0 0 1 -0.99763788438833578 -0.068692442329310294 0
Triangulations 0

TShapes 35
Ve
1e-07
48.9949696743152 7.31749100505467 100
0 0

0101101
*
Ve
1e-07
48.9949696743152 7.31749100505467 -100
0 0

0101101
*
Ed
 1e-07 1 1 0
1  1 0 0 200
2  1 1 0 0 200
2  2 2 0 0 200
0

0101000
-35 0 +34 0 *
Ve
1e-07
49.9926075587035 7.38618344738398 100
0 0

0101101
*
Ed
 1e-07 1 1 0
1  2 0 0 1
2  3 1 0 0 1
2  4 3 0 0 1
0

0101000
-32 0 +35 0 *
Ve
1e-07
49.9926075587035 7.38618344738398 -100
0 0

0101101
*
Ed
 1e-07 1 1 0
1  3 0 0 200
2  5 1 0 0 200
2  6 4 0 0 200
0

0101000
-32 0 +30 0 *
Ed
 1e-07 1 1 0
1  4 0 0 1
2  7 1 0 0 1
2  8 5 0 0 1
0

0101000
-30 0 +34 0 *
Wi

0101100
-33 0 -31 0 +29 0 +28 0 *
Fa
0  1e-07 1 0

0111000
+27 0 *
Ve
1e-07
49.0636621166445 6.31985312066634 100
0 0

0101101
*
Ve
1e-07
49.0636621166445 6.31985312066634 -100
0 0

0101101
*
Ed
 1e-07 1 1 0
1  5 0 0 200
2  9 6 0 0 200
2  10 2 0 0 200
0

0101000
-25 0 +24 0 *
Ve
1e-07
50.0613000010328 6.38854556299565 100
0 0

0101101
*
Ed
 1e-07 1 1 0
1  6 0 0 1
2  11 6 0 0 1
2  12 3 0 0 1
0

0101000
-22 0 +25 0 *
Ve
1e-07
50.0613000010328 6.38854556299565 -100
0 0

0101101
*
Ed
 1e-07 1 1 0
1  7 0 0 200
2  13 6 0 0 200
2  14 4 0 0 200
0

0101000
-22 0 +20 0 *
Ed
 1e-07 1 1 0
1  8 0 0 1
2  15 6 0 0 1
2  16 5 0 0 1
0

0101000
-20 0 +24 0 *
Wi

0101100
-23 0 -21 0 +19 0 +18 0 *
Fa
0  1e-07 6 0

0111000
+17 0 *
Ed
 1e-07 1 1 0
1  9 0 0 1
2  17 2 0 0 1
2  18 5 0 0 1
0

0101000
-24 0 +34 0 *
Ed
 1e-07 1 1 0
1  10 0 0 1
2  19 2 0 0 1
2  20 3 0 0 1
0

0101000
-25 0 +35 0 *
Wi

0101100
-15 0 -23 0 +14 0 +33 0 *
Fa
0  1e-07 2 0

0111000
+13 0 *
Ed
 1e-07 1 1 0
1  11 0 0 1
2  21 4 0 0 1
2  22 5 0 0 1
0

0101000
-20 0 +30 0 *
Ed
 1e-07 1 1 0
1  12 0 0 1
2  23 4 0 0 1
2  24 3 0 0 1
0

0101000
-22 0 +32 0 *
Wi

0101100
-11 0 -19 0 +10 0 +29 0 *
Fa
0  1e-07 4 0

0111000
+9 0 *
Wi

0101100
-28 0 -11 0 +18 0 +15 0 *
Fa
0  1e-07 5 0

0111000
+7 0 *
Wi

0101100
-31 0 -10 0 +21 0 +14 0 *
Fa
0  1e-07 3 0

0111000
+5 0 *
Sh

0101100
-26 0 +16 0 -12 0 +8 0 -6 0 +4 0 *
So

0100000
+3 0 *
Co

1100000
+2 0 *

+1 0
