DBRep_DrawableShape

CASCADE Topology V3, (c) Open Cascade
Locations 2
1
              1               0               0               0 
              0               1               0               0 
              0               0               1             0.1 
2  1 -1 0
Curve2ds 24
1 0 1.5 1 0 
2 0 0 1 -1.2331234207105172e-17 1.2331234207105172e-17 1 50.710000001000004
1 6.2831853071795862 -0 0 1 
1 0 -0 0 1 
1 0 0 1 0 
2 0 0 1 -1.2331234207105172e-17 1.2331234207105172e-17 1 50.710000001000004
1 0 1.3500000000000001 1 0 
2 0 0 1 -1.2331234207105172e-17 1.2331234207105172e-17 1 50.510000001999991
1 0 0 1 0 
2 0 0 1 -1.2331234207105172e-17 1.2331234207105172e-17 1 49.290000001000003
1 6.2831853071795862 -0 0 1 
1 0 -0 0 1 
1 0 0 1 0 
2 0 0 1 -1.2331234207105172e-17 1.2331234207105172e-17 1 50.510000001999991
1 0 1.5 1 0 
2 0 0 1 -1.2331234207105172e-17 1.2331234207105172e-17 1 49.290000001000003
1 6.2831853071795862 -0 0 1 
1 0 -0 0 1 
1 0 0 1 0 
2 0 0 1 -1.2331234207105172e-17 1.2331234207105172e-17 1 49.490000000000002
1 0 1.3500000000000001 1 0 
2 0 0 1 -1.2331234207105172e-17 1.2331234207105172e-17 1 49.490000000000002
1 6.2831853071795862 -0 0 1 
1 0 -0 0 1 
Curves 12
2 0 0 101.20000000099999 0 0 1 -0.5877852522924738 0.80901699437494701 0 -0.80901699437494701 -0.5877852522924738 0 50.710000000999997
1 -29.806590144339122 41.025251785562588 99.700000000999992 0 0 1 
2 0 0 99.700000000999992 0 0 1 -0.5877852522924738 0.80901699437494701 0 -0.80901699437494701 -0.5877852522924738 0 50.710000000999997
2 0 0 101.20000000099999 0 0 1 -0.5877852522924738 0.80901699437494701 0 -0.80901699437494701 -0.5877852522924738 0 50.510000001999991
2 0 0 99.700000000999992 0 0 1 -0.5877852522924738 0.80901699437494701 0 -0.80901699437494701 -0.5877852522924738 0 49.290000000999996
1 -29.689033094468407 40.863448387496611 99.750000000999989 0 0 1 
2 0 0 99.750000000999989 0 0 1 -0.5877852522924738 0.80901699437494701 0 -0.80901699437494701 -0.5877852522924738 0 50.510000001999991
2 0 0 101.20000000099999 0 0 1 -0.5877852522924738 0.80901699437494701 0 -0.80901699437494701 -0.5877852522924738 0 49.290000000999996
1 -28.971935086083807 39.876447653550159 99.700000000999992 0 0 1 
2 0 0 99.750000000999989 0 0 1 -0.5877852522924738 0.80901699437494701 0 -0.80901699437494701 -0.5877852522924738 0 49.490000000000002
2 0 0 101.20000000099999 0 0 1 -0.5877852522924738 0.80901699437494701 0 -0.80901699437494701 -0.5877852522924738 0 49.490000000000002
1 -29.089492135954519 40.038251051616136 99.750000000999989 0 0 1 
Polygon3D 0
PolygonOnTriangulations 0
Surfaces 8
2 0 0 99.700000000999992 0 0 1 -0.5877852522924738 0.80901699437494701 0 -0.80901699437494701 -0.5877852522924738 0 50.710000000999997
1 0 0 101.20000000099999 0 0 1 -0.5877852522924738 0.80901699437494701 0 -0.80901699437494701 -0.5877852522924738 0 
1 0 0 99.700000000999992 0 0 1 -0.5877852522924738 0.80901699437494701 0 -0.80901699437494701 -0.5877852522924738 0 
2 0 0 99.750000000999989 0 0 1 -0.5877852522924738 0.80901699437494701 0 -0.80901699437494701 -0.5877852522924738 0 50.510000001999991
2 0 0 99.700000000999992 0 0 1 -0.5877852522924738 0.80901699437494701 0 -0.80901699437494701 -0.5877852522924738 0 49.290000000999996
1 0 0 99.750000000999989 0 0 1 -0.5877852522924738 0.80901699437494701 0 -0.80901699437494701 -0.5877852522924738 0 
1 0 0 101.20000000099999 0 0 1 -0.5877852522924738 0.80901699437494701 0 -0.80901699437494701 -0.5877852522924738 0 
2 0 0 99.750000000999989 0 0 1 -0.5877852522924738 0.80901699437494701 0 -0.80901699437494701 -0.5877852522924738 0 49.490000000000002
Triangulations 0

TShapes 43
Ve
1e-07
-29.8065901443391 41.0252517855626 101.200000001
0 0

0101101
*
Ed
 1e-07 1 1 0
1  1 0 0 6.28318530717959
2  1 1 0 0 6.28318530717959
2  2 2 0 0 6.28318530717959
0

0101000
+43 0 -43 0 *
Ve
1e-07
-29.8065901443391 41.0252517855626 99.700000001
0 0

0101101
*
Ed
 1e-07 1 1 0
1  2 0 0 1.5
3  3 4CN 1 0 0 1.5
0

0101000
-43 0 +41 0 *
Ed
 1e-07 1 1 0
1  3 0 0 6.28318530717959
2  5 1 0 0 6.28318530717959
2  6 3 0 0 6.28318530717959
0

0101000
+41 0 -41 0 *
Wi

0101100
-42 0 +40 0 +39 0 -40 0 *
Fa
0  1e-07 1 0

0111000
+38 0 *
Wi

0101100
+42 0 *
Ve
1.00000012371382e-07
-29.6890330944684 40.8634483874966 101.200000001
0 0

0101101
*
Ed
 1e-07 1 1 0
1  4 0 0 6.28318530717959
2  7 4 1 0 6.28318530717959
2  8 2 0 0 6.28318530717959
0

0101100
+35 0 -35 0 *
Wi

0101100
-34 0 *
Fa
0  1e-07 2 0

0101000
+36 0 +33 0 *
Wi

0101100
+39 0 *
Ve
1e-07
-28.9719350860838 39.8764476535502 99.700000001
0 0

0101101
*
Ed
 1e-07 1 1 0
1  5 0 0 6.28318530717959
2  9 5 0 0 6.28318530717959
2  10 3 0 0 6.28318530717959
0

0101000
+30 0 -30 0 *
Wi

0101100
-29 0 *
Fa
0  1e-07 3 0

0101000
+31 0 +28 0 *
Ve
1e-07
-29.6890330944684 40.8634483874966 99.850000001
0 0

0101101
*
Ed
 1e-07 1 1 0
1  6 0 0 1.35
3  11 12CN 4 0 0 1.35
0

0101000
+26 2 -35 2 *
Ed
 1e-07 1 1 0
1  7 0 0 6.28318530717959
2  13 4 0 0 6.28318530717959
2  14 6 0 0 6.28318530717959
0

0101000
+26 2 -26 2 *
Wi

0101100
-34 0 +25 1 +24 1 -25 1 *
Fa
0  1e-07 4 1

0101000
+23 0 *
Ve
1e-07
-28.9719350860838 39.8764476535502 101.200000001
0 0

0101101
*
Ed
 1e-07 1 1 0
1  8 0 0 6.28318530717959
2  15 5 0 0 6.28318530717959
2  16 7 0 0 6.28318530717959
0

0101000
+21 0 -21 0 *
Ed
 1e-07 1 1 0
1  9 0 0 1.5
3  17 18CN 5 0 0 1.5
0

0101000
-21 0 +30 0 *
Wi

0101100
-20 0 +19 0 +29 0 -19 0 *
Fa
0  1e-07 5 0

0111000
+18 0 *
Wi

0101100
+24 0 *
Ve
1e-07
-29.0894921359545 40.0382510516161 99.850000001
0 0

0101101
*
Ed
 1e-07 1 1 0
1  10 0 0 6.28318530717959
2  19 8 0 0 6.28318530717959
2  20 6 0 0 6.28318530717959
0

0101000
+15 2 -15 2 *
Wi

0101100
-14 0 *
Fa
0  1e-07 6 0

0101000
+16 0 +13 0 *
Ve
1.00000012121554e-07
-29.0894921359545 40.0382510516161 101.200000001
0 0

0101101
*
Ed
 1e-07 1 1 0
1  11 0 0 6.28318530717959
2  21 8 1 0 6.28318530717959
2  22 7 0 0 6.28318530717959
0

0101100
+11 0 -11 0 *
Wi

0101100
+10 0 *
Wi

0101100
-20 0 *
Fa
0  1e-07 7 0

0101000
+9 0 +8 0 *
Ed
 1e-07 1 1 0
1  12 0 0 1.35
3  23 24CN 8 0 0 1.35
0

0101000
+15 2 -11 2 *
Wi

0101100
-10 0 +6 1 +14 1 -6 1 *
Fa
0  1e-07 8 1

0101000
+5 0 *
Sh

0101100
+37 0 +32 0 -27 0 -22 0 -17 0 +12 1 +7 0 +4 0 *
So

0100000
+3 0 *
Co

1100000
+2 0 *

+1 0 