DBRep_DrawableShape

CASCADE Topology V3, (c) Open Cascade
Locations 0
Curve2ds 24
1 0 0 1 0 
1 0 0 1 0 
1 200 0 0 -1 
1 0 0 -1.8469228995589334e-17 1 
1 0 -0.88000000000000222 1 0 
1 0 0 1 0 
1 0 0 0 -1 
1 0 0 -1.8469228995589334e-17 1 
1 0 0 1 0 
1 0 0.88000000000000056 1 0 
1 200 0 0 -1 
1 0.88000000000000056 -4.5065693179093611e-15 -1.8469228995589334e-17 1 
1 0 -0.88000000000000222 1 0 
1 0 0.88000000000000056 1 0 
1 0 0 0 -1 
1 0.88000000000000056 -4.5065693179093611e-15 -1.8469228995589334e-17 1 
1 0 0 0 1 
1 0 0 1 -1.8469228995589334e-17 
1 200 0 0 1 
1 0 0 1 -1.8469228995589334e-17 
1 0 0 0 1 
1 -2.4705137920701305e-16 0.88000000000000222 1 -1.8469228995589334e-17 
1 200 0 0 1 
1 -2.4705137920701305e-16 0.88000000000000222 1 -1.8469228995589334e-17 
Curves 12
1 -31.287523771963198 39.264155399951314 -100 0 0 1 
1 -31.287523771963198 39.264155399951314 100 0.43932954208898745 0.89832597282271687 0 
1 -30.900913774924888 40.054682256035306 -100 0 0 1 
1 -31.287523771963198 39.264155399951314 -100 0.43932954208898745 0.89832597282271687 0 
1 -30.496996915879208 38.877545402913 -100 0 0 1 
1 -30.496996915879208 38.877545402913 100 0.43932954208898745 0.89832597282271687 0 
1 -30.110386918840899 39.668072258996993 -100 0 0 1 
1 -30.496996915879208 38.877545402913 -100 0.43932954208898745 0.89832597282271687 0 
1 -31.287523771963198 39.264155399951314 -100 0.89832597282271687 -0.43932954208898745 0 
1 -31.287523771963198 39.264155399951314 100 0.89832597282271687 -0.43932954208898745 0 
1 -30.900913774924888 40.054682256035306 -100 0.89832597282271687 -0.43932954208898745 0 
1 -30.900913774924888 40.054682256035306 100 0.89832597282271687 -0.43932954208898745 0 
Polygon3D 0
PolygonOnTriangulations 0
Surfaces 6
1 -31.287523771963198 39.264155399951314 -100 0.89832597282271687 -0.43932954208898745 0 0 0 1 -0.43932954208898745 -0.89832597282271687 0 
1 -31.287523771963198 39.264155399951314 -100 0.43932954208898745 0.89832597282271687 0 0 0 1 0.89832597282271687 -0.43932954208898745 0 
1 -31.287523771963198 39.264155399951314 100 0 0 1 0.89832597282271687 -0.43932954208898745 0 0.43932954208898745 0.89832597282271687 0 
1 -30.900913774924888 40.054682256035306 -100 0.43932954208898745 0.89832597282271687 0 0 0 1 0.89832597282271687 -0.43932954208898745 0 
1 -31.287523771963198 39.264155399951314 -100 0 0 1 0.89832597282271687 -0.43932954208898745 0 0.43932954208898745 0.89832597282271687 0 
1 -30.496996915879208 38.877545402913 -100 0.89832597282271687 -0.43932954208898745 0 0 0 1 -0.43932954208898745 -0.89832597282271687 0 
Triangulations 0

TShapes 35
Ve
1e-07
-31.2875237719632 39.2641553999513 100
0 0

0101101
*
Ve
1e-07
-31.2875237719632 39.2641553999513 -100
0 0

0101101
*
Ed
 1e-07 1 1 0
1  1 0 0 200
2  1 1 0 0 200
2  2 2 0 0 200
0

0101000
-35 0 +34 0 *
Ve
1e-07
-30.9009137749249 40.0546822560353 100
0 0

0101101
*
Ed
 1e-07 1 1 0
1  2 0 0 0.88
2  3 1 0 0 0.88
2  4 3 0 0 0.88
0

0101000
-32 0 +35 0 *
Ve
1e-07
-30.9009137749249 40.0546822560353 -100
0 0

0101101
*
Ed
 1e-07 1 1 0
1  3 0 0 200
2  5 1 0 0 200
2  6 4 0 0 200
0

0101000
-32 0 +30 0 *
Ed
 1e-07 1 1 0
1  4 0 0 0.88
2  7 1 0 0 0.88
2  8 5 0 0 0.88
0

0101000
-30 0 +34 0 *
Wi

0101100
-33 0 -31 0 +29 0 +28 0 *
Fa
0  1e-07 1 0

0111000
+27 0 *
Ve
1e-07
-30.4969969158792 38.877545402913 100
0 0

0101101
*
Ve
1e-07
-30.4969969158792 38.877545402913 -100
0 0

0101101
*
Ed
 1e-07 1 1 0
1  5 0 0 200
2  9 6 0 0 200
2  10 2 0 0 200
0

0101000
-25 0 +24 0 *
Ve
1e-07
-30.1103869188409 39.668072258997 100
0 0

0101101
*
Ed
 1e-07 1 1 0
1  6 0 0 0.88
2  11 6 0 0 0.88
2  12 3 0 0 0.88
0

0101000
-22 0 +25 0 *
Ve
1e-07
-30.1103869188409 39.668072258997 -100
0 0

0101101
*
Ed
 1e-07 1 1 0
1  7 0 0 200
2  13 6 0 0 200
2  14 4 0 0 200
0

0101000
-22 0 +20 0 *
Ed
 1e-07 1 1 0
1  8 0 0 0.88
2  15 6 0 0 0.88
2  16 5 0 0 0.88
0

0101000
-20 0 +24 0 *
Wi

0101100
-23 0 -21 0 +19 0 +18 0 *
Fa
0  1e-07 6 0

0111000
+17 0 *
Ed
 1e-07 1 1 0
1  9 0 0 0.88
2  17 2 0 0 0.88
2  18 5 0 0 0.88
0

0101000
-24 0 +34 0 *
Ed
 1e-07 1 1 0
1  10 0 0 0.88
2  19 2 0 0 0.88
2  20 3 0 0 0.88
0

0101000
-25 0 +35 0 *
Wi

0101100
-15 0 -23 0 +14 0 +33 0 *
Fa
0  1e-07 2 0

0111000
+13 0 *
Ed
 1e-07 1 1 0
1  11 0 0 0.88
2  21 4 0 0 0.88
2  22 5 0 0 0.88
0

0101000
-20 0 +30 0 *
Ed
 1e-07 1 1 0
1  12 0 0 0.88
2  23 4 0 0 0.88
2  24 3 0 0 0.88
0

0101000
-22 0 +32 0 *
Wi

0101100
-11 0 -19 0 +10 0 +29 0 *
Fa
0  1e-07 4 0

0111000
+9 0 *
Wi

0101100
-28 0 -11 0 +18 0 +15 0 *
Fa
0  1e-07 5 0

0111000
+7 0 *
Wi

0101100
-31 0 -10 0 +21 0 +14 0 *
Fa
0  1e-07 3 0

0111000
+5 0 *
Sh

0101100
-26 0 +16 0 -12 0 +8 0 -6 0 +4 0 *
So

0100000
+3 0 *
Co

1100000
+2 0 *

+1 0 