DBRep_DrawableShape

CASCADE Topology V3, (c) Open Cascade
Locations 0
Curve2ds 24
1 0 0 1 0
1 0 0 1 0
1 200 0 0 -1
1 0 0 -3.0185085000441233e-18 1
1 0 -0.88000000000000544 1 0
1 0 0 1 0
1 0 0 0 -1
1 0 0 -3.0185085000441233e-18 1
1 0 0 1 0
1 0 0.88000000000000012 1 0
1 200 0 0 -1
1 0.88000000000000012 -2.1778959815462321e-16 -3.0185085000441233e-18 1
1 0 -0.88000000000000544 1 0
1 0 0.88000000000000012 1 0
1 0 0 0 -1
1 0.88000000000000012 -2.1778959815462321e-16 -3.0185085000441233e-18 1
1 0 0 0 1
1 0 0 1 -3.0185085000441233e-18
1 200 0 0 1
1 0 0 1 -3.0185085000441233e-18
1 0 0 0 1
1 4.6936745691585781e-16 0.88000000000000544 1 -3.0185085000441233e-18
1 200 0 0 1
1 4.6936745691585781e-16 0.88000000000000544 1 -3.0185085000441233e-18
Curves 12
1 50.230413585957109 4.3739047126030082 -100 0 0 1
1 50.230413585957109 4.3739047126030082 100 -0.99884838648495078 -0.047978128521343345 0
1 49.351427005850347 4.3316839595042262 -100 0 0 1
1 50.230413585957109 4.3739047126030082 -100 -0.99884838648495078 -0.047978128521343345 0
1 50.188192832858327 5.2528912927097648 -100 0 0 1
1 50.188192832858327 5.2528912927097648 100 -0.99884838648495078 -0.047978128521343345 0
1 49.309206252751565 5.2106705396109829 -100 0 0 1
1 50.188192832858327 5.2528912927097648 -100 -0.99884838648495078 -0.047978128521343345 0
1 50.230413585957109 4.3739047126030082 -100 -0.047978128521343345 0.99884838648495078 0
1 50.230413585957109 4.3739047126030082 100 -0.047978128521343345 0.99884838648495078 0
1 49.351427005850347 4.3316839595042262 -100 -0.047978128521343345 0.99884838648495078 0
1 49.351427005850347 4.3316839595042262 100 -0.047978128521343345 0.99884838648495078 0
Polygon3D 0
PolygonOnTriangulations 0
Surfaces 6
1 50.230413585957109 4.3739047126030082 -100 -0.047978128521343345 0.99884838648495078 0 0 0 1 0.99884838648495078 0.047978128521343345 0
1 50.230413585957109 4.3739047126030082 -100 -0.99884838648495078 -0.047978128521343345 0 0 0 1 -0.047978128521343345 0.99884838648495078 0
1 50.230413585957109 4.3739047126030082 100 0 0 1 -0.047978128521343345 0.99884838648495078 0 -0.99884838648495078 -0.047978128521343345 0
1 49.351427005850347 4.3316839595042262 -100 -0.99884838648495078 -0.047978128521343345 0 0 0 1 -0.047978128521343345 0.99884838648495078 0
1 50.230413585957109 4.3739047126030082 -100 0 0 1 -0.047978128521343345 0.99884838648495078 0 -0.99884838648495078 -0.047978128521343345 0
1 50.188192832858327 5.2528912927097648 -100 -0.047978128521343345 0.99884838648495078 0 0 0 1 0.99884838648495078 0.047978128521343345 0
Triangulations 0

TShapes 35
Ve
1e-07
50.2304135859571 4.37390471260301 100
0 0

0101101
*
Ve
1e-07
50.2304135859571 4.37390471260301 -100
0 0

0101101
*
Ed
 1e-07 1 1 0
1  1 0 0 200
2  1 1 0 0 200
2  2 2 0 0 200
0

0101000
-35 0 +34 0 *
Ve
1e-07
49.3514270058503 4.33168395950423 100
0 0

0101101
*
Ed
 1e-07 1 1 0
1  2 0 0 0.88
2  3 1 0 0 0.88
2  4 3 0 0 0.88
0

0101000
-32 0 +35 0 *
Ve
1e-07
49.3514270058503 4.33168395950423 -100
0 0

0101101
*
Ed
 1e-07 1 1 0
1  3 0 0 200
2  5 1 0 0 200
2  6 4 0 0 200
0

0101000
-32 0 +30 0 *
Ed
 1e-07 1 1 0
1  4 0 0 0.88
2  7 1 0 0 0.88
2  8 5 0 0 0.88
0

0101000
-30 0 +34 0 *
Wi

0101100
-33 0 -31 0 +29 0 +28 0 *
Fa
0  1e-07 1 0

0111000
+27 0 *
Ve
1e-07
50.1881928328583 5.25289129270976 100
0 0

0101101
*
Ve
1e-07
50.1881928328583 5.25289129270976 -100
0 0

0101101
*
Ed
 1e-07 1 1 0
1  5 0 0 200
2  9 6 0 0 200
2  10 2 0 0 200
0

0101000
-25 0 +24 0 *
Ve
1e-07
49.3092062527516 5.21067053961098 100
0 0

0101101
*
Ed
 1e-07 1 1 0
1  6 0 0 0.88
2  11 6 0 0 0.88
2  12 3 0 0 0.88
0

0101000
-22 0 +25 0 *
Ve
1e-07
49.3092062527516 5.21067053961098 -100
0 0

0101101
*
Ed
 1e-07 1 1 0
1  7 0 0 200
2  13 6 0 0 200
2  14 4 0 0 200
0

0101000
-22 0 +20 0 *
Ed
 1e-07 1 1 0
1  8 0 0 0.88
2  15 6 0 0 0.88
2  16 5 0 0 0.88
0

0101000
-20 0 +24 0 *
Wi

0101100
-23 0 -21 0 +19 0 +18 0 *
Fa
0  1e-07 6 0

0111000
+17 0 *
Ed
 1e-07 1 1 0
1  9 0 0 0.88
2  17 2 0 0 0.88
2  18 5 0 0 0.88
0

0101000
-24 0 +34 0 *
Ed
 1e-07 1 1 0
1  10 0 0 0.88
2  19 2 0 0 0.88
2  20 3 0 0 0.88
0

0101000
-25 0 +35 0 *
Wi

0101100
-15 0 -23 0 +14 0 +33 0 *
Fa
0  1e-07 2 0

0111000
+13 0 *
Ed
 1e-07 1 1 0
1  11 0 0 0.88
2  21 4 0 0 0.88
2  22 5 0 0 0.88
0

0101000
-20 0 +30 0 *
Ed
 1e-07 1 1 0
1  12 0 0 0.88
2  23 4 0 0 0.88
2  24 3 0 0 0.88
0

0101000
-22 0 +32 0 *
Wi

0101100
-11 0 -19 0 +10 0 +29 0 *
Fa
0  1e-07 4 0

0111000
+9 0 *
Wi

0101100
-28 0 -11 0 +18 0 +15 0 *
Fa
0  1e-07 5 0

0111000
+7 0 *
Wi

0101100
-31 0 -10 0 +21 0 +14 0 *
Fa
0  1e-07 3 0

0111000
+5 0 *
Sh

0101100
-26 0 +16 0 -12 0 +8 0 -6 0 +4 0 *
So

0100000
+3 0 *
Co

1100000
+2 0 *

+1 0
