DBRep_DrawableShape

CASCADE Topology V3, (c) Open Cascade
Locations 0
Curve2ds 24
1 0 0 1 0 
1 0 0 1 0 
1 200 0 0 -1 
1 0 0 -1.3592227730939137e-17 1 
1 0 -0.91999999999999515 1 0 
1 0 0 1 0 
1 0 0 0 -1 
1 0 0 -1.3592227730939137e-17 1 
1 0 0 1 0 
1 0 0.91999999999999815 1 0 
1 200 0 0 -1 
1 0.91999999999999815 2.3047318417195637e-15 -1.3592227730939137e-17 1 
1 0 -0.91999999999999515 1 0 
1 0 0.91999999999999815 1 0 
1 0 0 0 -1 
1 0.91999999999999815 2.3047318417195637e-15 -1.3592227730939137e-17 1 
1 0 0 0 1 
1 0 0 1 -1.3592227730939137e-17 
1 200 0 0 1 
1 0 0 1 -1.3592227730939137e-17 
1 0 0 0 1 
1 2.5505875338454634e-15 0.91999999999999693 1 -1.3592227730939137e-17 
1 200 0 0 1 
1 2.5505875338454634e-15 0.91999999999999693 1 -1.3592227730939137e-17 
Curves 12
1 -23.124910826911393 44.155654923689404 -100 0 0 1 
1 -23.124910826911393 44.155654923689404 100 -0.51229270450928521 -0.85881091336018911 0 
1 -23.596220115059936 43.365548883398034 -100 0 0 1 
1 -23.124910826911393 44.155654923689404 -100 -0.51229270450928521 -0.85881091336018911 0 
1 -23.915016867202766 44.626964211837944 -100 0 0 1 
1 -23.915016867202766 44.626964211837944 100 -0.51229270450928521 -0.85881091336018911 0 
1 -24.386326155351309 43.836858171546574 -100 0 0 1 
1 -23.915016867202766 44.626964211837944 -100 -0.51229270450928521 -0.85881091336018911 0 
1 -23.124910826911393 44.155654923689404 -100 -0.85881091336018911 0.51229270450928521 0 
1 -23.124910826911393 44.155654923689404 100 -0.85881091336018911 0.51229270450928521 0 
1 -23.596220115059936 43.365548883398034 -100 -0.85881091336018911 0.51229270450928521 0 
1 -23.596220115059936 43.365548883398034 100 -0.85881091336018911 0.51229270450928521 0 
Polygon3D 0
PolygonOnTriangulations 0
Surfaces 6
1 -23.124910826911393 44.155654923689404 -100 -0.85881091336018911 0.51229270450928521 0 0 0 1 0.51229270450928521 0.85881091336018911 0 
1 -23.124910826911393 44.155654923689404 -100 -0.51229270450928521 -0.85881091336018911 0 0 0 1 -0.85881091336018911 0.51229270450928521 0 
1 -23.124910826911393 44.155654923689404 100 0 0 1 -0.85881091336018911 0.51229270450928521 0 -0.51229270450928521 -0.85881091336018911 0 
1 -23.596220115059936 43.365548883398034 -100 -0.51229270450928521 -0.85881091336018911 0 0 0 1 -0.85881091336018911 0.51229270450928521 0 
1 -23.124910826911393 44.155654923689404 -100 0 0 1 -0.85881091336018911 0.51229270450928521 0 -0.51229270450928521 -0.85881091336018911 0 
1 -23.915016867202766 44.626964211837944 -100 -0.85881091336018911 0.51229270450928521 0 0 0 1 0.51229270450928521 0.85881091336018911 0 
Triangulations 0

TShapes 35
Ve
1e-07
-23.1249108269114 44.1556549236894 100
0 0

0101101
*
Ve
1e-07
-23.1249108269114 44.1556549236894 -100
0 0

0101101
*
Ed
 1e-07 1 1 0
1  1 0 0 200
2  1 1 0 0 200
2  2 2 0 0 200
0

0101000
-35 0 +34 0 *
Ve
1e-07
-23.5962201150599 43.365548883398 100
0 0

0101101
*
Ed
 1e-07 1 1 0
1  2 0 0 0.92
2  3 1 0 0 0.92
2  4 3 0 0 0.92
0

0101000
-32 0 +35 0 *
Ve
1e-07
-23.5962201150599 43.365548883398 -100
0 0

0101101
*
Ed
 1e-07 1 1 0
1  3 0 0 200
2  5 1 0 0 200
2  6 4 0 0 200
0

0101000
-32 0 +30 0 *
Ed
 1e-07 1 1 0
1  4 0 0 0.92
2  7 1 0 0 0.92
2  8 5 0 0 0.92
0

0101000
-30 0 +34 0 *
Wi

0101100
-33 0 -31 0 +29 0 +28 0 *
Fa
0  1e-07 1 0

0111000
+27 0 *
Ve
1e-07
-23.9150168672028 44.6269642118379 100
0 0

0101101
*
Ve
1e-07
-23.9150168672028 44.6269642118379 -100
0 0

0101101
*
Ed
 1e-07 1 1 0
1  5 0 0 200
2  9 6 0 0 200
2  10 2 0 0 200
0

0101000
-25 0 +24 0 *
Ve
1e-07
-24.3863261553513 43.8368581715466 100
0 0

0101101
*
Ed
 1e-07 1 1 0
1  6 0 0 0.92
2  11 6 0 0 0.92
2  12 3 0 0 0.92
0

0101000
-22 0 +25 0 *
Ve
1e-07
-24.3863261553513 43.8368581715466 -100
0 0

0101101
*
Ed
 1e-07 1 1 0
1  7 0 0 200
2  13 6 0 0 200
2  14 4 0 0 200
0

0101000
-22 0 +20 0 *
Ed
 1e-07 1 1 0
1  8 0 0 0.92
2  15 6 0 0 0.92
2  16 5 0 0 0.92
0

0101000
-20 0 +24 0 *
Wi

0101100
-23 0 -21 0 +19 0 +18 0 *
Fa
0  1e-07 6 0

0111000
+17 0 *
Ed
 1e-07 1 1 0
1  9 0 0 0.92
2  17 2 0 0 0.92
2  18 5 0 0 0.92
0

0101000
-24 0 +34 0 *
Ed
 1e-07 1 1 0
1  10 0 0 0.92
2  19 2 0 0 0.92
2  20 3 0 0 0.92
0

0101000
-25 0 +35 0 *
Wi

0101100
-15 0 -23 0 +14 0 +33 0 *
Fa
0  1e-07 2 0

0111000
+13 0 *
Ed
 1e-07 1 1 0
1  11 0 0 0.92
2  21 4 0 0 0.92
2  22 5 0 0 0.92
0

0101000
-20 0 +30 0 *
Ed
 1e-07 1 1 0
1  12 0 0 0.92
2  23 4 0 0 0.92
2  24 3 0 0 0.92
0

0101000
-22 0 +32 0 *
Wi

0101100
-11 0 -19 0 +10 0 +29 0 *
Fa
0  1e-07 4 0

0111000
+9 0 *
Wi

0101100
-28 0 -11 0 +18 0 +15 0 *
Fa
0  1e-07 5 0

0111000
+7 0 *
Wi

0101100
-31 0 -10 0 +21 0 +14 0 *
Fa
0  1e-07 3 0

0111000
+5 0 *
Sh

0101100
-26 0 +16 0 -12 0 +8 0 -6 0 +4 0 *
So

0100000
+3 0 *
Co

1100000
+2 0 *

+1 0 