DBRep_DrawableShape

CASCADE Topology V3, (c) Open Cascade
Locations 0
Curve2ds 24
1 0 0 1 0
1 0 0 1 0
1 200 0 0 -1
1 0 0 1.4148461095455566e-18 1
1 0 -0.88000000000000411 1 0
1 0 0 1 0
1 0 0 0 -1
1 0 0 1.4148461095455566e-18 1
1 0 0 1 0
1 0 0.88000000000000111 1 0
1 200 0 0 -1
1 0.88000000000000111 7.9285747426555441e-16 1.4148461095455566e-18 1
1 0 -0.88000000000000411 1 0
1 0 0.88000000000000111 1 0
1 0 0 0 -1
1 0.88000000000000111 7.9285747426555441e-16 1.4148461095455566e-18 1
1 0 0 0 1
1 0 0 1 1.4148461095455566e-18
1 200 0 0 1
1 0 0 1 1.4148461095455566e-18
1 0 0 0 1
1 4.1228901992690819e-15 0.88000000000000222 1 1.4148461095455566e-18
1 200 0 0 1
1 4.1228901992690819e-15 0.88000000000000222 1 1.4148461095455566e-18
Curves 12
1 -20.866690531529066 -46.106149477843367 -100 0 0 1
1 -20.866690531529066 -46.106149477843367 100 -0.54097447136799381 0.84103901296439254 0
1 -21.342748066332899 -45.366035146434697 -100 0 0 1
1 -20.866690531529066 -46.106149477843367 -100 -0.54097447136799381 0.84103901296439254 0
1 -20.1265762001204 -45.630091943039531 -100 0 0 1
1 -20.1265762001204 -45.630091943039531 100 -0.54097447136799381 0.84103901296439254 0
1 -20.602633734924233 -44.889977611630862 -100 0 0 1
1 -20.1265762001204 -45.630091943039531 -100 -0.54097447136799381 0.84103901296439254 0
1 -20.866690531529066 -46.106149477843367 -100 0.84103901296439254 0.54097447136799381 0
1 -20.866690531529066 -46.106149477843367 100 0.84103901296439254 0.54097447136799381 0
1 -21.342748066332899 -45.366035146434697 -100 0.84103901296439254 0.54097447136799381 0
1 -21.342748066332899 -45.366035146434697 100 0.84103901296439254 0.54097447136799381 0
Polygon3D 0
PolygonOnTriangulations 0
Surfaces 6
1 -20.866690531529066 -46.106149477843367 -100 0.84103901296439254 0.54097447136799381 0 0 0 1 0.54097447136799381 -0.84103901296439254 0
1 -20.866690531529066 -46.106149477843367 -100 -0.54097447136799381 0.84103901296439254 0 0 0 1 0.84103901296439254 0.54097447136799381 0
1 -20.866690531529066 -46.106149477843367 100 0 0 1 0.84103901296439254 0.54097447136799381 0 -0.54097447136799381 0.84103901296439254 0
1 -21.342748066332899 -45.366035146434697 -100 -0.54097447136799381 0.84103901296439254 0 0 0 1 0.84103901296439254 0.54097447136799381 0
1 -20.866690531529066 -46.106149477843367 -100 0 0 1 0.84103901296439254 0.54097447136799381 0 -0.54097447136799381 0.84103901296439254 0
1 -20.1265762001204 -45.630091943039531 -100 0.84103901296439254 0.54097447136799381 0 0 0 1 0.54097447136799381 -0.84103901296439254 0
Triangulations 0

TShapes 35
Ve
1e-07
-20.8666905315291 -46.1061494778434 100
0 0

0101101
*
Ve
1e-07
-20.8666905315291 -46.1061494778434 -100
0 0

0101101
*
Ed
 1e-07 1 1 0
1  1 0 0 200
2  1 1 0 0 200
2  2 2 0 0 200
0

0101000
-35 0 +34 0 *
Ve
1e-07
-21.3427480663329 -45.3660351464347 100
0 0

0101101
*
Ed
 1e-07 1 1 0
1  2 0 0 0.88
2  3 1 0 0 0.88
2  4 3 0 0 0.88
0

0101000
-32 0 +35 0 *
Ve
1e-07
-21.3427480663329 -45.3660351464347 -100
0 0

0101101
*
Ed
 1e-07 1 1 0
1  3 0 0 200
2  5 1 0 0 200
2  6 4 0 0 200
0

0101000
-32 0 +30 0 *
Ed
 1e-07 1 1 0
1  4 0 0 0.88
2  7 1 0 0 0.88
2  8 5 0 0 0.88
0

0101000
-30 0 +34 0 *
Wi

0101100
-33 0 -31 0 +29 0 +28 0 *
Fa
0  1e-07 1 0

0111000
+27 0 *
Ve
1e-07
-20.1265762001204 -45.6300919430395 100
0 0

0101101
*
Ve
1e-07
-20.1265762001204 -45.6300919430395 -100
0 0

0101101
*
Ed
 1e-07 1 1 0
1  5 0 0 200
2  9 6 0 0 200
2  10 2 0 0 200
0

0101000
-25 0 +24 0 *
Ve
1e-07
-20.6026337349242 -44.8899776116309 100
0 0

0101101
*
Ed
 1e-07 1 1 0
1  6 0 0 0.88
2  11 6 0 0 0.88
2  12 3 0 0 0.88
0

0101000
-22 0 +25 0 *
Ve
1e-07
-20.6026337349242 -44.8899776116309 -100
0 0

0101101
*
Ed
 1e-07 1 1 0
1  7 0 0 200
2  13 6 0 0 200
2  14 4 0 0 200
0

0101000
-22 0 +20 0 *
Ed
 1e-07 1 1 0
1  8 0 0 0.88
2  15 6 0 0 0.88
2  16 5 0 0 0.88
0

0101000
-20 0 +24 0 *
Wi

0101100
-23 0 -21 0 +19 0 +18 0 *
Fa
0  1e-07 6 0

0111000
+17 0 *
Ed
 1e-07 1 1 0
1  9 0 0 0.88
2  17 2 0 0 0.88
2  18 5 0 0 0.88
0

0101000
-24 0 +34 0 *
Ed
 1e-07 1 1 0
1  10 0 0 0.88
2  19 2 0 0 0.88
2  20 3 0 0 0.88
0

0101000
-25 0 +35 0 *
Wi

0101100
-15 0 -23 0 +14 0 +33 0 *
Fa
0  1e-07 2 0

0111000
+13 0 *
Ed
 1e-07 1 1 0
1  11 0 0 0.88
2  21 4 0 0 0.88
2  22 5 0 0 0.88
0

0101000
-20 0 +30 0 *
Ed
 1e-07 1 1 0
1  12 0 0 0.88
2  23 4 0 0 0.88
2  24 3 0 0 0.88
0

0101000
-22 0 +32 0 *
Wi

0101100
-11 0 -19 0 +10 0 +29 0 *
Fa
0  1e-07 4 0

0111000
+9 0 *
Wi

0101100
-28 0 -11 0 +18 0 +15 0 *
Fa
0  1e-07 5 0

0111000
+7 0 *
Wi

0101100
-31 0 -10 0 +21 0 +14 0 *
Fa
0  1e-07 3 0

0111000
+5 0 *
Sh

0101100
-26 0 +16 0 -12 0 +8 0 -6 0 +4 0 *
So

0100000
+3 0 *
Co

1100000
+2 0 *

+1 0
