DBRep_DrawableShape

CASCADE Topology V3, (c) Open Cascade
Locations 0
Curve2ds 24
1 0 0 1 0 
1 0 0 1 0 
1 200 0 0 -1 
1 0 0 -6.1109796155380728e-18 1 
1 0 -0.91999999999999982 1 0 
1 0 0 1 0 
1 0 0 0 -1 
1 0 0 -6.1109796155380728e-18 1 
1 0 0 1 0 
1 0 0.91999999999999993 1 0 
1 200 0 0 -1 
1 0.91999999999999993 -2.0207095037607797e-16 -6.1109796155380728e-18 1 
1 0 -0.91999999999999982 1 0 
1 0 0.91999999999999993 1 0 
1 0 0 0 -1 
1 0.91999999999999993 -2.0207095037607797e-16 -6.1109796155380728e-18 1 
1 0 0 0 1 
1 0 0 1 -6.1109796155380728e-18 
1 200 0 0 1 
1 0 0 1 -6.1109796155380728e-18 
1 0 0 0 1 
1 2.4065744193837868e-16 0.91999999999999982 1 -6.1109796155380728e-18 
1 200 0 0 1 
1 2.4065744193837868e-16 0.91999999999999982 1 -6.1109796155380728e-18 
Curves 12
1 -18.747747836958197 46.485809553755388 -100 0 0 1 
1 -18.747747836958197 46.485809553755388 100 0.56472696373825326 0.82527780560667785 0 
1 -18.228199030319004 47.245065134913531 -100 0 0 1 
1 -18.747747836958197 46.485809553755388 -100 0.56472696373825326 0.82527780560667785 0 
1 -17.988492255800054 45.966260747116195 -100 0 0 1 
1 -17.988492255800054 45.966260747116195 100 0.56472696373825326 0.82527780560667785 0 
1 -17.468943449160861 46.725516328274338 -100 0 0 1 
1 -17.988492255800054 45.966260747116195 -100 0.56472696373825326 0.82527780560667785 0 
1 -18.747747836958197 46.485809553755388 -100 0.82527780560667785 -0.56472696373825326 0 
1 -18.747747836958197 46.485809553755388 100 0.82527780560667785 -0.56472696373825326 0 
1 -18.228199030319004 47.245065134913531 -100 0.82527780560667785 -0.56472696373825326 0 
1 -18.228199030319004 47.245065134913531 100 0.82527780560667785 -0.56472696373825326 0 
Polygon3D 0
PolygonOnTriangulations 0
Surfaces 6
1 -18.747747836958197 46.485809553755388 -100 0.82527780560667785 -0.56472696373825326 0 0 0 1 -0.56472696373825326 -0.82527780560667785 0 
1 -18.747747836958197 46.485809553755388 -100 0.56472696373825326 0.82527780560667785 0 0 0 1 0.82527780560667785 -0.56472696373825326 0 
1 -18.747747836958197 46.485809553755388 100 0 0 1 0.82527780560667785 -0.56472696373825326 0 0.56472696373825326 0.82527780560667785 0 
1 -18.228199030319004 47.245065134913531 -100 0.56472696373825326 0.82527780560667785 0 0 0 1 0.82527780560667785 -0.56472696373825326 0 
1 -18.747747836958197 46.485809553755388 -100 0 0 1 0.82527780560667785 -0.56472696373825326 0 0.56472696373825326 0.82527780560667785 0 
1 -17.988492255800054 45.966260747116195 -100 0.82527780560667785 -0.56472696373825326 0 0 0 1 -0.56472696373825326 -0.82527780560667785 0 
Triangulations 0

TShapes 35
Ve
1e-07
-18.7477478369582 46.4858095537554 100
0 0

0101101
*
Ve
1e-07
-18.7477478369582 46.4858095537554 -100
0 0

0101101
*
Ed
 1e-07 1 1 0
1  1 0 0 200
2  1 1 0 0 200
2  2 2 0 0 200
0

0101000
-35 0 +34 0 *
Ve
1e-07
-18.228199030319 47.2450651349135 100
0 0

0101101
*
Ed
 1e-07 1 1 0
1  2 0 0 0.92
2  3 1 0 0 0.92
2  4 3 0 0 0.92
0

0101000
-32 0 +35 0 *
Ve
1e-07
-18.228199030319 47.2450651349135 -100
0 0

0101101
*
Ed
 1e-07 1 1 0
1  3 0 0 200
2  5 1 0 0 200
2  6 4 0 0 200
0

0101000
-32 0 +30 0 *
Ed
 1e-07 1 1 0
1  4 0 0 0.92
2  7 1 0 0 0.92
2  8 5 0 0 0.92
0

0101000
-30 0 +34 0 *
Wi

0101100
-33 0 -31 0 +29 0 +28 0 *
Fa
0  1e-07 1 0

0111000
+27 0 *
Ve
1e-07
-17.9884922558001 45.9662607471162 100
0 0

0101101
*
Ve
1e-07
-17.9884922558001 45.9662607471162 -100
0 0

0101101
*
Ed
 1e-07 1 1 0
1  5 0 0 200
2  9 6 0 0 200
2  10 2 0 0 200
0

0101000
-25 0 +24 0 *
Ve
1e-07
-17.4689434491609 46.7255163282743 100
0 0

0101101
*
Ed
 1e-07 1 1 0
1  6 0 0 0.92
2  11 6 0 0 0.92
2  12 3 0 0 0.92
0

0101000
-22 0 +25 0 *
Ve
1e-07
-17.4689434491609 46.7255163282743 -100
0 0

0101101
*
Ed
 1e-07 1 1 0
1  7 0 0 200
2  13 6 0 0 200
2  14 4 0 0 200
0

0101000
-22 0 +20 0 *
Ed
 1e-07 1 1 0
1  8 0 0 0.92
2  15 6 0 0 0.92
2  16 5 0 0 0.92
0

0101000
-20 0 +24 0 *
Wi

0101100
-23 0 -21 0 +19 0 +18 0 *
Fa
0  1e-07 6 0

0111000
+17 0 *
Ed
 1e-07 1 1 0
1  9 0 0 0.92
2  17 2 0 0 0.92
2  18 5 0 0 0.92
0

0101000
-24 0 +34 0 *
Ed
 1e-07 1 1 0
1  10 0 0 0.92
2  19 2 0 0 0.92
2  20 3 0 0 0.92
0

0101000
-25 0 +35 0 *
Wi

0101100
-15 0 -23 0 +14 0 +33 0 *
Fa
0  1e-07 2 0

0111000
+13 0 *
Ed
 1e-07 1 1 0
1  11 0 0 0.92
2  21 4 0 0 0.92
2  22 5 0 0 0.92
0

0101000
-20 0 +30 0 *
Ed
 1e-07 1 1 0
1  12 0 0 0.92
2  23 4 0 0 0.92
2  24 3 0 0 0.92
0

0101000
-22 0 +32 0 *
Wi

0101100
-11 0 -19 0 +10 0 +29 0 *
Fa
0  1e-07 4 0

0111000
+9 0 *
Wi

0101100
-28 0 -11 0 +18 0 +15 0 *
Fa
0  1e-07 5 0

0111000
+7 0 *
Wi

0101100
-31 0 -10 0 +21 0 +14 0 *
Fa
0  1e-07 3 0

0111000
+5 0 *
Sh

0101100
-26 0 +16 0 -12 0 +8 0 -6 0 +4 0 *
So

0100000
+3 0 *
Co

1100000
+2 0 *

+1 0 