DBRep_DrawableShape

CASCADE Topology V3, (c) Open Cascade
Locations 0
Curve2ds 24
1 0 0 1 0 
1 0 0 1 0 
1 200 0 0 -1 
1 0 0 -1.9861110912367225e-17 1 
1 0 -1.0000000000000049 1 0 
1 0 0 1 0 
1 0 0 0 -1 
1 0 0 -1.9861110912367225e-17 1 
1 0 0 1 0 
1 0 0.99999999999999867 1 0 
1 200 0 0 -1 
1 0.99999999999999867 -2.8300488866942868e-16 -1.9861110912367225e-17 1 
1 0 -1.0000000000000049 1 0 
1 0 0.99999999999999867 1 0 
1 0 0 0 -1 
1 0.99999999999999867 -2.8300488866942868e-16 -1.9861110912367225e-17 1 
1 0 0 0 1 
1 0 0 1 -1.9861110912367225e-17 
1 200 0 0 1 
1 0 0 1 -1.9861110912367225e-17 
1 0 0 0 1 
1 2.3555598315964494e-15 1.0000000000000038 1 -1.9861110912367225e-17 
1 200 0 0 1 
1 2.3555598315964494e-15 1.0000000000000038 1 -1.9861110912367225e-17 
Curves 12
1 -8.8198019736840543 -48.500331808269593 -100 0 0 1 
1 -8.8198019736840543 -48.500331808269593 100 0.64122644513710836 -0.76735170948974041 0 
1 -8.1785755285469453 -49.267683517759338 -100 0 0 1 
1 -8.8198019736840543 -48.500331808269593 -100 0.64122644513710836 -0.76735170948974041 0 
1 -9.5871536831737938 -49.1415582534067 -100 0 0 1 
1 -9.5871536831737938 -49.1415582534067 100 0.64122644513710836 -0.76735170948974041 0 
1 -8.9459272380366848 -49.908909962896445 -100 0 0 1 
1 -9.5871536831737938 -49.1415582534067 -100 0.64122644513710836 -0.76735170948974041 0 
1 -8.8198019736840543 -48.500331808269593 -100 -0.76735170948974041 -0.64122644513710836 0 
1 -8.8198019736840543 -48.500331808269593 100 -0.76735170948974041 -0.64122644513710836 0 
1 -8.1785755285469453 -49.267683517759338 -100 -0.76735170948974041 -0.64122644513710836 0 
1 -8.1785755285469453 -49.267683517759338 100 -0.76735170948974041 -0.64122644513710836 0 
Polygon3D 0
PolygonOnTriangulations 0
Surfaces 6
1 -8.8198019736840543 -48.500331808269593 -100 -0.76735170948974041 -0.64122644513710836 0 0 0 1 -0.64122644513710836 0.76735170948974041 0 
1 -8.8198019736840543 -48.500331808269593 -100 0.64122644513710836 -0.76735170948974041 0 0 0 1 -0.76735170948974041 -0.64122644513710836 0 
1 -8.8198019736840543 -48.500331808269593 100 0 0 1 -0.76735170948974041 -0.64122644513710836 0 0.64122644513710836 -0.76735170948974041 0 
1 -8.1785755285469453 -49.267683517759338 -100 0.64122644513710836 -0.76735170948974041 0 0 0 1 -0.76735170948974041 -0.64122644513710836 0 
1 -8.8198019736840543 -48.500331808269593 -100 0 0 1 -0.76735170948974041 -0.64122644513710836 0 0.64122644513710836 -0.76735170948974041 0 
1 -9.5871536831737938 -49.1415582534067 -100 -0.76735170948974041 -0.64122644513710836 0 0 0 1 -0.64122644513710836 0.76735170948974041 0 
Triangulations 0

TShapes 35
Ve
1e-07
-8.81980197368405 -48.5003318082696 100
0 0

0101101
*
Ve
1e-07
-8.81980197368405 -48.5003318082696 -100
0 0

0101101
*
Ed
 1e-07 1 1 0
1  1 0 0 200
2  1 1 0 0 200
2  2 2 0 0 200
0

0101000
-35 0 +34 0 *
Ve
1e-07
-8.17857552854695 -49.2676835177593 100
0 0

0101101
*
Ed
 1e-07 1 1 0
1  2 0 0 1
2  3 1 0 0 1
2  4 3 0 0 1
0

0101000
-32 0 +35 0 *
Ve
1e-07
-8.17857552854695 -49.2676835177593 -100
0 0

0101101
*
Ed
 1e-07 1 1 0
1  3 0 0 200
2  5 1 0 0 200
2  6 4 0 0 200
0

0101000
-32 0 +30 0 *
Ed
 1e-07 1 1 0
1  4 0 0 1
2  7 1 0 0 1
2  8 5 0 0 1
0

0101000
-30 0 +34 0 *
Wi

0101100
-33 0 -31 0 +29 0 +28 0 *
Fa
0  1e-07 1 0

0111000
+27 0 *
Ve
1e-07
-9.58715368317379 -49.1415582534067 100
0 0

0101101
*
Ve
1e-07
-9.58715368317379 -49.1415582534067 -100
0 0

0101101
*
Ed
 1e-07 1 1 0
1  5 0 0 200
2  9 6 0 0 200
2  10 2 0 0 200
0

0101000
-25 0 +24 0 *
Ve
1e-07
-8.94592723803668 -49.9089099628964 100
0 0

0101101
*
Ed
 1e-07 1 1 0
1  6 0 0 1
2  11 6 0 0 1
2  12 3 0 0 1
0

0101000
-22 0 +25 0 *
Ve
1e-07
-8.94592723803668 -49.9089099628964 -100
0 0

0101101
*
Ed
 1e-07 1 1 0
1  7 0 0 200
2  13 6 0 0 200
2  14 4 0 0 200
0

0101000
-22 0 +20 0 *
Ed
 1e-07 1 1 0
1  8 0 0 1
2  15 6 0 0 1
2  16 5 0 0 1
0

0101000
-20 0 +24 0 *
Wi

0101100
-23 0 -21 0 +19 0 +18 0 *
Fa
0  1e-07 6 0

0111000
+17 0 *
Ed
 1e-07 1 1 0
1  9 0 0 1
2  17 2 0 0 1
2  18 5 0 0 1
0

0101000
-24 0 +34 0 *
Ed
 1e-07 1 1 0
1  10 0 0 1
2  19 2 0 0 1
2  20 3 0 0 1
0

0101000
-25 0 +35 0 *
Wi

0101100
-15 0 -23 0 +14 0 +33 0 *
Fa
0  1e-07 2 0

0111000
+13 0 *
Ed
 1e-07 1 1 0
1  11 0 0 1
2  21 4 0 0 1
2  22 5 0 0 1
0

0101000
-20 0 +30 0 *
Ed
 1e-07 1 1 0
1  12 0 0 1
2  23 4 0 0 1
2  24 3 0 0 1
0

0101000
-22 0 +32 0 *
Wi

0101100
-11 0 -19 0 +10 0 +29 0 *
Fa
0  1e-07 4 0

0111000
+9 0 *
Wi

0101100
-28 0 -11 0 +18 0 +15 0 *
Fa
0  1e-07 5 0

0111000
+7 0 *
Wi

0101100
-31 0 -10 0 +21 0 +14 0 *
Fa
0  1e-07 3 0

0111000
+5 0 *
Sh

0101100
-26 0 +16 0 -12 0 +8 0 -6 0 +4 0 *
So

0100000
+3 0 *
Co

1100000
+2 0 *

+1 0 