DBRep_DrawableShape

CASCADE Topology V3, (c) Open Cascade
Locations 2
1
              1               0               0               0 
              0               1               0               0 
              0               0               1            -0.1 
2  1 -1 0
Curve2ds 24
1 0 1.5 1 0 
2 0 0 1 -3.2393920879600547e-18 3.2393920879600547e-18 1 50.710000000999997
1 6.2831853071795862 -0 0 1 
1 0 -0 0 1 
1 0 0 1 0 
2 0 0 1 -3.2393920879600547e-18 3.2393920879600547e-18 1 50.710000000999997
1 0 1.5 1 0 
2 0 0 1 -3.2393920879600547e-18 3.2393920879600547e-18 1 49.290000000999996
1 0 0.050000000000000044 1 0 
2 0 0 1 -3.2393920879600547e-18 3.2393920879600547e-18 1 50.510000001999991
1 6.2831853071795862 -0 0 1 
1 0 -0 0 1 
1 0 0 1 0 
2 0 0 1 -3.2393920879600547e-18 3.2393920879600547e-18 1 49.290000000999996
1 6.2831853071795862 -0 0 1 
1 0 -0 0 1 
1 0 1.4000000000000001 1 0 
2 0 0 1 -3.2393920879600547e-18 3.2393920879600547e-18 1 50.510000001999991
1 0 0.050000000000000044 1 0 
2 0 0 1 -3.2393920879600547e-18 3.2393920879600547e-18 1 49.490000000000002
1 0 1.4000000000000001 1 0 
2 0 0 1 -3.2393920879600547e-18 3.2393920879600547e-18 1 49.490000000000002
1 6.2831853071795862 -0 0 1 
1 0 -0 0 1 
Curves 12
2 0 0 -99.700000000999992 0 -0 1 0.99452189536827329 0.10452846326765391 0 -0.10452846326765391 0.99452189536827329 0 50.710000000999997
1 50.43220531511966 5.3006383724072457 -101.20000000099999 0 0 1 
2 0 0 -101.20000000099999 0 -0 1 0.99452189536827329 0.10452846326765391 0 -0.10452846326765391 0.99452189536827329 0 50.710000000999997
2 0 0 -99.700000000999992 0 -0 1 0.99452189536827329 0.10452846326765391 0 -0.10452846326765391 0.99452189536827329 0 49.290000000999996
2 0 0 -101.20000000099999 0 -0 1 0.99452189536827329 0.10452846326765391 0 -0.10452846326765391 0.99452189536827329 0 50.510000001999991
1 49.01998422369671 5.1522079545671771 -101.20000000099999 0 0 1 
2 0 0 -101.20000000099999 0 -0 1 0.99452189536827329 0.10452846326765391 0 -0.10452846326765391 0.99452189536827329 0 49.290000000999996
1 50.233300937040518 5.2797326798582427 -101.150000001 0 0 1 
2 0 0 -99.750000000999989 0 -0 1 0.99452189536827329 0.10452846326765391 0 -0.10452846326765391 0.99452189536827329 0 50.510000001999991
2 0 0 -101.20000000099999 0 -0 1 0.99452189536827329 0.10452846326765391 0 -0.10452846326765391 0.99452189536827329 0 49.490000000000002
2 0 0 -99.750000000999989 0 -0 1 0.99452189536827329 0.10452846326765391 0 -0.10452846326765391 0.99452189536827329 0 49.490000000000002
1 49.218888601775845 5.17311364711618 -101.150000001 0 0 1 
Polygon3D 0
PolygonOnTriangulations 0
Surfaces 8
2 0 0 -101.20000000099999 0 0 1 0.99452189536827329 0.10452846326765391 0 -0.10452846326765391 0.99452189536827329 0 50.710000000999997
1 0 0 -99.700000000999992 0 0 1 0.99452189536827329 0.10452846326765391 0 -0.10452846326765391 0.99452189536827329 0 
1 0 0 -101.20000000099999 0 0 1 0.99452189536827329 0.10452846326765391 0 -0.10452846326765391 0.99452189536827329 0 
2 0 0 -101.20000000099999 0 0 1 0.99452189536827329 0.10452846326765391 0 -0.10452846326765391 0.99452189536827329 0 49.290000000999996
2 0 0 -101.150000001 0 0 1 0.99452189536827329 0.10452846326765391 0 -0.10452846326765391 0.99452189536827329 0 50.510000001999991
1 0 0 -101.20000000099999 0 0 1 0.99452189536827329 0.10452846326765391 0 -0.10452846326765391 0.99452189536827329 0 
1 0 0 -99.750000000999989 0 0 1 0.99452189536827329 0.10452846326765391 0 -0.10452846326765391 0.99452189536827329 0 
2 0 0 -101.150000001 0 0 1 0.99452189536827329 0.10452846326765391 0 -0.10452846326765391 0.99452189536827329 0 49.490000000000002
Triangulations 0

TShapes 43
Ve
1e-07
50.4322053151197 5.30063837240725 -99.700000001
0 0

0101101
*
Ed
 1e-07 1 1 0
1  1 0 0 6.28318530717959
2  1 1 0 0 6.28318530717959
2  2 2 0 0 6.28318530717959
0

0101000
+43 0 -43 0 *
Ve
1e-07
50.4322053151197 5.30063837240725 -101.200000001
0 0

0101101
*
Ed
 1e-07 1 1 0
1  2 0 0 1.5
3  3 4CN 1 0 0 1.5
0

0101000
-43 0 +41 0 *
Ed
 1e-07 1 1 0
1  3 0 0 6.28318530717959
2  5 1 0 0 6.28318530717959
2  6 3 0 0 6.28318530717959
0

0101000
+41 0 -41 0 *
Wi

0101100
-42 0 +40 0 +39 0 -40 0 *
Fa
0  1e-07 1 0

0111000
+38 0 *
Wi

0101100
+42 0 *
Ve
1e-07
49.0199842236967 5.15220795456718 -99.700000001
0 0

0101101
*
Ed
 1e-07 1 1 0
1  4 0 0 6.28318530717959
2  7 4 0 0 6.28318530717959
2  8 2 0 0 6.28318530717959
0

0101000
+35 0 -35 0 *
Wi

0101100
-34 0 *
Fa
0  1e-07 2 0

0101000
+36 0 +33 0 *
Wi

0101100
+39 0 *
Ve
1.00000012371382e-07
50.2333009370405 5.27973267985824 -101.200000001
0 0

0101101
*
Ed
 1e-07 1 1 0
1  5 0 0 6.28318530717959
2  9 5 1 0 6.28318530717959
2  10 3 0 0 6.28318530717959
0

0101100
+30 0 -30 0 *
Wi

0101100
-29 0 *
Fa
0  1e-07 3 0

0101000
+31 0 +28 0 *
Ve
1e-07
49.0199842236967 5.15220795456718 -101.200000001
0 0

0101101
*
Ed
 1e-07 1 1 0
1  6 0 0 1.5
3  11 12CN 4 0 0 1.5
0

0101000
-35 0 +26 0 *
Ed
 1e-07 1 1 0
1  7 0 0 6.28318530717959
2  13 4 0 0 6.28318530717959
2  14 6 0 0 6.28318530717959
0

0101000
+26 0 -26 0 *
Wi

0101100
-34 0 +25 0 +24 0 -25 0 *
Fa
0  1e-07 4 0

0111000
+23 0 *
Ve
1e-07
50.2333009370405 5.27973267985824 -99.850000001
0 0

0101101
*
Ed
 1e-07 1 1 0
1  8 0 0.05 1.4
3  15 16CN 5 0 0.05 1.4
0

0101000
+30 2 -21 2 *
Ed
 1e-07 1 1 0
1  9 0 0 6.28318530717959
2  17 5 0 0 6.28318530717959
2  18 7 0 0 6.28318530717959
0

0101000
+21 2 -21 2 *
Wi

0101100
+20 1 +29 0 -20 1 -19 1 *
Fa
0  1e-07 5 1

0101000
+18 0 *
Ve
1.00000012121554e-07
49.2188886017758 5.17311364711618 -101.200000001
0 0

0101101
*
Ed
 1e-07 1 1 0
1  10 0 0 6.28318530717959
2  19 8 1 0 6.28318530717959
2  20 6 0 0 6.28318530717959
0

0101100
+16 0 -16 0 *
Wi

0101100
+15 0 *
Wi

0101100
-24 0 *
Fa
0  1e-07 6 0

0101000
+14 0 +13 0 *
Wi

0101100
+19 0 *
Ve
1e-07
49.2188886017758 5.17311364711618 -99.850000001
0 0

0101101
*
Ed
 1e-07 1 1 0
1  11 0 0 6.28318530717959
2  21 8 0 0 6.28318530717959
2  22 7 0 0 6.28318530717959
0

0101000
+10 2 -10 2 *
Wi

0101100
-9 0 *
Fa
0  1e-07 7 0

0101000
+11 0 +8 0 *
Ed
 1e-07 1 1 0
1  12 0 0.05 1.4
3  23 24CN 8 0 0.05 1.4
0

0101000
+16 2 -10 2 *
Wi

0101100
+6 1 +15 0 -6 1 -9 1 *
Fa
0  1e-07 8 1

0101000
+5 0 *
Sh

0101100
+37 0 +32 0 -27 0 -22 0 -17 0 -12 0 -7 1 +4 0 *
So

0100000
+3 0 *
Co

1100000
+2 0 *

+1 0 