DBRep_DrawableShape

CASCADE Topology V3, (c) Open Cascade
Locations 0
Curve2ds 24
1 0 0 1 0 
1 0 0 1 0 
1 200 0 0 -1 
1 0 0 -6.1874829170674746e-19 1 
1 0 -1.000299999999998 1 0 
1 0 0 1 0 
1 0 0 0 -1 
1 0 0 -6.1874829170674746e-19 1 
1 0 0 1 0 
1 0 1.0002999999999977 1 0 
1 200 0 0 -1 
1 1.0002999999999977 -1.1972080015582542e-15 -6.1874829170674746e-19 1 
1 0 -1.000299999999998 1 0 
1 0 1.0002999999999977 1 0 
1 0 0 0 -1 
1 1.0002999999999977 -1.1972080015582542e-15 -6.1874829170674746e-19 1 
1 0 0 0 1 
1 0 0 1 -6.1874829170674746e-19 
1 200 0 0 1 
1 0 0 1 -6.1874829170674746e-19 
1 0 0 0 1 
1 1.1856869071385825e-15 1.000299999999998 1 -6.1874829170674746e-19 
1 200 0 0 1 
1 1.1856869071385825e-15 1.000299999999998 1 -6.1874829170674746e-19 
Curves 12
1 43.002635685120673 24.809722193131478 -100 0 0 1 
1 43.002635685120673 24.809722193131478 100 0.96753785824682659 0.25272612223342439 0 
1 43.970463804724972 25.06252413320157 -100 0 0 1 
1 43.002635685120673 24.809722193131478 -100 0.96753785824682659 0.25272612223342439 0 
1 43.255437625190766 23.841894073527179 -100 0 0 1 
1 43.255437625190766 23.841894073527179 100 0.96753785824682659 0.25272612223342439 0 
1 44.223265744795064 24.094696013597272 -100 0 0 1 
1 43.255437625190766 23.841894073527179 -100 0.96753785824682659 0.25272612223342439 0 
1 43.002635685120673 24.809722193131478 -100 0.25272612223342439 -0.96753785824682659 0 
1 43.002635685120673 24.809722193131478 100 0.25272612223342439 -0.96753785824682659 0 
1 43.970463804724972 25.06252413320157 -100 0.25272612223342439 -0.96753785824682659 0 
1 43.970463804724972 25.06252413320157 100 0.25272612223342439 -0.96753785824682659 0 
Polygon3D 0
PolygonOnTriangulations 0
Surfaces 6
1 43.002635685120673 24.809722193131478 -100 0.25272612223342439 -0.96753785824682659 0 0 0 1 -0.96753785824682659 -0.25272612223342439 0 
1 43.002635685120673 24.809722193131478 -100 0.96753785824682659 0.25272612223342439 0 0 0 1 0.25272612223342439 -0.96753785824682659 0 
1 43.002635685120673 24.809722193131478 100 0 0 1 0.25272612223342439 -0.96753785824682659 0 0.96753785824682659 0.25272612223342439 0 
1 43.970463804724972 25.06252413320157 -100 0.96753785824682659 0.25272612223342439 0 0 0 1 0.25272612223342439 -0.96753785824682659 0 
1 43.002635685120673 24.809722193131478 -100 0 0 1 0.25272612223342439 -0.96753785824682659 0 0.96753785824682659 0.25272612223342439 0 
1 43.255437625190766 23.841894073527179 -100 0.25272612223342439 -0.96753785824682659 0 0 0 1 -0.96753785824682659 -0.25272612223342439 0 
Triangulations 0

TShapes 35
Ve
1e-07
43.0026356851207 24.8097221931315 100
0 0

0101101
*
Ve
1e-07
43.0026356851207 24.8097221931315 -100
0 0

0101101
*
Ed
 1e-07 1 1 0
1  1 0 0 200
2  1 1 0 0 200
2  2 2 0 0 200
0

0101000
-35 0 +34 0 *
Ve
1e-07
43.970463804725 25.0625241332016 100
0 0

0101101
*
Ed
 1e-07 1 1 0
1  2 0 0 1.0003
2  3 1 0 0 1.0003
2  4 3 0 0 1.0003
0

0101000
-32 0 +35 0 *
Ve
1e-07
43.970463804725 25.0625241332016 -100
0 0

0101101
*
Ed
 1e-07 1 1 0
1  3 0 0 200
2  5 1 0 0 200
2  6 4 0 0 200
0

0101000
-32 0 +30 0 *
Ed
 1e-07 1 1 0
1  4 0 0 1.0003
2  7 1 0 0 1.0003
2  8 5 0 0 1.0003
0

0101000
-30 0 +34 0 *
Wi

0101100
-33 0 -31 0 +29 0 +28 0 *
Fa
0  1e-07 1 0

0111000
+27 0 *
Ve
1e-07
43.2554376251908 23.8418940735272 100
0 0

0101101
*
Ve
1e-07
43.2554376251908 23.8418940735272 -100
0 0

0101101
*
Ed
 1e-07 1 1 0
1  5 0 0 200
2  9 6 0 0 200
2  10 2 0 0 200
0

0101000
-25 0 +24 0 *
Ve
1e-07
44.2232657447951 24.0946960135973 100
0 0

0101101
*
Ed
 1e-07 1 1 0
1  6 0 0 1.0003
2  11 6 0 0 1.0003
2  12 3 0 0 1.0003
0

0101000
-22 0 +25 0 *
Ve
1e-07
44.2232657447951 24.0946960135973 -100
0 0

0101101
*
Ed
 1e-07 1 1 0
1  7 0 0 200
2  13 6 0 0 200
2  14 4 0 0 200
0

0101000
-22 0 +20 0 *
Ed
 1e-07 1 1 0
1  8 0 0 1.0003
2  15 6 0 0 1.0003
2  16 5 0 0 1.0003
0

0101000
-20 0 +24 0 *
Wi

0101100
-23 0 -21 0 +19 0 +18 0 *
Fa
0  1e-07 6 0

0111000
+17 0 *
Ed
 1e-07 1 1 0
1  9 0 0 1.0003
2  17 2 0 0 1.0003
2  18 5 0 0 1.0003
0

0101000
-24 0 +34 0 *
Ed
 1e-07 1 1 0
1  10 0 0 1.0003
2  19 2 0 0 1.0003
2  20 3 0 0 1.0003
0

0101000
-25 0 +35 0 *
Wi

0101100
-15 0 -23 0 +14 0 +33 0 *
Fa
0  1e-07 2 0

0111000
+13 0 *
Ed
 1e-07 1 1 0
1  11 0 0 1.0003
2  21 4 0 0 1.0003
2  22 5 0 0 1.0003
0

0101000
-20 0 +30 0 *
Ed
 1e-07 1 1 0
1  12 0 0 1.0003
2  23 4 0 0 1.0003
2  24 3 0 0 1.0003
0

0101000
-22 0 +32 0 *
Wi

0101100
-11 0 -19 0 +10 0 +29 0 *
Fa
0  1e-07 4 0

0111000
+9 0 *
Wi

0101100
-28 0 -11 0 +18 0 +15 0 *
Fa
0  1e-07 5 0

0111000
+7 0 *
Wi

0101100
-31 0 -10 0 +21 0 +14 0 *
Fa
0  1e-07 3 0

0111000
+5 0 *
Sh

0101100
-26 0 +16 0 -12 0 +8 0 -6 0 +4 0 *
So

0100000
+3 0 *
Co

1100000
+2 0 *

+1 0 