DBRep_DrawableShape

CASCADE Topology V3, (c) Open Cascade
Locations 0
Curve2ds 22
2 0 0 -1 0 0 1 7.5
1 0 0 1 0 
1 0 3 1 0 
2 0 0 -1 0 0 1 7.5
1 6.2831853071795862 0 0 1 
1 0 0 0 1 
2 0 0 -1 0 0 1 11
1 0 0 1 0 
1 0 3 1 0 
2 0 0 -1 0 0 1 11
1 6.2831853071795862 0 0 1 
1 0 0 0 1 
2 0 0 -1 0 0 1 29
1 0 0 1 0 
1 0 11.313708498984759 1 0 
1 0 0 1 0 
1 6.2831853071795862 0 0 1 
1 0 0 0 1 
1 0 24 1 0 
2 0 0 1 0 -0 1 37
1 6.2831853071795862 0 0 1 
1 0 0 0 1 
Curves 11
2 0 0 0 0 0 1 1 0 -0 -0 1 0 7.5
2 0 0 3 0 0 1 1 0 -0 -0 1 0 7.5
1 7.5 0 0 0 0 1 
2 0 0 3 0 0 1 1 0 -0 -0 1 0 11
2 0 0 0 0 0 1 1 0 -0 -0 1 0 11
1 11 0 3 0 0 -1 
2 0 0 0 0 0 1 1 0 -0 -0 1 0 29
2 0 0 8 0 0 1 1 0 -0 -0 1 0 37
1 29 0 0 0.70710678118654746 0 0.70710678118654746 
2 0 0 32 0 0 1 1 0 -0 -0 1 0 37
1 37 0 8 0 0 1 
Polygon3D 0
PolygonOnTriangulations 0
Surfaces 8
1 0 0 0 0 0 1 -1 -0 0 -0 1 0 
2 0 0 0 0 0 1 1 0 -0 -0 1 0 7.5
1 0 0 3 0 0 1 -1 -0 0 -0 1 0 
2 0 0 3 -0 -0 -1 1 0 0 -0 1 -0 11
1 0 0 0 0 0 1 -1 -0 0 -0 1 0 
3 0 0 0 0 0 1 1 0 -0 -0 1 0 29
0.78539816339744839
2 0 0 8 0 0 1 1 0 -0 -0 1 0 37
1 0 0 32 0 0 1 1 0 -0 -0 1 0 
Triangulations 0

TShapes 37
Ve
1e-07
7.5 0 0
0 0

0101101
*
Ed
 1e-07 1 1 0
1  1 0 0 6.28318530717959
2  1 1 0 0 6.28318530717959
2  2 2 0 0 6.28318530717959
0

0101000
+37 0 -37 0 *
Wi

0101100
-36 0 *
Fa
0  1e-07 1 0

0101000
+35 0 *
Ve
1e-07
7.5 0 3
0 0

0101101
*
Ed
 1e-07 1 1 0
1  2 0 0 6.28318530717959
2  3 2 0 0 6.28318530717959
2  4 3 0 0 6.28318530717959
0

0101000
+33 0 -33 0 *
Ed
 1e-07 1 1 0
1  3 0 0 3
3  5 6CN 2 0 0 3
0

0101000
+37 0 -33 0 *
Wi

0101100
+36 0 -32 0 -31 0 +31 0 *
Fa
0  1e-07 2 0

0101000
+30 0 *
Wi

0101100
+32 0 *
Ve
1e-07
11 0 3
0 0

0101101
*
Ed
 1e-07 1 1 0
1  4 0 0 6.28318530717959
2  7 3 0 0 6.28318530717959
2  8 4 0 0 6.28318530717959
0

0101000
+27 0 -27 0 *
Wi

0101100
-26 0 *
Fa
0  1e-07 3 0

0101000
+28 0 +25 0 *
Ve
1e-07
11 0 0
0 0

0101101
*
Ed
 1e-07 1 1 0
1  5 0 0 6.28318530717959
2  9 4 0 0 6.28318530717959
2  10 5 0 0 6.28318530717959
0

0101000
+23 0 -23 0 *
Ed
 1e-07 1 1 0
1  6 0 0 3
3  11 12CN 4 0 0 3
0

0101000
+27 0 -23 0 *
Wi

0101100
+26 0 -22 0 -21 0 +21 0 *
Fa
0  1e-07 4 0

0101000
+20 0 *
Wi

0101100
+22 0 *
Ve
1e-07
29 0 0
0 0

0101101
*
Ed
 1e-07 1 1 0
1  7 0 0 6.28318530717959
2  13 5 0 0 6.28318530717959
2  14 6 0 0 6.28318530717959
0

0101000
+17 0 -17 0 *
Wi

0101100
-16 0 *
Fa
0  1e-07 5 0

0101000
+18 0 +15 0 *
Ve
1e-07
37 0 8
0 0

0101101
*
Ed
 1e-07 1 1 0
1  8 0 0 6.28318530717959
2  15 6 0 0 6.28318530717959
2  16 7 0 0 6.28318530717959
0

0101000
+13 0 -13 0 *
Ed
 1e-07 1 1 0
1  9 0 0 11.3137084989848
3  17 18CN 6 0 0 11.3137084989848
0

0101000
+17 0 -13 0 *
Wi

0101100
+16 0 -12 0 -11 0 +11 0 *
Fa
0  1e-07 6 0

0101000
+10 0 *
Ve
1e-07
37 0 32
0 0

0101101
*
Ed
 1e-07 1 1 0
1  10 0 0 6.28318530717959
2  19 7 0 0 6.28318530717959
2  20 8 0 0 6.28318530717959
0

0101000
+8 0 -8 0 *
Ed
 1e-07 1 1 0
1  11 0 0 24
3  21 22CN 7 0 0 24
0

0101000
+13 0 -8 0 *
Wi

0101100
+12 0 -7 0 -6 0 +6 0 *
Fa
0  1e-07 7 0

0101000
+5 0 *
Wi

0101100
+7 0 *
Fa
0  1e-07 8 0

0101000
+3 0 *
Sh

1101100
+34 0 +29 0 +24 0 +19 0 +14 0 +9 0 +4 0 +2 0 *

+1 0 