DBRep_DrawableShape

CASCADE Topology V3, (c) Open Cascade
Locations 0
Curve2ds 42
2 0 0 -1 0 0 1 4
1 0 0 1 0 
1 0 3 1 0 
2 0 0 -1 0 0 1 4
1 6.2831853071795862 0 0 1 
1 0 0 0 1 
2 0 0 -1 0 0 1 7.5
1 0 0 1 0 
1 0 3 1 0 
2 0 0 -1 0 0 1 7.5
1 6.2831853071795862 0 0 1 
1 0 0 0 1 
2 0 0 -1 0 0 1 11
1 0 0 1 0 
1 0 3 1 0 
2 0 0 -1 0 0 1 11
1 6.2831853071795862 0 0 1 
1 0 0 0 1 
2 0 0 -1 0 0 1 36
1 0 0 1 0 
1 0 4.2426406871192857 1 0 
1 0 0 1 0 
1 6.2831853071795862 0 0 1 
1 0 0 0 1 
1 0 59 1 0 
1 0 0 1 0 
1 6.2831853071795862 0 0 1 
1 0 0 0 1 
1 0 4.2426406871192857 1 0 
2 0 0 1 0 -0 1 36
1 6.2831853071795862 0 0 1 
1 0 0 0 1 
2 0 0 1 0 -0 1 8
1 0 0 1 0 
1 0 4.2426406871192857 1 0 
1 0 0 1 0 
1 6.2831853071795862 0 0 1 
1 0 0 0 1 
1 0 29 1 0 
2 0 0 1 0 -0 1 5
1 6.2831853071795862 0 0 1 
1 0 0 0 1 
Curves 21
2 0 0 3 0 0 1 1 0 -0 -0 1 0 4
2 0 0 0 0 0 1 1 0 -0 -0 1 0 4
1 4 0 3 0 0 -1 
2 0 0 0 0 0 1 1 0 -0 -0 1 0 7.5
2 0 0 3 0 0 1 1 0 -0 -0 1 0 7.5
1 7.5 0 0 0 0 1 
2 0 0 3 0 0 1 1 0 -0 -0 1 0 11
2 0 0 0 0 0 1 1 0 -0 -0 1 0 11
1 11 0 3 0 0 -1 
2 0 0 0 0 0 1 1 0 -0 -0 1 0 36
2 0 0 3 0 0 1 1 0 -0 -0 1 0 39
1 36 0 0 0.70710678118654757 0 0.70710678118654757 
2 0 0 62 0 0 1 1 0 -0 -0 1 0 39
1 39 0 3 0 0 1 
2 0 0 65 0 0 1 1 0 -0 -0 1 0 36
1 39 0 62 -0.70710678118654757 0 0.70710678118654757 
2 0 0 65 0 0 1 1 0 -0 -0 1 0 8
2 0 0 62 0 0 1 1 0 -0 -0 1 0 5
1 8 0 65 -0.70710678118654757 0 -0.70710678118654757 
2 0 0 33 0 0 1 1 0 -0 -0 1 0 5
1 5 0 62 0 0 -1 
Polygon3D 0
PolygonOnTriangulations 0
Surfaces 14
1 0 0 3 0 0 1 -1 -0 0 -0 1 0 
2 0 0 3 -0 -0 -1 1 0 0 -0 1 -0 4
1 0 0 0 0 0 1 -1 -0 0 -0 1 0 
2 0 0 0 0 0 1 1 0 -0 -0 1 0 7.5
1 0 0 3 0 0 1 -1 -0 0 -0 1 0 
2 0 0 3 -0 -0 -1 1 0 0 -0 1 -0 11
1 0 0 0 0 0 1 -1 -0 0 -0 1 0 
3 0 0 0 0 0 1 1 0 -0 -0 1 0 36
0.78539816339744828
2 0 0 3 0 0 1 1 0 -0 -0 1 0 39
3 0 0 62 0 0 1 1 0 -0 -0 1 0 39
-0.78539816339744828
1 0 0 65 0 0 1 1 0 -0 -0 1 0 
3 0 0 65 -0 -0 -1 1 0 0 -0 1 -0 8
-0.78539816339744828
2 0 0 62 -0 -0 -1 1 0 0 -0 1 -0 5
1 0 0 33 0 0 1 1 0 -0 -0 1 0 
Triangulations 0

TShapes 67
Ve
1e-07
4 0 3
0 0

0101101
*
Ed
 1e-07 1 1 0
1  1 0 0 6.28318530717959
2  1 1 0 0 6.28318530717959
2  2 2 0 0 6.28318530717959
0

0101000
+67 0 -67 0 *
Wi

0101100
-66 0 *
Fa
0  1e-07 1 0

0101000
+65 0 *
Ve
1e-07
4 0 0
0 0

0101101
*
Ed
 1e-07 1 1 0
1  2 0 0 6.28318530717959
2  3 2 0 0 6.28318530717959
2  4 3 0 0 6.28318530717959
0

0101000
+63 0 -63 0 *
Ed
 1e-07 1 1 0
1  3 0 0 3
3  5 6CN 2 0 0 3
0

0101000
+67 0 -63 0 *
Wi

0101100
+66 0 -62 0 -61 0 +61 0 *
Fa
0  1e-07 2 0

0101000
+60 0 *
Wi

0101100
+62 0 *
Ve
1e-07
7.5 0 0
0 0

0101101
*
Ed
 1e-07 1 1 0
1  4 0 0 6.28318530717959
2  7 3 0 0 6.28318530717959
2  8 4 0 0 6.28318530717959
0

0101000
+57 0 -57 0 *
Wi

0101100
-56 0 *
Fa
0  1e-07 3 0

0101000
+58 0 +55 0 *
Ve
1e-07
7.5 0 3
0 0

0101101
*
Ed
 1e-07 1 1 0
1  5 0 0 6.28318530717959
2  9 4 0 0 6.28318530717959
2  10 5 0 0 6.28318530717959
0

0101000
+53 0 -53 0 *
Ed
 1e-07 1 1 0
1  6 0 0 3
3  11 12CN 4 0 0 3
0

0101000
+57 0 -53 0 *
Wi

0101100
+56 0 -52 0 -51 0 +51 0 *
Fa
0  1e-07 4 0

0101000
+50 0 *
Wi

0101100
+52 0 *
Ve
1e-07
11 0 3
0 0

0101101
*
Ed
 1e-07 1 1 0
1  7 0 0 6.28318530717959
2  13 5 0 0 6.28318530717959
2  14 6 0 0 6.28318530717959
0

0101000
+47 0 -47 0 *
Wi

0101100
-46 0 *
Fa
0  1e-07 5 0

0101000
+48 0 +45 0 *
Ve
1e-07
11 0 0
0 0

0101101
*
Ed
 1e-07 1 1 0
1  8 0 0 6.28318530717959
2  15 6 0 0 6.28318530717959
2  16 7 0 0 6.28318530717959
0

0101000
+43 0 -43 0 *
Ed
 1e-07 1 1 0
1  9 0 0 3
3  17 18CN 6 0 0 3
0

0101000
+47 0 -43 0 *
Wi

0101100
+46 0 -42 0 -41 0 +41 0 *
Fa
0  1e-07 6 0

0101000
+40 0 *
Wi

0101100
+42 0 *
Ve
1e-07
36 0 0
0 0

0101101
*
Ed
 1e-07 1 1 0
1  10 0 0 6.28318530717959
2  19 7 0 0 6.28318530717959
2  20 8 0 0 6.28318530717959
0

0101000
+37 0 -37 0 *
Wi

0101100
-36 0 *
Fa
0  1e-07 7 0

0101000
+38 0 +35 0 *
Ve
1e-07
39 0 3
0 0

0101101
*
Ed
 1e-07 1 1 0
1  11 0 0 6.28318530717959
2  21 8 0 0 6.28318530717959
2  22 9 0 0 6.28318530717959
0

0101000
+33 0 -33 0 *
Ed
 1e-07 1 1 0
1  12 0 0 4.24264068711928
3  23 24CN 8 0 0 4.24264068711928
0

0101000
+37 0 -33 0 *
Wi

0101100
+36 0 -32 0 -31 0 +31 0 *
Fa
0  1e-07 8 0

0101000
+30 0 *
Ve
1e-07
39 0 62
0 0

0101101
*
Ed
 1e-07 1 1 0
1  13 0 0 6.28318530717959
2  25 9 0 0 6.28318530717959
2  26 10 0 0 6.28318530717959
0

0101000
+28 0 -28 0 *
Ed
 1e-07 1 1 0
1  14 0 0 59
3  27 28CN 9 0 0 59
0

0101000
+33 0 -28 0 *
Wi

0101100
+32 0 -27 0 -26 0 +26 0 *
Fa
0  1e-07 9 0

0101000
+25 0 *
Ve
1e-07
36 0 65
0 0

0101101
*
Ed
 1e-07 1 1 0
1  15 0 0 6.28318530717959
2  29 10 0 0 6.28318530717959
2  30 11 0 0 6.28318530717959
0

0101000
+23 0 -23 0 *
Ed
 1e-07 1 1 0
1  16 0 0 4.24264068711928
3  31 32CN 10 0 0 4.24264068711928
0

0101000
+28 0 -23 0 *
Wi

0101100
+27 0 -22 0 -21 0 +21 0 *
Fa
0  1e-07 10 0

0101000
+20 0 *
Wi

0101100
+22 0 *
Ve
1e-07
8 0 65
0 0

0101101
*
Ed
 1e-07 1 1 0
1  17 0 0 6.28318530717959
2  33 11 0 0 6.28318530717959
2  34 12 0 0 6.28318530717959
0

0101000
+17 0 -17 0 *
Wi

0101100
-16 0 *
Fa
0  1e-07 11 0

0101000
+18 0 +15 0 *
Ve
1e-07
5 0 62
0 0

0101101
*
Ed
 1e-07 1 1 0
1  18 0 0 6.28318530717959
2  35 12 0 0 6.28318530717959
2  36 13 0 0 6.28318530717959
0

0101000
+13 0 -13 0 *
Ed
 1e-07 1 1 0
1  19 0 0 4.24264068711928
3  37 38CN 12 0 0 4.24264068711928
0

0101000
+17 0 -13 0 *
Wi

0101100
+16 0 -12 0 -11 0 +11 0 *
Fa
0  1e-07 12 0

0101000
+10 0 *
Ve
1e-07
5 0 33
0 0

0101101
*
Ed
 1e-07 1 1 0
1  20 0 0 6.28318530717959
2  39 13 0 0 6.28318530717959
2  40 14 0 0 6.28318530717959
0

0101000
+8 0 -8 0 *
Ed
 1e-07 1 1 0
1  21 0 0 29
3  41 42CN 13 0 0 29
0

0101000
+13 0 -8 0 *
Wi

0101100
+12 0 -7 0 -6 0 +6 0 *
Fa
0  1e-07 13 0

0101000
+5 0 *
Wi

0101100
+7 0 *
Fa
0  1e-07 14 0

0101000
+3 0 *
Sh

1101100
+64 0 +59 0 +54 0 +49 0 +44 0 +39 0 +34 0 +29 0 +24 0 +19 0 
+14 0 +9 0 +4 0 +2 0 *

+1 0 