DBRep_DrawableShape

CASCADE Topology V3, (c) Open Cascade
Locations 2
1
              1               0               0               0 
              0               1               0               0 
              0               0               1           -33.5 
1
              1               0               0               0 
              0               1               0               0 
              0               0               1            33.5 
Curve2ds 22
1 0 0.75 1 0 
2 0 0 1 0 -0 1 46
1 6.2831853071795862 -0 0 1 
1 0 -0 0 1 
1 0 0 1 0 
2 0 0 1 0 -0 1 46
1 6.2831853071795862 -0 0 1 
1 0 -0 0 1 
1 0 34.25 1 0 
2 0 0 1 0 -0 1 41
1 0 67 1 0 
2 0 0 1 0 -0 1 41
1 0 0.75 1 0 
2 0 0 1 0 -0 1 46
1 6.2831853071795862 -0 0 1 
1 0 -0 0 1 
1 0 0 1 0 
2 0 0 1 0 -0 1 46
1 0 33.5 1 0 
2 0 0 1 0 -0 1 41
1 0 0 1 0 
2 0 0 1 0 -0 1 41
Curves 11
2 0 0 0.75 0 0 1 1 0 -0 -0 1 0 46
1 46 -1.1266750552155649e-14 0 0 0 1 
2 0 0 0 0 0 1 1 0 -0 -0 1 0 46
1 41 -1.0042103753008296e-14 0 0 0 1 
2 0 0 34.25 0 0 1 1 0 -0 -0 1 0 41
2 0 0 67 0 0 1 1 0 -0 -0 1 0 41
2 0 0 0.75 0 0 1 1 0 -0 -0 1 0 46
1 46 -1.1266750552155649e-14 0 0 0 1 
2 0 0 0 0 0 1 1 0 -0 -0 1 0 46
2 0 0 33.5 0 0 1 1 0 -0 -0 1 0 41
2 0 0 0 0 0 1 1 0 -0 -0 1 0 41
Polygon3D 0
PolygonOnTriangulations 0
Surfaces 9
2 0 0 0 0 0 1 1 0 -0 -0 1 0 46
1 0 0 0.75 0 0 1 1 0 -0 -0 1 0 
1 0 0 0 0 0 1 1 0 -0 -0 1 0 
2 0 0 0 0 0 1 1 0 -0 -0 1 0 41
1 0 0 0.75 0 0 1 1 0 -0 -0 1 0 
1 0 0 67 0 0 1 1 0 -0 -0 1 0 
2 0 0 0 0 0 1 1 0 -0 -0 1 0 46
1 0 0 0 0 0 1 1 0 -0 -0 1 0 
1 0 0 0 0 0 1 1 0 -0 -0 1 0 
Triangulations 0

TShapes 47
Ve
1e-07
46 -1.12667505521556e-14 0.75
0 0

0101101
*
Ed
 1e-07 1 1 0
1  1 0 0 6.28318530717959
2  1 1 0 0 6.28318530717959
2  2 2 0 0 6.28318530717959
0

0101000
+47 0 -47 0 *
Ve
1e-07
46 -1.12667505521556e-14 0
0 0

0101101
*
Ed
 1e-07 1 1 0
1  2 0 0 0.75
3  3 4CN 1 0 0 0.75
0

0101000
-47 0 +45 0 *
Ed
 1e-07 1 1 0
1  3 0 0 6.28318530717959
2  5 1 0 0 6.28318530717959
2  6 3 0 0 6.28318530717959
0

0101000
+45 0 -45 0 *
Wi

0101100
-46 0 +44 0 +43 0 -44 0 *
Fa
0  1e-07 1 0

0111000
+42 0 *
Wi

0101100
+46 0 *
Fa
0  1e-07 2 0

0111000
+40 0 *
Wi

0101100
-43 0 *
Fa
0  1e-07 3 0

0111000
-38 0 *
Sh

0101100
+41 0 +39 0 -37 0 *
So

0100000
+36 0 *
Ve
1.00000010042104e-07
41 -1.00421037530083e-14 34.25
0 0

0101101
*
Ve
1e-07
41 -1.00421037530083e-14 67
0 0

0101101
*
Ed
 1e-07 1 1 0
1  4 0 34.25 67
3  7 8CN 4 0 34.25 67
0

0101000
+34 0 -33 0 *
Ed
 1e-07 1 1 0
1  5 0 0 6.28318530717959
2  9 4 0 0 6.28318530717959
2  10 5 2 0 6.28318530717959
0

0101100
+34 0 -34 0 *
Ed
 1e-07 1 1 0
1  6 0 0 6.28318530717959
2  11 4 0 0 6.28318530717959
2  12 6 0 0 6.28318530717959
0

0101000
+33 0 -33 0 *
Wi

0101100
+32 0 +31 0 -32 0 -30 0 *
Fa
0  1e-07 4 0

0101000
+29 0 *
Ve
1e-07
46 -1.12667505521556e-14 0.75
0 0

0101101
*
Ed
 1e-07 1 1 0
1  7 0 0 6.28318530717959
2  13 7 0 0 6.28318530717959
2  14 5 0 0 6.28318530717959
0

0101000
+27 0 -27 0 *
Wi

0101100
+26 2 *
Wi

0101100
-31 0 *
Fa
0  1e-07 5 2

0101000
+25 0 +24 0 *
Wi

0101100
+30 0 *
Fa
0  1e-07 6 0

0111000
+22 0 *
Ve
1e-07
46 -1.12667505521556e-14 0
0 0

0101101
*
Ed
 1e-07 1 1 0
1  8 0 0 0.75
3  15 16CN 7 0 0 0.75
0

0101000
-27 0 +20 0 *
Ed
 1e-07 1 1 0
1  9 0 0 6.28318530717959
2  17 7 0 0 6.28318530717959
2  18 8 0 0 6.28318530717959
0

0101000
+20 0 -20 0 *
Wi

0101100
-26 0 +19 0 +18 0 -19 0 *
Fa
0  1e-07 7 0

0111000
+17 0 *
Wi

0101100
+18 2 *
Ve
1.00000010042104e-07
41 -1.00421037530083e-14 33.5
0 0

0101101
*
Ed
 1e-07 1 1 0
1  10 0 0 6.28318530717959
2  19 4 0 0 6.28318530717959
2  20 8 2 0 6.28318530717959
0

0101100
+14 0 -14 0 *
Wi

0101100
-13 0 *
Fa
0  1e-07 8 2

0101000
+15 0 +12 0 *
Ve
1e-07
41 -1.00421037530083e-14 0
0 0

0101101
*
Ed
 1e-07 1 1 0
1  4 0 0 33.5
3  7 8CN 4 0 0 33.5
0

0101000
+10 0 -14 0 *
Ed
 1e-07 1 1 0
1  11 0 0 6.28318530717959
2  21 4 0 0 6.28318530717959
2  22 9 0 0 6.28318530717959
0

0101000
+10 0 -10 0 *
Wi

0101100
-13 0 +9 0 +8 0 -9 0 *
Fa
0  1e-07 4 0

0101000
+7 0 *
Wi

0101100
-8 0 *
Fa
0  1e-07 9 0

0111000
-5 0 *
Sh

0101100
+28 0 +23 0 +21 0 +16 2 -11 0 +6 0 -4 0 *
So

0100000
+3 0 *
Co

1100000
+35 1 +2 0 *

+1 0 