DBRep_DrawableShape

CASCADE Topology V3, (c) Open Cascade
Locations 2
1
              1               0               0               0 
              0               1               0               0 
              0               0               1            -0.1 
2  1 -1 0
Curve2ds 12
1 0 1.5 1 0 
2 0 0 1 0 -0 1 50.710000000999997
1 6.2831853071795862 -0 0 1 
1 0 -0 0 1 
1 0 0 1 0 
2 0 0 1 0 -0 1 50.710000000999997
2 0 0 1 0 -0 1 50.510000001999991
1 0 0.10000000000000001 1 0 
1 6.2831853071795862 -0 0 1 
1 0 -0 0 1 
1 0 1.4000000000000001 1 0 
2 0 0 1 0 -0 1 50.510000001999991
Curves 6
2 0 0 1.5 0 0 1 1 0 -0 -0 1 0 50.710000000999997
1 50.710000000999997 -1.2420367837197385e-14 0 0 0 1 
2 0 0 0 0 0 1 1 0 -0 -0 1 0 50.710000000999997
2 0 0 0 0 0 1 1 0 -0 -0 1 0 50.510000001999991
1 50.510000001999991 -1.2371381965476418e-14 0 0 0 1 
2 0 0 1.4000000000000001 0 0 1 1 0 -0 -0 1 0 50.510000001999991
Polygon3D 0
PolygonOnTriangulations 0
Surfaces 5
2 0 0 0 0 0 1 1 0 -0 -0 1 0 50.710000000999997
1 0 0 1.5 0 0 1 1 0 -0 -0 1 0 
1 0 0 0 0 0 1 1 0 -0 -0 1 0 
2 0 0 0 0 0 1 1 0 -0 -0 1 0 50.510000001999991
1 0 0 1.4000000000000001 0 0 1 1 0 -0 -0 1 0 
Triangulations 0

TShapes 24
Ve
1e-07
50.710000001 -1.24203678371974e-14 1.5
0 0

0101101
*
Ed
 1e-07 1 1 0
1  1 0 0 6.28318530717959
2  1 1 0 0 6.28318530717959
2  2 2 0 0 6.28318530717959
0

0101000
+24 0 -24 0 *
Ve
1e-07
50.710000001 -1.24203678371974e-14 0
0 0

0101101
*
Ed
 1e-07 1 1 0
1  2 0 0 1.5
3  3 4CN 1 0 0 1.5
0

0101000
-24 0 +22 0 *
Ed
 1e-07 1 1 0
1  3 0 0 6.28318530717959
2  5 1 0 0 6.28318530717959
2  6 3 0 0 6.28318530717959
0

0101000
+22 0 -22 0 *
Wi

0101100
-23 0 +21 0 +20 0 -21 0 *
Fa
0  1e-07 1 0

0111000
+19 0 *
Wi

0101100
+23 0 *
Fa
0  1e-07 2 0

0111000
+17 0 *
Wi

0101100
+20 0 *
Ve
1.00000012371382e-07
50.510000002 -1.23713819654764e-14 0
0 0

0101101
*
Ed
 1e-07 1 1 0
1  4 0 0 6.28318530717959
2  7 3 0 0 6.28318530717959
2  8 4 1 0 6.28318530717959
0

0101100
+14 0 -14 0 *
Wi

0101100
-13 0 *
Fa
0  1e-07 3 0

0101000
+15 0 +12 0 *
Ve
1e-07
50.510000002 -1.23713819654764e-14 1.4
0 0

0101101
*
Ed
 1e-07 1 1 0
1  5 0 0.1 1.4
3  9 10CN 4 0 0.1 1.4
0

0101000
+14 2 -10 0 *
Ed
 1e-07 1 1 0
1  6 0 0 6.28318530717959
2  11 4 0 0 6.28318530717959
2  12 5 0 0 6.28318530717959
0

0101000
+10 0 -10 0 *
Wi

0101100
+9 1 +13 0 -9 1 -8 1 *
Fa
0  1e-07 4 1

0101000
+7 0 *
Wi

0101100
+8 0 *
Fa
0  1e-07 5 0

0111000
+5 0 *
Sh

0101100
+18 0 +16 0 -11 0 -6 0 -4 1 *
So

0100000
+3 0 *
Co

1100000
+2 0 *

+1 0 